<?xml version="1.0" standalone="no"?>
<!DOCTYPE svg PUBLIC "-//W3C//DTD SVG 1.1//EN" "http://www.w3.org/Graphics/SVG/1.1/DTD/svg11.dtd" >
<svg>
<metadata>
Created by FontForge 20090914 at Fri Feb 24 15:32:02 2012
 By root
Typeface &#194;&#169; Bou Fonts. 2011. All Rights Reserved
</metadata>
<defs>
<font id="SquareFont" horiz-adv-x="1186" >
  <font-face 
    font-family="SquareFont"
    font-weight="400"
    font-stretch="normal"
    units-per-em="2048"
    panose-1="2 0 5 0 0 0 0 0 0 0"
    ascent="1638"
    descent="-410"
    x-height="1436"
    cap-height="1436"
    bbox="100 -331 3458 1707"
    underline-thickness="150"
    underline-position="-142"
    unicode-range="U+0020-U+F002"
  />
<missing-glyph horiz-adv-x="1024" 
d="M100 0v1434h824v-1434h-824zM150 50h724v1334h-724v-1334zM325 1148q31 28 58 43q53 30 112 30q92 0 148 -47.5t56 -127.5q0 -49 -23 -98.5t-87 -129.5q-63 -80 -99 -132t-36 -99q0 -38 24 -133h-32q-35 97 -35 148q0 76 81.5 218t81.5 217q0 57 -33 90t-91 33
q-38 0 -69 -17q-26 -15 -56 -40v45zM389 334l57 58q11 10 20 10q10 0 22 -11l56 -60q9 -11 9 -20q0 -11 -10 -22l-56 -62q-14 -14 -21 -14q-11 0 -20 10l-61 71q-7 9 -7 18q0 10 11 22z" />
    <glyph glyph-name=".notdef" horiz-adv-x="1024" 
d="M100 0v1434h824v-1434h-824zM150 50h724v1334h-724v-1334zM325 1148q31 28 58 43q53 30 112 30q92 0 148 -47.5t56 -127.5q0 -49 -23 -98.5t-87 -129.5q-63 -80 -99 -132t-36 -99q0 -38 24 -133h-32q-35 97 -35 148q0 76 81.5 218t81.5 217q0 57 -33 90t-91 33
q-38 0 -69 -17q-26 -15 -56 -40v45zM389 334l57 58q11 10 20 10q10 0 22 -11l56 -60q9 -11 9 -20q0 -11 -10 -22l-56 -62q-14 -14 -21 -14q-11 0 -20 10l-61 71q-7 9 -7 18q0 10 11 22z" />
    <glyph glyph-name=".null" horiz-adv-x="0" 
 />
    <glyph glyph-name="nonmarkingreturn" horiz-adv-x="508" 
 />
    <glyph glyph-name="space" unicode=" " horiz-adv-x="508" 
 />
    <glyph glyph-name="space" unicode="&#xa0;" horiz-adv-x="508" 
 />
    <glyph glyph-name="exclam" unicode="!" horiz-adv-x="476" 
d="M100 391v1045h276v-1045h-276zM376 258v-258h-276v258h276z" />
    <glyph glyph-name="quotedbl" unicode="&#x22;" horiz-adv-x="698" 
d="M298 1436v-402h-198v402h198zM598 1436v-402h-198v402h198z" />
    <glyph glyph-name="numbersign" unicode="#" 
d="M683 378h-180v-378h-276v378h-127v234h127v229h-127v234h127v361h276v-361h180v361h276v-361h127v-234h-127v-229h127v-234h-127v-378h-276v378zM503 612h180v229h-180v-229z" />
    <glyph glyph-name="dollar" unicode="$" 
d="M827 246v355h-727v835h411v150h168v-150h407v-246h-710v-355h710v-835h-407v-168h-168v168h-411v246h727z" />
    <glyph glyph-name="percent" unicode="%" horiz-adv-x="1564" 
d="M593 1436v-718h-493v718h493zM464 1313h-226v-472h226v472zM1464 722v-718h-493v718h493zM1335 599h-226v-472h226v472zM454 0h-276l938 1436h276z" />
    <glyph glyph-name="ampersand" unicode="&#x26;" 
d="M376 601v-355h451v355h-451zM827 835v265h259v-1100h-986v1436h986v-246h-710v-355h451z" />
    <glyph glyph-name="quotesingle" unicode="'" horiz-adv-x="398" 
d="M298 1436v-402h-198v402h198z" />
    <glyph glyph-name="parenleft" unicode="(" horiz-adv-x="613" 
d="M513 0h-310l-103 126v1184l104 126h309v-246h-154v-944h154v-246z" />
    <glyph glyph-name="parenright" unicode=")" horiz-adv-x="613" 
d="M100 246h154v944h-154v246h309l104 -126v-1184l-103 -126h-310v246z" />
    <glyph glyph-name="asterisk" unicode="*" horiz-adv-x="579" 
d="M251 1436v-120l-96 42l-55 -84l115 -60l-84 -90l72 -60l78 102l84 -108l66 60l-66 102l114 48l-42 84l-96 -30v114h-90z" />
    <glyph glyph-name="plus" unicode="+" horiz-adv-x="910" 
d="M583 601v-254h-234v254h-249v234h249v222h234v-222h227v-234h-227z" />
    <glyph glyph-name="comma" unicode="," horiz-adv-x="476" 
d="M223 0h-123v258h276v-258l-112 -240h-156z" />
    <glyph glyph-name="hyphen" unicode="-" horiz-adv-x="721" 
d="M100 835h521v-234h-521v234z" />
    <glyph glyph-name="hyphen" unicode="&#xad;" horiz-adv-x="721" 
d="M100 835h521v-234h-521v234z" />
    <glyph glyph-name="period" unicode="." horiz-adv-x="476" 
d="M376 258v-258h-276v258h276z" />
    <glyph glyph-name="slash" unicode="/" horiz-adv-x="981" 
d="M376 0h-276l505 1436h276z" />
    <glyph glyph-name="zero" unicode="0" 
d="M1086 1436v-1436h-986v1436h986zM827 1190h-451v-944h451v944z" />
    <glyph glyph-name="one" unicode="1" horiz-adv-x="476" 
d="M376 0h-276v1436h276v-1436z" />
    <glyph glyph-name="two" unicode="2" 
d="M1086 246v-246h-986v835h727v355h-727v246h986v-835h-710v-355h710z" />
    <glyph glyph-name="three" unicode="3" 
d="M100 1190v246h986v-1436h-986v246h727v355h-727v234h727v355h-727z" />
    <glyph glyph-name="four" unicode="4" 
d="M100 601v835h276v-601h451v601h259v-1436h-259v601h-727z" />
    <glyph glyph-name="five" unicode="5" 
d="M100 601v835h986v-246h-710v-355h710v-835h-986v246h727v355h-727z" />
    <glyph glyph-name="six" unicode="6" 
d="M376 1190v-355h710v-835h-986v1436h986v-246h-710zM376 601v-355h451v355h-451z" />
    <glyph glyph-name="seven" unicode="7" 
d="M827 1190h-727v246h986v-1436h-259v1190z" />
    <glyph glyph-name="eight" unicode="8" 
d="M1086 1436v-1436h-986v1436h986zM376 601v-355h451v355h-451zM376 1190v-355h451v355h-451z" />
    <glyph glyph-name="nine" unicode="9" 
d="M827 246v355h-727v835h986v-1436h-986v246h727zM376 1190v-355h451v355h-451z" />
    <glyph glyph-name="colon" unicode=":" horiz-adv-x="476" 
d="M376 931v-258h-276v258h276zM376 258v-258h-276v258h276z" />
    <glyph glyph-name="semicolon" unicode=";" horiz-adv-x="476" 
d="M376 931v-258h-276v258h276zM223 0h-123v258h276v-258l-112 -240h-156z" />
    <glyph glyph-name="semicolon" unicode="&#x37e;" horiz-adv-x="476" 
d="M376 931v-258h-276v258h276zM223 0h-123v258h276v-258l-112 -240h-156z" />
    <glyph glyph-name="less" unicode="&#x3c;" horiz-adv-x="910" 
d="M100 1015l710 270v-234l-523 -231l523 -297v-234l-710 348v378z" />
    <glyph glyph-name="equal" unicode="=" horiz-adv-x="910" 
d="M100 1105h710v-234h-710v234zM100 691h710v-234h-710v234z" />
    <glyph glyph-name="greater" unicode="&#x3e;" horiz-adv-x="910" 
d="M810 637l-710 -348v234l523 297l-523 231v234l710 -270v-378z" />
    <glyph glyph-name="question" unicode="?" 
d="M100 373v462h727v355h-727v246h986v-835h-710v-228h-276zM376 258v-258h-276v258h276z" />
    <glyph glyph-name="at" unicode="@" 
d="M827 601v210h-166v-210h166zM827 1004v186h-451v-944h710v-246h-986v1436h986v-1015h-617v583h358z" />
    <glyph glyph-name="A" unicode="A" 
d="M827 601h-451v-601h-276v1436h986v-1436h-259v601zM376 1190v-355h451v355h-451z" />
    <glyph glyph-name="B" unicode="B" 
d="M1086 1436v-544l-121 -179l121 -180v-533h-986v1436h986zM376 601v-355h451v355h-451zM376 1190v-355h451v355h-451z" />
    <glyph glyph-name="C" unicode="C" 
d="M376 246h710v-246h-986v1436h986v-246h-710v-944z" />
    <glyph glyph-name="D" unicode="D" 
d="M100 0v1436h882l104 -126v-1184l-103 -126h-883zM827 1190h-451v-944h451v944z" />
    <glyph glyph-name="E" unicode="E" 
d="M376 1190v-355h710v-234h-710v-355h710v-246h-986v1436h986v-246h-710z" />
    <glyph glyph-name="F" unicode="F" 
d="M376 0h-276v1436h986v-246h-710v-355h710v-234h-710v-601z" />
    <glyph glyph-name="G" unicode="G" 
d="M541 835h545v-835h-986v1436h986v-246h-710v-944h451v355h-286v234z" />
    <glyph glyph-name="H" unicode="H" 
d="M376 0h-276v1436h276v-601h451v601h259v-1436h-259v601h-451v-601z" />
    <glyph glyph-name="I" unicode="I" horiz-adv-x="476" 
d="M376 0h-276v1436h276v-1436z" />
    <glyph glyph-name="J" unicode="J" 
d="M376 619v-373h451v1190h259v-1436h-986v619h276z" />
    <glyph glyph-name="K" unicode="K" 
d="M376 0h-276v1436h276v-601l451 601h259l-481 -700l481 -736h-259l-451 601v-601z" />
    <glyph glyph-name="L" unicode="L" 
d="M376 246h710v-246h-986v1436h276v-1190z" />
    <glyph glyph-name="M" unicode="M" horiz-adv-x="1306" 
d="M376 0h-276v1436h276l280 -787l291 787h259v-1436h-259v601l-201 -601h-162l-208 601v-601z" />
    <glyph glyph-name="N" unicode="N" 
d="M376 0h-276v1436h276l451 -805v805h259v-1436h-259l-451 829v-829z" />
    <glyph glyph-name="O" unicode="O" 
d="M1086 1436v-1436h-986v1436h986zM827 1190h-451v-944h451v944z" />
    <glyph glyph-name="P" unicode="P" 
d="M376 0h-276v1436h986v-835h-710v-601zM376 1190v-355h451v355h-451z" />
    <glyph glyph-name="Q" unicode="Q" 
d="M827 261v929h-451v-944h221l-93 175h242zM729 0h-629v1436h986v-1436h-127l121 -240h-223z" />
    <glyph glyph-name="R" unicode="R" 
d="M376 1190v-355h451v355h-451zM100 0v1436h986v-835h-337l337 -601h-259l-354 601h-97v-601h-276z" />
    <glyph glyph-name="S" unicode="S" 
d="M100 601v835h986v-246h-710v-355h710v-835h-986v246h727v355h-727z" />
    <glyph glyph-name="T" unicode="T" 
d="M473 1190h-373v246h986v-246h-337v-1190h-276v1190z" />
    <glyph glyph-name="U" unicode="U" 
d="M827 1436h259v-1436h-986v1436h276v-1190h451v1190z" />
    <glyph glyph-name="V" unicode="V" 
d="M827 1436h259l-313 -1436h-336l-337 1436h276l216 -1105z" />
    <glyph glyph-name="W" unicode="W" horiz-adv-x="1599" 
d="M800 656l-117 -656h-327l-256 1436h282l136 -960l145 960h273l145 -960l136 960h282l-256 -1436h-327z" />
    <glyph glyph-name="X" unicode="X" horiz-adv-x="1190" 
d="M461 718h-9l-348 718h276l223 -456l228 456h259l-361 -717h9l348 -718h-276l-223 456l-228 -456h-259z" />
    <glyph glyph-name="Y" unicode="Y" 
d="M724 718v-718h-276v718l-348 718h276l223 -456l228 456h259z" />
    <glyph glyph-name="Z" unicode="Z" 
d="M749 1190h-649v246h986v-246l-637 -944h637v-246h-986v246z" />
    <glyph glyph-name="bracketleft" unicode="[" horiz-adv-x="612" 
d="M512 0h-412l1 1436h411v-246h-154v-944h154v-246z" />
    <glyph glyph-name="backslash" unicode="\" horiz-adv-x="981" 
d="M100 1436h276l505 -1436h-276z" />
    <glyph glyph-name="bracketright" unicode="]" horiz-adv-x="612" 
d="M100 246h154v944h-154v246h411l1 -1436h-412v246z" />
    <glyph glyph-name="asciicircum" unicode="^" horiz-adv-x="1196" 
d="M826 1436l270 -710h-234l-231 523l-297 -523h-234l348 710h378z" />
    <glyph glyph-name="underscore" unicode="_" horiz-adv-x="1125" 
d="M1025 6v-126h-925v126h925z" />
    <glyph glyph-name="grave" unicode="`" horiz-adv-x="453" 
d="M100 1683l103 -211h150l-102 211h-151z" />
    <glyph glyph-name="a" unicode="a" 
d="M827 601h-451v-601h-276v1436h986v-1436h-259v601zM376 1190v-355h451v355h-451z" />
    <glyph glyph-name="b" unicode="b" 
d="M1086 1436v-544l-121 -179l121 -180v-533h-986v1436h986zM376 601v-355h451v355h-451zM376 1190v-355h451v355h-451z" />
    <glyph glyph-name="c" unicode="c" 
d="M376 246h710v-246h-986v1436h986v-246h-710v-944z" />
    <glyph glyph-name="d" unicode="d" 
d="M100 0v1436h882l104 -126v-1184l-103 -126h-883zM827 1190h-451v-944h451v944z" />
    <glyph glyph-name="e" unicode="e" 
d="M376 1190v-355h710v-234h-710v-355h710v-246h-986v1436h986v-246h-710z" />
    <glyph glyph-name="f" unicode="f" 
d="M376 0h-276v1436h986v-246h-710v-355h710v-234h-710v-601z" />
    <glyph glyph-name="g" unicode="g" 
d="M541 835h545v-835h-986v1436h986v-246h-710v-944h451v355h-286v234z" />
    <glyph glyph-name="h" unicode="h" 
d="M376 0h-276v1436h276v-601h451v601h259v-1436h-259v601h-451v-601z" />
    <glyph glyph-name="i" unicode="i" horiz-adv-x="476" 
d="M376 0h-276v1436h276v-1436z" />
    <glyph glyph-name="j" unicode="j" 
d="M376 619v-373h451v1190h259v-1436h-986v619h276z" />
    <glyph glyph-name="k" unicode="k" 
d="M376 0h-276v1436h276v-601l451 601h259l-481 -700l481 -736h-259l-451 601v-601z" />
    <glyph glyph-name="l" unicode="l" 
d="M376 246h710v-246h-986v1436h276v-1190z" />
    <glyph glyph-name="m" unicode="m" horiz-adv-x="1306" 
d="M376 0h-276v1436h276l280 -787l291 787h259v-1436h-259v601l-201 -601h-162l-208 601v-601z" />
    <glyph glyph-name="n" unicode="n" 
d="M376 0h-276v1436h276l451 -805v805h259v-1436h-259l-451 829v-829z" />
    <glyph glyph-name="o" unicode="o" 
d="M1086 1436v-1436h-986v1436h986zM827 1190h-451v-944h451v944z" />
    <glyph glyph-name="p" unicode="p" 
d="M376 0h-276v1436h986v-835h-710v-601zM376 1190v-355h451v355h-451z" />
    <glyph glyph-name="q" unicode="q" 
d="M827 261v929h-451v-944h221l-93 175h242zM729 0h-629v1436h986v-1436h-127l121 -240h-223z" />
    <glyph glyph-name="r" unicode="r" 
d="M376 1190v-355h451v355h-451zM100 0v1436h986v-835h-337l337 -601h-259l-354 601h-97v-601h-276z" />
    <glyph glyph-name="s" unicode="s" 
d="M100 601v835h986v-246h-710v-355h710v-835h-986v246h727v355h-727z" />
    <glyph glyph-name="t" unicode="t" 
d="M473 1190h-373v246h986v-246h-337v-1190h-276v1190z" />
    <glyph glyph-name="u" unicode="u" 
d="M827 1436h259v-1436h-986v1436h276v-1190h451v1190z" />
    <glyph glyph-name="v" unicode="v" 
d="M827 1436h259l-313 -1436h-336l-337 1436h276l216 -1105z" />
    <glyph glyph-name="w" unicode="w" horiz-adv-x="1599" 
d="M800 656l-117 -656h-327l-256 1436h282l136 -960l145 960h273l145 -960l136 960h282l-256 -1436h-327z" />
    <glyph glyph-name="x" unicode="x" horiz-adv-x="1190" 
d="M461 718h-9l-348 718h276l223 -456l228 456h259l-361 -717h9l348 -718h-276l-223 456l-228 -456h-259z" />
    <glyph glyph-name="y" unicode="y" 
d="M724 718v-718h-276v718l-348 718h276l223 -456l228 456h259z" />
    <glyph glyph-name="z" unicode="z" 
d="M749 1190h-649v246h986v-246l-637 -944h637v-246h-986v246z" />
    <glyph glyph-name="braceleft" unicode="{" horiz-adv-x="725" 
d="M212 819v491l104 126h309v-246h-154v-376l-67 -94l67 -76v-398h154v-246h-310l-103 126v508l-112 81z" />
    <glyph glyph-name="bar" unicode="|" horiz-adv-x="344" 
d="M244 1659v-1815h-144v1815h144z" />
    <glyph glyph-name="braceright" unicode="}" horiz-adv-x="725" 
d="M625 715l-112 -81v-508l-103 -126h-310v246h154v398l67 76l-67 94v376h-154v246h309l104 -126v-491z" />
    <glyph glyph-name="asciitilde" unicode="~" horiz-adv-x="885" 
d="M100 798l82 -150q103 116 260.5 20.5t342.5 116.5l-96 116q-137 -123 -257 -37t-332 -66z" />
    <glyph glyph-name="exclamdown" unicode="&#xa1;" horiz-adv-x="476" 
d="M376 1045v-1045h-276v1045h276zM100 1178v258h276v-258h-276z" />
    <glyph glyph-name="cent" unicode="&#xa2;" 
d="M376 932v-355h710v-234h-407v-174h-168v174h-411v835h411v150h168v-150h407v-246h-710z" />
    <glyph glyph-name="sterling" unicode="&#xa3;" 
d="M1086 1436v-444h-259v198h-294v-355h177v-234h-177v-355h553v-246h-986v246h157v355h-154v234h154v601h829z" />
    <glyph glyph-name="currency" unicode="&#xa4;" horiz-adv-x="1035" 
d="M731 976l114 121l90 -90l-115 -122q70 -98 70 -226q0 -143 -87 -249l93 -122l-91 -90l-97 127q-86 -54 -193 -54q-120 0 -212 67l-113 -120l-90 91l112 119q-73 100 -73 231q0 158 108 271l-102 134l90 90l112 -147q76 39 168 39q122 0 216 -70zM515 902
q-94 0 -160.5 -68.5t-66.5 -165.5q0 -96 66.5 -164.5t160.5 -68.5q93 0 159.5 68.5t66.5 164.5q0 97 -66.5 165.5t-159.5 68.5z" />
    <glyph glyph-name="yen" unicode="&#xa5;" 
d="M429 757l-329 679h276l223 -456l228 456h259l-342 -679h151v-222h-171v-103h171v-222h-171v-210h-276v210h-184v222h184v103h-184v222h165z" />
    <glyph glyph-name="brokenbar" unicode="&#xa6;" horiz-adv-x="345" 
d="M245 667v-823h-145v823h145zM100 853v806h145v-806h-145z" />
    <glyph glyph-name="section" unicode="&#xa7;" horiz-adv-x="1187" 
d="M101 1701h986v-246h-710v-343h709v-1436h-986v246h727v343h-726v1436zM376 866v-355h452v355h-452z" />
    <glyph glyph-name="dieresis" unicode="&#xa8;" horiz-adv-x="885" 
d="M376 1706v-258h-276v258h276zM785 1707v-258h-276v258h276z" />
    <glyph glyph-name="copyright" unicode="&#xa9;" horiz-adv-x="1690" 
d="M845 1495q188 0 366.5 -96t278.5 -274.5t100 -372.5t-98.5 -372t-276 -275.5t-370.5 -97.5q-194 0 -370.5 97.5t-275.5 275.5t-99 372t100.5 372.5t279 274.5t365.5 96zM845 1431q-171 0 -333.5 -88t-254.5 -251t-92 -340t90 -338.5t252 -252t338 -90.5t338 90.5
t252.5 252t90.5 338.5t-92 340t-254.5 251t-334.5 88zM1213 1230l22 -294h-41q-39 125 -120.5 186.5t-197.5 61.5q-87 0 -154 -36t-110 -95q-32 -46 -53 -121t-21 -156q0 -223 96 -328.5t252 -105.5q204 0 327 170l39 -20q-146 -213 -401 -213q-211 0 -349 136t-138 330
q0 201 147 343t375 142q50 0 81 -6t115 -33q25 -9 37 -9q17 0 29 9.5t24 38.5h41z" />
    <glyph glyph-name="ordfeminine" unicode="&#xaa;" horiz-adv-x="693" 
d="M464 1019h-226v-301h-138v718h493v-718h-129v301zM238 1313v-177h226v177h-226z" />
    <glyph glyph-name="guillemotleft" unicode="&#xab;" horiz-adv-x="792" 
d="M349 636l-117 133l115 120v265l-247 -223v-300l249 -218v223zM692 636l-117 133l115 120v265l-247 -223v-300l249 -218v223z" />
    <glyph glyph-name="logicalnot" unicode="&#xac;" horiz-adv-x="911" 
d="M637 601h-537v234h710l1 -529h-174v295z" />
    <glyph glyph-name="registered" unicode="&#xae;" horiz-adv-x="1618" 
d="M807 1386q181 0 350 -91t265 -262t96 -354q0 -186 -94 -354.5t-262.5 -262t-354.5 -93.5q-183 0 -351.5 93.5t-262 262t-93.5 354.5q0 183 95 354t265 262t347 91zM807 1327q-161 0 -317 -84.5t-242.5 -240t-86.5 -323.5q0 -169 86 -323t240 -239.5t320 -85.5
q169 0 323.5 85.5t239.5 239.5t85 323q0 168 -86.5 323.5t-241.5 240t-320 84.5zM416 1114h386q145 0 220.5 -65.5t75.5 -158.5q0 -75 -51 -133t-170 -89l209 -297q38 -55 68 -73q19 -12 53 -16v-34h-184l-294 405h-76v-308q6 -34 28.5 -48.5t90.5 -14.5v-34h-368v34
q48 0 68.5 11t28.5 34q7 17 7 93v522q0 75 -3 89q-7 22 -26 34.5t-63 12.5v36zM653 697q119 0 173 23t83 65t29 94q0 80 -57 135.5t-143 55.5q-40 0 -85 -15v-358z" />
    <glyph glyph-name="macron" unicode="&#xaf;" horiz-adv-x="721" 
d="M100 1694h521v-234h-521v234z" />
    <glyph glyph-name="degree" unicode="&#xb0;" horiz-adv-x="693" 
d="M593 1436v-718h-493v718h493zM464 1313h-226v-472h226v472z" />
    <glyph glyph-name="plusminus" unicode="&#xb1;" horiz-adv-x="910" 
d="M583 601v-254h-234v254h-249v234h249v222h234v-222h227v-234h-227zM100 234h710v-234h-710v234z" />
    <glyph glyph-name="uni00B2" unicode="&#xb2;" horiz-adv-x="693" 
d="M593 841v-123h-493v418h364v177h-364v123h493v-417h-355v-178h355z" />
    <glyph glyph-name="uni00B3" unicode="&#xb3;" horiz-adv-x="693" 
d="M100 1313v123h493v-718h-493v123h364v178h-364v117h364v177h-364z" />
    <glyph glyph-name="acute" unicode="&#xb4;" horiz-adv-x="453" 
d="M202 1683l-102 -211h150l103 211h-151z" />
    <glyph glyph-name="mu" unicode="&#xb5;" horiz-adv-x="1188" 
d="M353 -331h-253l2 1305h259v-728h451v728h276v-974h-735v-331z" />
    <glyph glyph-name="paragraph" unicode="&#xb6;" horiz-adv-x="1108" 
d="M942 1329v-1491h-109v619h-78v-619h-126v613q-330 0 -429.5 162t-90.5 333.5t87.5 297.5t153.5 165t658 21v-101h-66z" />
    <glyph glyph-name="periodcentered" unicode="&#xb7;" horiz-adv-x="476" 
d="M376 931v-258h-276v258h276z" />
    <glyph glyph-name="periodcentered" unicode="&#x2219;" horiz-adv-x="476" 
d="M376 931v-258h-276v258h276z" />
    <glyph glyph-name="cedilla" unicode="&#xb8;" horiz-adv-x="417" 
d="M100 -222v-90q79 0 133 15t69 84t-81 141l72 72h-90l-73 -78v-66q73 0 73 -24t-12 -48t-91 -6z" />
    <glyph glyph-name="uni00B9" unicode="&#xb9;" horiz-adv-x="338" 
d="M238 718h-138v718h138v-718z" />
    <glyph glyph-name="ordmasculine" unicode="&#xba;" horiz-adv-x="693" 
d="M593 1436v-718h-493v718h493zM464 1313h-226v-472h226v472z" />
    <glyph glyph-name="guillemotright" unicode="&#xbb;" horiz-adv-x="792" 
d="M443 413l249 218v300l-247 223v-265l115 -120l-117 -133v-223zM100 413l249 218v300l-247 223v-265l115 -120l-117 -133v-223z" />
    <glyph glyph-name="onequarter" unicode="&#xbc;" horiz-adv-x="1468" 
d="M376 0h-276l938 1436h276zM431 718h-138v718h138v-718zM875 298v417h138v-300h226v300h129v-718h-129v301h-364z" />
    <glyph glyph-name="onehalf" unicode="&#xbd;" horiz-adv-x="1540" 
d="M376 0h-276l938 1436h276zM431 718h-138v718h138v-718zM1440 126v-123h-493v418h364v177h-364v123h493v-417h-355v-178h355z" />
    <glyph glyph-name="threequarters" unicode="&#xbe;" horiz-adv-x="1528" 
d="M436 0h-276l938 1436h276zM935 298v417h138v-300h226v300h129v-718h-129v301h-364zM100 1313v123h493v-718h-493v123h364v178h-364v117h364v177h-364z" />
    <glyph glyph-name="questiondown" unicode="&#xbf;" 
d="M1086 1063v-462h-727v-355h727v-246h-986v835h710v228h276zM810 1178v258h276v-258h-276z" />
    <glyph glyph-name="Agrave" unicode="&#xc0;" 
d="M827 601h-451v-601h-276v1436h986v-1436h-259v601zM376 1190v-355h451v355h-451zM449 1683l103 -211h150l-102 211h-151z" />
    <glyph glyph-name="Aacute" unicode="&#xc1;" 
d="M827 601h-451v-601h-276v1436h986v-1436h-259v601zM376 1190v-355h451v355h-451zM605 1683l-102 -211h150l103 211h-151z" />
    <glyph glyph-name="Acircumflex" unicode="&#xc2;" 
d="M827 601h-451v-601h-276v1436h986v-1436h-259v601zM376 1190v-355h451v355h-451zM647 1473h150l-102 211h-151v-1h-66l-102 -211h150l61 124z" />
    <glyph glyph-name="Atilde" unicode="&#xc3;" 
d="M827 601h-451v-601h-276v1436h986v-1436h-259v601zM376 1190v-355h451v355h-451zM316 1589l66 -127q84 98 211.5 17t277.5 98l-78 99q-110 -104 -207.5 -31t-269.5 -56z" />
    <glyph glyph-name="Adieresis" unicode="&#xc4;" 
d="M827 601h-451v-601h-276v1436h986v-1436h-259v601zM376 1190v-355h451v355h-451zM538 1706v-258h-276v258h276zM947 1707v-258h-276v258h276z" />
    <glyph glyph-name="Aring" unicode="&#xc5;" 
d="M827 601h-451v-601h-276v1436h986v-1436h-259v601zM376 1190v-355h451v355h-451zM653 1658.5q36 -36.5 36 -87.5t-36 -87t-87 -36t-87 36t-36 87t36 87.5t87 36.5t87 -36.5zM566 1629q-23 0 -40 -17t-17 -41q0 -23 17 -40t40 -17q24 0 40.5 17t16.5 40q0 24 -16.5 41
t-40.5 17z" />
    <glyph glyph-name="AE" unicode="&#xc6;" horiz-adv-x="1907" 
d="M821 601h-445v-601h-276v1436h1707v-246h-710v-355h710v-234h-710v-355h710v-246h-986v601zM821 835v355h-445v-355h445z" />
    <glyph glyph-name="Ccedilla" unicode="&#xc7;" 
d="M376 246h710v-246h-986v1436h986v-246h-710v-944zM479 -222v-90q79 0 133 15t69 84t-81 141l72 72h-90l-73 -78v-66q73 0 73 -24t-12 -48t-91 -6z" />
    <glyph glyph-name="Egrave" unicode="&#xc8;" 
d="M376 1190v-355h710v-234h-710v-355h710v-246h-986v1436h986v-246h-710zM467 1683l103 -211h150l-102 211h-151z" />
    <glyph glyph-name="Eacute" unicode="&#xc9;" 
d="M376 1190v-355h710v-234h-710v-355h710v-246h-986v1436h986v-246h-710zM605 1683l-102 -211h150l103 211h-151z" />
    <glyph glyph-name="Ecircumflex" unicode="&#xca;" 
d="M376 1190v-355h710v-234h-710v-355h710v-246h-986v1436h986v-246h-710zM659 1473h150l-102 211h-151v-1h-66l-102 -211h150l61 124z" />
    <glyph glyph-name="Edieresis" unicode="&#xcb;" 
d="M376 1190v-355h710v-234h-710v-355h710v-246h-986v1436h986v-246h-710zM532 1706v-258h-276v258h276zM941 1707v-258h-276v258h276z" />
    <glyph glyph-name="Igrave" unicode="&#xcc;" horiz-adv-x="476" 
d="M376 0h-276v1436h276v-1436zM100 1683l103 -211h150l-102 211h-151z" />
    <glyph glyph-name="Iacute" unicode="&#xcd;" horiz-adv-x="483" 
d="M376 0h-276v1436h276v-1436zM232 1683l-102 -211h150l103 211h-151z" />
    <glyph glyph-name="Icircumflex" unicode="&#xce;" horiz-adv-x="621" 
d="M442 0h-276v1436h276v-1436zM371 1473h150l-102 211h-151v-1h-66l-102 -211h150l61 124z" />
    <glyph glyph-name="Idieresis" unicode="&#xcf;" horiz-adv-x="885" 
d="M574 0h-276v1436h276v-1436zM376 1706v-258h-276v258h276zM785 1707v-258h-276v258h276z" />
    <glyph glyph-name="Eth" unicode="&#xd0;" horiz-adv-x="1318" 
d="M508 601v-355h451v944h-451v-355h131v-234h-131zM232 835v601h882l104 -126v-1184l-103 -126h-883v601h-132v234h132z" />
    <glyph glyph-name="Ntilde" unicode="&#xd1;" 
d="M376 0h-276v1436h276l451 -805v805h259v-1436h-259l-451 829v-829zM334 1589l66 -127q84 98 211.5 17t277.5 98l-78 99q-110 -104 -207.5 -31t-269.5 -56z" />
    <glyph glyph-name="Ograve" unicode="&#xd2;" 
d="M1086 1436v-1436h-986v1436h986zM827 1190h-451v-944h451v944zM419 1683l103 -211h150l-102 211h-151z" />
    <glyph glyph-name="Oacute" unicode="&#xd3;" 
d="M1086 1436v-1436h-986v1436h986zM827 1190h-451v-944h451v944zM593 1683l-102 -211h150l103 211h-151z" />
    <glyph glyph-name="Ocircumflex" unicode="&#xd4;" 
d="M1086 1436v-1436h-986v1436h986zM827 1190h-451v-944h451v944zM653 1473h150l-102 211h-151v-1h-66l-102 -211h150l61 124z" />
    <glyph glyph-name="Otilde" unicode="&#xd5;" 
d="M1086 1436v-1436h-986v1436h986zM827 1190h-451v-944h451v944zM304 1589l66 -127q84 98 211.5 17t277.5 98l-78 99q-110 -104 -207.5 -31t-269.5 -56z" />
    <glyph glyph-name="Odieresis" unicode="&#xd6;" 
d="M1086 1436v-1436h-986v1436h986zM827 1190h-451v-944h451v944zM520 1706v-258h-276v258h276zM929 1707v-258h-276v258h276z" />
    <glyph glyph-name="multiply" unicode="&#xd7;" horiz-adv-x="887" 
d="M607 838l180 -180l-166 -166l-179 180l-177 -176l-165 165l176 177l-157 157l166 165l157 -157l160 161l165 -166z" />
    <glyph glyph-name="Oslash" unicode="&#xd8;" horiz-adv-x="1324" 
d="M582 246h317v673zM448 548l302 642h-302v-642zM1142 1436h16v-1436h-692l-90 -192h-276l90 192h-18v1436h694l82 174h276z" />
    <glyph glyph-name="Ugrave" unicode="&#xd9;" 
d="M449 1683l103 -211h150l-102 211h-151zM827 1436h259v-1436h-986v1436h276v-1190h451v1190z" />
    <glyph glyph-name="Uacute" unicode="&#xda;" 
d="M827 1436h259v-1436h-986v1436h276v-1190h451v1190zM599 1683l-102 -211h150l103 211h-151z" />
    <glyph glyph-name="Ucircumflex" unicode="&#xdb;" 
d="M827 1436h259v-1436h-986v1436h276v-1190h451v1190zM653 1473h150l-102 211h-151v-1h-66l-102 -211h150l61 124z" />
    <glyph glyph-name="Udieresis" unicode="&#xdc;" 
d="M827 1436h259v-1436h-986v1436h276v-1190h451v1190zM514 1706v-258h-276v258h276zM923 1707v-258h-276v258h276z" />
    <glyph glyph-name="Yacute" unicode="&#xdd;" 
d="M724 718v-718h-276v718l-348 718h276l223 -456l228 456h259zM587 1683l-102 -211h150l103 211h-151z" />
    <glyph glyph-name="Thorn" unicode="&#xde;" 
d="M376 1154h710v-835h-710v-73h3v-246h-279v1436h276v-282zM376 553h451v355h-451v-355z" />
    <glyph glyph-name="germandbls" unicode="&#xdf;" horiz-adv-x="2372" 
d="M1286 601v835h986v-246h-710v-355h710v-835h-986v246h727v355h-727zM100 601v835h986v-246h-710v-355h710v-835h-986v246h727v355h-727z" />
    <glyph glyph-name="agrave" unicode="&#xe0;" 
d="M827 601h-451v-601h-276v1436h986v-1436h-259v601zM376 1190v-355h451v355h-451zM449 1683l103 -211h150l-102 211h-151z" />
    <glyph glyph-name="aacute" unicode="&#xe1;" 
d="M827 601h-451v-601h-276v1436h986v-1436h-259v601zM376 1190v-355h451v355h-451zM605 1683l-102 -211h150l103 211h-151z" />
    <glyph glyph-name="acircumflex" unicode="&#xe2;" 
d="M827 601h-451v-601h-276v1436h986v-1436h-259v601zM376 1190v-355h451v355h-451zM647 1473h150l-102 211h-151v-1h-66l-102 -211h150l61 124z" />
    <glyph glyph-name="atilde" unicode="&#xe3;" 
d="M827 601h-451v-601h-276v1436h986v-1436h-259v601zM376 1190v-355h451v355h-451zM316 1589l66 -127q84 98 211.5 17t277.5 98l-78 99q-110 -104 -207.5 -31t-269.5 -56z" />
    <glyph glyph-name="adieresis" unicode="&#xe4;" 
d="M827 601h-451v-601h-276v1436h986v-1436h-259v601zM376 1190v-355h451v355h-451zM538 1706v-258h-276v258h276zM947 1707v-258h-276v258h276z" />
    <glyph glyph-name="aring" unicode="&#xe5;" 
d="M827 601h-451v-601h-276v1436h986v-1436h-259v601zM376 1190v-355h451v355h-451zM653 1658.5q36 -36.5 36 -87.5t-36 -87t-87 -36t-87 36t-36 87t36 87.5t87 36.5t87 -36.5zM566 1629q-23 0 -40 -17t-17 -41q0 -23 17 -40t40 -17q24 0 40.5 17t16.5 40q0 24 -16.5 41
t-40.5 17z" />
    <glyph glyph-name="ae" unicode="&#xe6;" horiz-adv-x="1907" 
d="M821 601h-445v-601h-276v1436h1707v-246h-710v-355h710v-234h-710v-355h710v-246h-986v601zM821 835v355h-445v-355h445z" />
    <glyph glyph-name="ccedilla" unicode="&#xe7;" 
d="M376 246h710v-246h-986v1436h986v-246h-710v-944zM479 -222v-90q79 0 133 15t69 84t-81 141l72 72h-90l-73 -78v-66q73 0 73 -24t-12 -48t-91 -6z" />
    <glyph glyph-name="egrave" unicode="&#xe8;" 
d="M376 1190v-355h710v-234h-710v-355h710v-246h-986v1436h986v-246h-710zM467 1683l103 -211h150l-102 211h-151z" />
    <glyph glyph-name="eacute" unicode="&#xe9;" 
d="M376 1190v-355h710v-234h-710v-355h710v-246h-986v1436h986v-246h-710zM605 1683l-102 -211h150l103 211h-151z" />
    <glyph glyph-name="ecircumflex" unicode="&#xea;" 
d="M376 1190v-355h710v-234h-710v-355h710v-246h-986v1436h986v-246h-710zM659 1473h150l-102 211h-151v-1h-66l-102 -211h150l61 124z" />
    <glyph glyph-name="edieresis" unicode="&#xeb;" 
d="M376 1190v-355h710v-234h-710v-355h710v-246h-986v1436h986v-246h-710zM532 1706v-258h-276v258h276zM941 1707v-258h-276v258h276z" />
    <glyph glyph-name="igrave" unicode="&#xec;" horiz-adv-x="476" 
d="M376 0h-276v1436h276v-1436zM100 1683l103 -211h150l-102 211h-151z" />
    <glyph glyph-name="iacute" unicode="&#xed;" horiz-adv-x="483" 
d="M376 0h-276v1436h276v-1436zM232 1683l-102 -211h150l103 211h-151z" />
    <glyph glyph-name="icircumflex" unicode="&#xee;" horiz-adv-x="621" 
d="M442 0h-276v1436h276v-1436zM371 1473h150l-102 211h-151v-1h-66l-102 -211h150l61 124z" />
    <glyph glyph-name="idieresis" unicode="&#xef;" horiz-adv-x="885" 
d="M574 0h-276v1436h276v-1436zM376 1706v-258h-276v258h276zM785 1707v-258h-276v258h276z" />
    <glyph glyph-name="eth" unicode="&#xf0;" horiz-adv-x="1318" 
d="M508 601v-355h451v944h-451v-355h131v-234h-131zM232 835v601h882l104 -126v-1184l-103 -126h-883v601h-132v234h132z" />
    <glyph glyph-name="ntilde" unicode="&#xf1;" 
d="M376 0h-276v1436h276l451 -805v805h259v-1436h-259l-451 829v-829zM334 1589l66 -127q84 98 211.5 17t277.5 98l-78 99q-110 -104 -207.5 -31t-269.5 -56z" />
    <glyph glyph-name="ograve" unicode="&#xf2;" 
d="M1086 1436v-1436h-986v1436h986zM827 1190h-451v-944h451v944zM419 1683l103 -211h150l-102 211h-151z" />
    <glyph glyph-name="oacute" unicode="&#xf3;" 
d="M1086 1436v-1436h-986v1436h986zM827 1190h-451v-944h451v944zM593 1683l-102 -211h150l103 211h-151z" />
    <glyph glyph-name="ocircumflex" unicode="&#xf4;" 
d="M1086 1436v-1436h-986v1436h986zM827 1190h-451v-944h451v944zM653 1473h150l-102 211h-151v-1h-66l-102 -211h150l61 124z" />
    <glyph glyph-name="otilde" unicode="&#xf5;" 
d="M1086 1436v-1436h-986v1436h986zM827 1190h-451v-944h451v944zM304 1589l66 -127q84 98 211.5 17t277.5 98l-78 99q-110 -104 -207.5 -31t-269.5 -56z" />
    <glyph glyph-name="odieresis" unicode="&#xf6;" 
d="M1086 1436v-1436h-986v1436h986zM827 1190h-451v-944h451v944zM520 1706v-258h-276v258h276zM929 1707v-258h-276v258h276z" />
    <glyph glyph-name="divide" unicode="&#xf7;" horiz-adv-x="910" 
d="M100 835h710v-234h-710v234zM599 1178v-258h-276v258h276zM599 505v-258h-276v258h276z" />
    <glyph glyph-name="oslash" unicode="&#xf8;" horiz-adv-x="1324" 
d="M582 246h317v673zM448 548l302 642h-302v-642zM1142 1436h16v-1436h-692l-90 -192h-276l90 192h-18v1436h694l82 174h276z" />
    <glyph glyph-name="ugrave" unicode="&#xf9;" 
d="M449 1683l103 -211h150l-102 211h-151zM827 1436h259v-1436h-986v1436h276v-1190h451v1190z" />
    <glyph glyph-name="uacute" unicode="&#xfa;" 
d="M827 1436h259v-1436h-986v1436h276v-1190h451v1190zM599 1683l-102 -211h150l103 211h-151z" />
    <glyph glyph-name="ucircumflex" unicode="&#xfb;" 
d="M827 1436h259v-1436h-986v1436h276v-1190h451v1190zM653 1473h150l-102 211h-151v-1h-66l-102 -211h150l61 124z" />
    <glyph glyph-name="udieresis" unicode="&#xfc;" 
d="M827 1436h259v-1436h-986v1436h276v-1190h451v1190zM514 1706v-258h-276v258h276zM923 1707v-258h-276v258h276z" />
    <glyph glyph-name="yacute" unicode="&#xfd;" 
d="M724 718v-718h-276v718l-348 718h276l223 -456l228 456h259zM587 1683l-102 -211h150l103 211h-151z" />
    <glyph glyph-name="thorn" unicode="&#xfe;" 
d="M376 1154h710v-835h-710v-73h3v-246h-279v1436h276v-282zM376 553h451v355h-451v-355z" />
    <glyph glyph-name="ydieresis" unicode="&#xff;" 
d="M724 718v-718h-276v718l-348 718h276l223 -456l228 456h259zM520 1706v-258h-276v258h276zM929 1707v-258h-276v258h276z" />
    <glyph glyph-name="dotlessi" unicode="&#x131;" horiz-adv-x="476" 
d="M376 0h-276v1436h276v-1436z" />
    <glyph glyph-name="circumflex" unicode="&#x2c6;" horiz-adv-x="621" 
d="M371 1473h150l-102 211h-151v-1h-66l-102 -211h150l61 124z" />
    <glyph glyph-name="caron" unicode="&#x2c7;" horiz-adv-x="621" 
d="M250 1683h-150l102 -211h151v1h66l102 211h-150l-61 -124z" />
    <glyph glyph-name="uni02C9" unicode="&#x2c9;" horiz-adv-x="721" 
d="M100 1694h521v-234h-521v234z" />
    <glyph glyph-name="breve" unicode="&#x2d8;" horiz-adv-x="621" 
d="M250 1683h-150q102 -211 210.5 -210.5t210.5 211.5h-150q-55 -166 -121 -1z" />
    <glyph glyph-name="dotaccent" unicode="&#x2d9;" horiz-adv-x="476" 
d="M376 1706v-258h-276v258h276z" />
    <glyph glyph-name="ring" unicode="&#x2da;" horiz-adv-x="446" 
d="M310 1658.5q36 -36.5 36 -87.5t-36 -87t-87 -36t-87 36t-36 87t36 87.5t87 36.5t87 -36.5zM223 1629q-23 0 -40 -17t-17 -41q0 -23 17 -40t40 -17q24 0 40.5 17t16.5 40q0 24 -16.5 41t-40.5 17z" />
    <glyph glyph-name="ogonek" unicode="&#x2db;" horiz-adv-x="500" 
d="M100 0h144q6 -48 27 -102t129 -48v-120q-96 0 -177 54t-123 216z" />
    <glyph glyph-name="tilde" unicode="&#x2dc;" horiz-adv-x="755" 
d="M100 1589l66 -127q84 98 211.5 17t277.5 98l-78 99q-110 -104 -207.5 -31t-269.5 -56z" />
    <glyph glyph-name="hungarumlaut" unicode="&#x2dd;" horiz-adv-x="718" 
d="M202 1683l-102 -211h150l103 211h-151zM467 1683l-102 -211h150l103 211h-151z" />
    <glyph glyph-name="endash" unicode="&#x2013;" horiz-adv-x="1178" 
d="M100 835h978v-234h-978v234z" />
    <glyph glyph-name="emdash" unicode="&#x2014;" horiz-adv-x="1688" 
d="M100 835h1488v-234h-1488v234z" />
    <glyph glyph-name="quoteleft" unicode="&#x2018;" horiz-adv-x="476" 
d="M368 938h-156l-112 240v258h276v-258h-123z" />
    <glyph glyph-name="quoteright" unicode="&#x2019;" horiz-adv-x="476" 
d="M223 1178h-123v258h276v-258l-112 -240h-156z" />
    <glyph glyph-name="quotesinglbase" unicode="&#x201a;" horiz-adv-x="476" 
d="M223 0h-123v258h276v-258l-112 -240h-156z" />
    <glyph glyph-name="quotedblleft" unicode="&#x201c;" horiz-adv-x="849" 
d="M368 938h-156l-112 240v258h276v-258h-123zM741 938h-156l-112 240v258h276v-258h-123z" />
    <glyph glyph-name="quotedblright" unicode="&#x201d;" horiz-adv-x="849" 
d="M223 1178h-123v258h276v-258l-112 -240h-156zM596 1178h-123v258h276v-258l-112 -240h-156z" />
    <glyph glyph-name="quotedblbase" unicode="&#x201e;" horiz-adv-x="849" 
d="M596 0h-123v258h276v-258l-112 -240h-156zM223 0h-123v258h276v-258l-112 -240h-156z" />
    <glyph glyph-name="dagger" unicode="&#x2020;" horiz-adv-x="1059" 
d="M472 1028h-372v145h372v486h144v-486h343v-145h-343v-1184h-144v1184z" />
    <glyph glyph-name="daggerdbl" unicode="&#x2021;" horiz-adv-x="1059" 
d="M472 1028h-372v145h372v486h144v-486h343v-145h-343v-516h343v-145h-343v-523h-144v523h-372v145h372v516z" />
    <glyph glyph-name="bullet" unicode="&#x2022;" horiz-adv-x="687" 
d="M515.5 902q71.5 -71 71.5 -172t-71.5 -172t-172.5 -71q-100 0 -171.5 71t-71.5 172t71.5 172t171.5 71q101 0 172.5 -71z" />
    <glyph glyph-name="ellipsis" unicode="&#x2026;" horiz-adv-x="1353" 
d="M376 258v-258h-276v258h276zM821 258v-258h-276v258h276zM1253 259v-258h-276v258h276z" />
    <glyph glyph-name="guilsinglleft" unicode="&#x2039;" horiz-adv-x="449" 
d="M349 636l-117 133l115 120v265l-247 -223v-300l249 -218v223z" />
    <glyph glyph-name="guilsinglright" unicode="&#x203a;" horiz-adv-x="449" 
d="M100 413l249 218v300l-247 223v-265l115 -120l-117 -133v-223z" />
    <glyph glyph-name="fraction" unicode="&#x2044;" horiz-adv-x="1414" 
d="M376 0h-276l938 1436h276z" />
    <glyph glyph-name="fraction" unicode="&#x2215;" horiz-adv-x="1414" 
d="M376 0h-276l938 1436h276z" />
    <glyph glyph-name="franc" unicode="&#x20a3;" horiz-adv-x="2372" 
d="M1562 1190v-355h451v355h-451zM1286 0v1436h986v-835h-337l337 -601h-259l-354 601h-97v-601h-276zM376 0h-276v1436h986v-246h-710v-355h710v-234h-710v-601z" />
    <glyph glyph-name="lira" unicode="&#x20a4;" 
d="M533 439v-193h553v-246h-986v246h157v193h-154v222h154v72h-154v234h154v469h829v-444h-259v198h-294v-223h177v-234h-177v-72h177v-222h-177z" />
    <glyph glyph-name="peseta" unicode="&#x20a7;" horiz-adv-x="3558" 
d="M376 0h-276v1436h986v-835h-710v-601zM376 1190v-355h451v355h-451zM1659 1190h-373v246h986v-246h-337v-1190h-276v1190zM2472 601v835h986v-246h-710v-355h710v-835h-986v246h727v355h-727z" />
    <glyph glyph-name="Euro" unicode="&#x20ac;" horiz-adv-x="1339" 
d="M253 967v469h986v-246h-710v-223h178v-234h-178v-72h178v-222h-178v-193h710v-246h-986v439h-153v222h153v72h-153v234h153z" />
    <glyph glyph-name="afii61352" unicode="&#x2116;" horiz-adv-x="2848" 
d="M376 0h-276v1436h276l451 -805v805h259v-1436h-259l-451 829v-829zM2272 1436v-1436h-986v1436h986zM2013 1190h-451v-944h451v944zM2748 258v-258h-276v258h276z" />
    <glyph glyph-name="trademark" unicode="&#x2122;" horiz-adv-x="1315" 
d="M287 1313h-187v123h493v-123h-168v-595h-138v595zM800 718h-138v718h138l140 -393l146 393h129v-718h-129v301l-101 -301h-81l-104 301v-301z" />
    <glyph glyph-name="partialdiff" unicode="&#x2202;" 
d="M100 1190v246h986v-1436h-986v835h727v355h-727zM376 601v-355h451v355h-451z" />
    <glyph glyph-name="Delta" unicode="&#x2206;" 
d="M771 263l-179 842l-165 -842h344zM100 0l337 1436h336l313 -1436h-986z" />
    <glyph glyph-name="product" unicode="&#x220f;" horiz-adv-x="1059" 
d="M244 1514v-1670h-144v1815h859v-1815h-144v1670h-571z" />
    <glyph glyph-name="summation" unicode="&#x2211;" horiz-adv-x="1059" 
d="M100 1659h859v-145h-715l361 -759l-361 -760h715v-151h-859v157l367 747l-367 761v150z" />
    <glyph glyph-name="minus" unicode="&#x2212;" horiz-adv-x="910" 
d="M100 835h710v-234h-710v234z" />
    <glyph glyph-name="radical" unicode="&#x221a;" horiz-adv-x="1135" 
d="M307 679l-207 -2l262 -935h222l451 1652h-211l-360 -1268z" />
    <glyph glyph-name="infinity" unicode="&#x221e;" horiz-adv-x="1534" 
d="M467 1028q-88 0 -149.5 -62t-61.5 -149t61.5 -148.5t149.5 -61.5q87 0 148.5 61.5t61.5 148.5t-61.5 149t-148.5 62zM1062 1027q-87 0 -149 -61.5t-62 -148.5t62 -148.5t149 -61.5t148.5 61.5t61.5 148.5t-61.5 148.5t-148.5 61.5zM767 594q-16 -21 -36 -41
q-108 -108 -261 -108q-154 0 -262 108t-108 261t108 261.5t262 108.5q153 0 261 -108q20 -21 36 -42q17 21 37 41q108 108 261 108t261 -108t108 -261t-108 -261.5t-261 -108.5t-261 109q-21 20 -37 41z" />
    <glyph glyph-name="integral" unicode="&#x222b;" horiz-adv-x="681" 
d="M100 -30v-156q60 -6 132.5 15t123.5 66t51 180t-6 625t9 562t60 75t111 3v168q-90 -6 -156 -12t-87 -57t-42 -87t-21 -1154q0 -132 -33.5 -183t-141.5 -45z" />
    <glyph glyph-name="approxequal" unicode="&#x2248;" horiz-adv-x="885" 
d="M100 930l82 -150q103 116 260.5 20.5t342.5 116.5l-96 116q-137 -123 -257 -37t-332 -66zM100 606l82 -150q103 116 260.5 20.5t342.5 116.5l-96 116q-137 -123 -257 -37t-332 -66z" />
    <glyph glyph-name="lessequal" unicode="&#x2264;" horiz-adv-x="910" 
d="M100 234h710v-234h-710v234zM100 1015l710 270v-234l-523 -231l523 -297v-234l-710 348v378z" />
    <glyph glyph-name="greaterequal" unicode="&#x2265;" horiz-adv-x="910" 
d="M100 234h710v-234h-710v234zM810 637l-710 -348v234l523 297l-523 231v234l710 -270v-378z" />
    <glyph glyph-name="uniF001" unicode="&#xf001;" horiz-adv-x="1662" 
d="M376 0h-276v1436h986v-246h-710v-355h710v-234h-710v-601zM1562 0h-276v1436h276v-1436z" />
    <glyph glyph-name="uniF001" unicode="&#xfb01;" horiz-adv-x="1662" 
d="M376 0h-276v1436h986v-246h-710v-355h710v-234h-710v-601zM1562 0h-276v1436h276v-1436z" />
    <glyph glyph-name="uniF002" unicode="&#xf002;" horiz-adv-x="2372" 
d="M1562 246h710v-246h-986v1436h276v-1190zM376 0h-276v1436h986v-246h-710v-355h710v-234h-710v-601z" />
    <glyph glyph-name="uniF002" unicode="&#xfb02;" horiz-adv-x="2372" 
d="M1562 246h710v-246h-986v1436h276v-1190zM376 0h-276v1436h986v-246h-710v-355h710v-234h-710v-601z" />
    </font>
</defs>
</svg>
