<?xml version="1.0" encoding="UTF-8"?>
<svg xmlns="http://www.w3.org/2000/svg" viewBox="0 0 304 376">
  <defs>
    <style>
      .cls-1, .cls-2 {
        fill: #ced8d6;
      }

      .cls-3 {
        fill: #f4f4f4;
      }

      .cls-4 {
        fill: #fff;
      }

      .cls-5 {
        fill: #eaf4f2;
      }

      .cls-6 {
        fill: #6d8a96;
      }

      .cls-7 {
        fill: #576e78;
      }

      .cls-8 {
        fill: #21292d;
      }

      .cls-9 {
        fill: #0b0e0f;
      }

      .cls-10 {
        fill: #2c373c;
      }

      .cls-2 {
        mix-blend-mode: multiply;
        opacity: .3;
      }

      .cls-11 {
        fill: #051419;
      }

      .cls-12 {
        fill: #fdd449;
      }

      .cls-13 {
        fill: #c4764b;
      }

      .cls-14 {
        fill: none;
        isolation: isolate;
      }

      .cls-15 {
        fill: #4c6169;
      }

      .cls-16 {
        fill: #f6b68e;
      }
    </style>
  </defs>
  <g class="cls-14">
    <g id="objects">
      <path class="cls-5" d="m433.42,385.54H-105.99s66.11-53.42,35.65-100.74c-30.46-47.32-92.7-119.44-29.91-206.25C-37.45-8.26,58.77-41.84,211.37-32.68s194.41,86.23,197.24,145.95c3.99,84.3-85.77,86.95-30.18,143.87,69.5,71.16,55,128.4,55,128.4Z"/>
      <path class="cls-12" d="m53.77,79.63c0,6.24-1.56,11.78-3.87,16.53-4.12,8.44-10.63,14.37-15.02,17.25-6.85,4.5-4.38,13.71-4.38,13.71H11.38s2.48-9.22-4.38-13.71c-4.23-2.78-10.43-8.4-14.56-16.36-2.56-4.94-4.33-10.79-4.33-17.42,0-17.31,12.03-31.43,32.83-31.43s32.83,14.12,32.83,31.43Z"/>
      <rect class="cls-10" x="5.38" y="127.13" width="31.12" height="8.83" rx="1.74" ry="1.74"/>
      <path class="cls-10" d="m24.18,161.59h-6.49c-2.84,0-5.14-2.3-5.14-5.14h16.78c0,2.84-2.3,5.14-5.14,5.14Z"/>
      <path class="cls-4" d="m27.29,97.73c-2.63,0-4.78,2.14-4.78,4.78v4.1h-3.15v-4.1c0-2.63-2.14-4.78-4.78-4.78s-4.78,2.14-4.78,4.78v1.91c0,2.63,2.14,4.78,4.78,4.78h2.19v17.93h2.59v-17.93h3.15v17.93h2.59v-17.93h2.19c2.64,0,4.78-2.14,4.78-4.78v-1.91c0-2.63-2.14-4.78-4.78-4.78Zm-10.51,8.88h-2.19c-1.21,0-2.19-.98-2.19-2.19v-1.91c0-1.21.98-2.19,2.19-2.19s2.19.98,2.19,2.19v4.1Zm12.7-2.19c0,1.21-.98,2.19-2.19,2.19h-2.19v-4.1c0-1.21.98-2.19,2.19-2.19s2.19.98,2.19,2.19v1.91Z"/>
      <circle class="cls-1" cx="240.85" cy="229.1" r="5.46"/>
      <rect class="cls-10" x="261.55" y="216.28" width="28.02" height="35.52"/>
      <circle class="cls-8" cx="275.56" cy="222.02" r="3.2"/>
      <g>
        <rect class="cls-1" x="288.79" y="3.53" width="105.83" height="6.07" rx="2.39" ry="2.39"/>
        <rect class="cls-1" x="288.79" y="24.32" width="105.83" height="6.07" rx="2.39" ry="2.39"/>
        <rect class="cls-1" x="288.79" y="45.12" width="105.83" height="6.07" rx="2.39" ry="2.39"/>
        <rect class="cls-1" x="288.79" y="65.91" width="105.83" height="6.07" rx="2.39" ry="2.39"/>
        <rect class="cls-1" x="288.79" y="86.7" width="105.83" height="6.07" rx="2.39" ry="2.39"/>
        <rect class="cls-1" x="288.79" y="107.5" width="105.83" height="6.07" rx="2.39" ry="2.39"/>
      </g>
      <polygon class="cls-4" points="260.02 118.11 235.04 154.88 271.45 160.07 260.02 118.11"/>
      <polygon class="cls-15" points="232.89 136.35 244.66 120.64 229.07 120.64 232.89 136.35"/>
      <polygon class="cls-1" points="190.96 206.21 213.23 238.15 229.71 200.33 190.96 206.21"/>
      <polygon class="cls-1" points="141.48 -14.79 157.87 -7.53 140.45 4.65 141.48 -14.79"/>
      <circle class="cls-1" cx="210.33" cy="156.19" r="5.46"/>
      <path class="cls-1" d="m55.09,252.14l-.08-1.04c-.24-2.16.48-4.52,2.48-6.91,1.8-2.12,2.8-3.68,2.8-5.47,0-2.04-1.28-3.4-3.8-3.44-1.44,0-3.04.48-4.04,1.24l-.96-2.52c1.32-.96,3.6-1.6,5.71-1.6,4.6,0,6.67,2.84,6.67,5.87,0,2.72-1.52,4.67-3.44,6.95-1.76,2.08-2.4,3.84-2.28,5.87l.04,1.04h-3.12Zm-.88,5.59c0-1.48,1-2.52,2.4-2.52s2.36,1.04,2.36,2.52c0,1.4-.92,2.48-2.4,2.48-1.4,0-2.36-1.08-2.36-2.48Z"/>
      <rect class="cls-2" x="143.19" y="-24.32" width="264.74" height="171.79"/>
      <path class="cls-9" d="m33.54,135.96v16.23c0,2.35-1.9,4.26-4.26,4.26H12.59c-2.35,0-4.26-1.91-4.26-4.26v-16.23h25.21Z"/>
      <path class="cls-3" d="m269.56,59.04c0,29.38-23.82,53.21-53.19,53.21s-53.21-23.82-53.21-53.21S186.99,5.83,216.37,5.83s53.19,23.82,53.19,53.21Z"/>
      <path class="cls-8" d="m262.22,59.04c0,25.33-20.53,45.86-45.85,45.86s-45.86-20.53-45.86-45.86,20.53-45.86,45.86-45.86,45.85,20.53,45.85,45.86Z"/>
      <path class="cls-6" d="m262.22,59.04h-45.85V13.18c25.31,0,45.85,20.53,45.85,45.86Z"/>
      <g>
        <polygon class="cls-4" points="239.29 305.71 163.82 305.71 163.82 237.67 166.49 237.67 166.49 303.04 239.29 303.04 239.29 305.71"/>
        <polygon class="cls-4" points="232.51 258.25 231.69 252.24 225.68 253.06 223.48 255.96 227.72 255.38 212.72 275.11 197.59 261.43 176.48 291.86 178.56 293.3 198.02 265.23 213.07 278.84 229.73 256.91 230.31 261.15 232.51 258.25"/>
      </g>
      <path class="cls-2" d="m11.72,268.67c-14.28,9.19,7.42,49.8,23.12,46.87,15.71-2.93-9-55.95-23.12-46.87Z"/>
      <path class="cls-2" d="m6.42,262.8c-7.47,3.49-16.33-11.39-6.84-15.73,9.49-4.34,16.77,11.1,6.84,15.73Z"/>
      <path class="cls-16" d="m186.99,397.06h-45.95c-1.89-6.17,0-14.83,0-14.83l-.74-8.14-.83-9.07,17.56-2.1,1.38,5.77,2.15,9.08c2.33,2.12,17.62,5.42,21.46,9.27,3.85,3.85,4.98,10.01,4.98,10.01Z"/>
      <path class="cls-13" d="m158.4,368.7c-5.3,3.83-13.72,5.03-18.1,5.39l-.83-9.07,17.56-2.1,1.38,5.77Z"/>
      <path class="cls-16" d="m119.6,397.06h-45.95c-1.89-6.17,0-14.83,0-14.83l.69-6.16.72-6.47,18.55-2.97-.26,6.49-.19,4.65c2.33,2.12,17.62,5.42,21.46,9.27,3.85,3.85,4.98,10.01,4.98,10.01Z"/>
      <path class="cls-13" d="m75.06,369.6l18.55-2.97-.26,6.49c-7.35,2.41-14.84,2.9-19.01,2.94l.72-6.47Z"/>
      <path class="cls-10" d="m77.21,225.41l-2,70.86-3.32,73.65s13.01,3.99,23.92-1.05l9.65-71.34,7.97-44.7,10.7,44.28,12.59,70.09s13.22,2.52,22.66-3.36l-7.76-74.49-7.97-67.99-66.45,4.06Z"/>
      <path class="cls-11" d="m124.18,72s4.75-2.87,4.25-8.12c-.5-5.25-6.62-5.75-8.74-8.37-2.12-2.62-5.11-7.74-13.11-7.74s-13.37,5.25-12.87,9.74c0,0-6.87-1.37-9.74,3.75-2.87,5.12-.25,10.12-1.37,12.49s-1.12,8.49,2.12,11.99c3.25,3.5,1.12,6.37,4.75,10.74s8.77,3.5,8.77,3.5l25.95-27.98Z"/>
      <path class="cls-16" d="m210.14,103.46c-.34,1.42-4.6,3.96-8.25,5.92-2.84,1.51-5.32,2.67-5.32,2.67l-7.83-6,1.74-2.91.67-1.13s1.76-14.15,3.46-15.41c1.7-1.25,3.01.36,3.33,1.98.32,1.61.32,5.57.32,5.57,0,0,3.01-4.54,3.06-4.68.05-.14,2.88-8.57,4.49-8.71,1.61-.14,1.97.89,2.06,1.93.09,1.04-1.07,6.02-1.07,6.02,0,0,2.68,2.24,2.82,3.18.14.95,1.14,9.04.54,11.56Z"/>
      <path class="cls-13" d="m201.89,109.38c-2.84,1.51-5.32,2.67-5.32,2.67l-7.83-6,1.74-2.91c2.8.56,8.3,2.14,11.41,6.24Z"/>
      <path class="cls-6" d="m131.63,110.59l27.42,24.73,28.05-30.43s7.76-.28,11.32,8.33c0,0-25.8,34.06-37.55,41.61l-22.64-7.21s-7.09-17.28-6.6-37.03Z"/>
      <path class="cls-16" d="m124.93,95.11c-.33.5-.72.94-1.16,1.31h-.01c-2.87,2.47-7.57,2.19-7.57,2.19l.4,4.26.6,6.48s-1.5,4.38-8.37,4.25c-6.87-.13-10.86-4.62-10.86-4.62l.62-20.36s-2.75-.88-3.25-2.99c-.5-2.12-1.62-6.25,0-6.75,1.62-.5,4.12.12,4.75,2l.62,2.99,2.24-.12s-.49-4.87,1.01-6.75c1.49-1.88,7.11-3.5,7.11-7.99,0,0,5.37,6.11,13.12,2.99,0,0,3.25,19.24.75,23.11Z"/>
      <path class="cls-6" d="m145.06,198.97c-.52,3.33-1.12,6.52-1.67,9.2-.92,4.5-1.69,7.59-1.69,7.59,0,0-24.36,7.4-53.88,2.56-2.42-.38-4.89-.87-7.39-1.44,0,0-1.47-2.44-3.12-5.38-2.12-3.74-4.57-8.32-4.72-9.73-.18-1.68,3.73-40.4,6.36-66.08,1.32-12.88,2.32-22.47,2.32-22.47,0,0,4.78-4.95,13.73-7.86h0c.98-.33,2.01-.63,3.08-.88,0,0,4.6,7.25,12.12,5.94,7.53-1.3,6.69-4.15,6.69-4.15l-.21-2.31s1.21.39,2.95,1.04c3.66,1.34,9.72,3.72,12,5.59,0,0,14.83,79.43,13.43,88.38Z"/>
      <path class="cls-7" d="m87.38,178.64l-4.05,24.28,4.05,10.59.44,4.81.88,9.72h-.01c-4.44-.63-8.18-1.56-11.48-2.63,0,0-4.56-7.25.1-13.91-2.12-3.74-4.57-8.32-4.72-9.73-.18-1.68,3.73-40.4,6.36-66.08l4.39-2.26v19.65h32.31v7.69l-28.26,17.86Z"/>
      <path class="cls-6" d="m143.66,221.35s-6.72,5.06-26.44,6.89c-12.2,1.13-21.3.85-28.52-.2h-.01c-4.44-.63-8.18-1.56-11.48-2.63,0,0-4.56-7.25.1-13.91,0,0,3.18,1.17,10.07,2.01,5.56.68,13.55,1.14,24.24.58,23.92-1.26,31.76-5.91,31.76-5.91,0,0,3.7,5.98.27,13.18Z"/>
      <path class="cls-7" d="m88.7,228.04h-.01c-4.44-.63-8.18-1.56-11.48-2.63,0,0-4.56-7.25.1-13.91,0,0,3.18,1.17,10.07,2.01l.44,4.81.88,9.72Z"/>
      <path class="cls-16" d="m126.35,144.66c-.42.94-.94,3.98-1.58,5.66-.62,1.67-4.09,4.5-5.77,5.46-1.62.91-7.07,1.82-9.85,1.88-.1.01-.19.01-.29.01h-6.23l-3.04-11.44s3.98-3.04,5.45-4.19c1.47-1.16,4.93-3.99,6.93-4.3,1.81-.28,3.89-.05,4.25-.01l-.9,2.56v.03c-.04.3-.28,2.27.11,2.6.42.33,3.89.44,5.36-.17,1.47-.6,5.35-2.91,6.19-1.96.84.94-.21,2.94-.63,3.88Z"/>
      <path class="cls-3" d="m154.01,129.86l-16.37,39.31-31.47-3.08,2.98-8.43c2.78-.05,8.23-.97,9.85-1.88,1.68-.95,5.15-3.79,5.77-5.46.63-1.68,1.16-4.72,1.58-5.66.42-.94,1.47-2.94.63-3.88-.84-.94-4.72,1.36-6.19,1.96-1.47.61-4.94.5-5.36.17-.39-.32-.15-2.3-.12-2.6v-.03s.91-2.56.91-2.56l5.61-15.83,32.18,7.97Z"/>
      <path class="cls-6" d="m81.27,113.22s-20.07,34.48-20.28,53.79c0,0,1.05,4.62,9.02,5.25,7.97.63,33.78-13.22,33.78-13.22,0,0,1.26-10.49-3.57-14.27l-19.83,5.77s6.89-27.1.87-37.31Z"/>
      <path class="cls-7" d="m110.18,114.54c-8.88.94-15.18-9.19-15.18-9.19h0c.98-.32,2.01-.62,3.08-.88,0,0,4.6,7.25,12.12,5.94,7.53-1.3,6.69-4.14,6.69-4.14l-.21-2.32s1.2.4,2.95,1.04c1.52,3.51-.58,8.6-9.45,9.55Z"/>
      <path class="cls-3" d="m105.19,110.05l-6.01,8.83s-5.88-5.99-6.68-12.62l5.65-3.4,7.05,7.18Z"/>
      <path class="cls-3" d="m114.62,109.13l2-5.86,5.62,2.71s.58,3.74-.96,8.62l-6.66-5.48Z"/>
      <polygon class="cls-8" points="113.44 252.83 122.47 242.76 117 267.57 113.44 252.83"/>
      <polygon class="cls-7" points="80.39 150.53 75.36 157.67 87.38 148.5 80.39 150.53"/>
      <path class="cls-13" d="m116.19,98.61l.4,4.26c-13.78-.27-13.07-14.48-13.07-14.48,8.35,11.68,19.61,8.25,20.25,8.03-2.87,2.47-7.57,2.19-7.57,2.19Z"/>
      <g>
        <g>
          <polygon class="cls-1" points="195.92 256.36 191.65 256.4 248.36 400.33 252.97 400.33 195.92 256.36"/>
          <polygon class="cls-1" points="248.74 256.36 253.02 256.4 196.3 400.33 191.69 400.33 248.74 256.36"/>
        </g>
        <rect class="cls-1" x="180.07" y="246.47" width="235.03" height="9.89"/>
        <path class="cls-3" d="m267.44,214.33c1.02,4.09-1.47,7.41-5.56,7.41s-8.23-3.32-9.25-7.41,1.47-7.41,5.56-7.41,8.23,3.32,9.25,7.41Z"/>
      </g>
    </g>
  </g>
</svg>