<svg width="491" height="186" viewBox="0 0 491 186" fill="none" xmlns="http://www.w3.org/2000/svg">
<path opacity="0.5" d="M202.143 89.2604L164.092 182.623C163.834 183.258 164.138 183.98 164.771 184.24C165.395 184.495 166.104 184.203 166.374 183.592C166.379 183.582 166.384 183.57 166.387 183.559L204.44 90.1964L209.117 94.9043L208.887 76L195.507 89.358L202.143 89.2604Z" fill="#359179"/>
<path opacity="0.5" d="M351.599 133.559C352.189 121.307 350.153 110.688 347.794 102.813C347.19 100.801 346.567 98.9666 345.959 97.3315C343.879 91.7243 341.743 87.6475 340.444 85.3919L345.815 84.3238L333 76L336.004 91.022L338.829 86.6155C340.103 88.8549 342.147 92.8004 344.107 98.0968C347.011 105.945 350.323 118.45 349.599 133.461C348.634 153.512 353.823 167.543 363.115 185.007C363.375 185.496 363.981 185.681 364.47 185.42C364.957 185.159 365.143 184.55 364.881 184.06C355.755 166.907 350.655 153.144 351.599 133.559Z" fill="#359179"/>
<path opacity="0.5" d="M480.372 29.057C474.816 21.2436 467.022 15.619 458.425 13.2206C457.824 13.0533 457.472 12.4291 457.64 11.8276C457.807 11.2261 458.431 10.8734 459.033 11.0422C477.831 16.2869 491.598 35.6509 490.374 55.1295C489.15 74.6066 473.068 92.0968 453.762 94.9475C449.686 95.549 445.491 95.3741 441.615 94.4696C440.332 94.1696 439.082 93.7897 437.885 93.33C433.385 91.6054 429.892 88.8918 427.646 85.4034L423.386 89.9998L423 72.7689L435.61 84.517L429.85 84.6316C432.307 88.1637 435.886 90.1416 438.693 91.2179C443.149 92.9259 448.384 93.4551 453.431 92.7104C462.26 91.4064 470.698 86.8024 477.186 79.7457C483.674 72.689 487.556 63.8957 488.116 54.9878C488.675 46.0799 485.924 36.8705 480.37 29.057H480.372Z" fill="#359179"/>
<path opacity="0.5" d="M22.8537 35.9576C28.5114 40.1144 34.8686 43.2256 41.7502 45.2044C43.9851 45.847 46.235 46.3593 48.4954 46.7398C52.3136 47.3824 56.1603 47.652 60.004 47.5442L58.0462 53.2977L73.2922 45.498L57.0651 40.0215L59.7823 45.3003C53.9479 45.4486 48.1044 44.6936 42.3703 43.0459C35.7449 41.1405 29.6259 38.1476 24.1824 34.1481C18.7389 30.1486 14.0548 25.204 10.256 19.4504C6.46027 13.6953 3.755 7.44292 2.21662 0.866978C2.07581 0.26331 1.47214 -0.111174 0.866978 0.0296317C0.26331 0.170438 -0.111174 0.775604 0.0296317 1.37927C1.62793 8.21436 4.43956 14.7109 8.38362 20.6877C12.3292 26.6644 17.1975 31.8024 22.8537 35.9576Z" fill="#359179"/>
</svg>
