<svg width="348" height="180" viewBox="0 0 348 180" fill="none" xmlns="http://www.w3.org/2000/svg">
<path opacity="0.5" d="M150.143 84.2604L112.092 177.623C111.834 178.258 112.138 178.98 112.771 179.24C113.395 179.495 114.104 179.204 114.374 178.592C114.379 178.582 114.384 178.57 114.387 178.559L152.44 85.1964L157.117 89.9043L156.887 71L143.507 84.358L150.143 84.2604Z" fill="#359179"/>
<path opacity="0.5" d="M233.599 127.559C234.189 115.307 232.153 104.688 229.794 96.8129C229.19 94.8013 228.567 92.9666 227.959 91.3315C225.879 85.7243 223.743 81.6475 222.444 79.3919L227.815 78.3238L215 70L218.004 85.022L220.829 80.6155C222.103 82.8549 224.147 86.8004 226.107 92.0968C229.011 99.9448 232.323 112.45 231.599 127.461C230.634 147.512 235.823 161.543 245.115 179.007C245.375 179.496 245.981 179.681 246.47 179.42C246.957 179.159 247.143 178.55 246.881 178.06C237.755 160.907 232.655 147.144 233.599 127.559Z" fill="#359179"/>
<path opacity="0.5" d="M337.372 18.057C331.816 10.2436 324.022 4.61904 315.425 2.22059C314.824 2.05325 314.472 1.42914 314.64 0.827643C314.807 0.226145 315.431 -0.126614 316.033 0.0422277C334.831 5.28687 348.598 24.6509 347.374 44.1295C346.15 63.6066 330.068 81.0968 310.762 83.9475C306.686 84.549 302.491 84.3741 298.615 83.4696C297.332 83.1696 296.082 82.7897 294.885 82.33C290.385 80.6054 286.892 77.8918 284.646 74.4034L280.386 78.9998L280 61.7689L292.61 73.517L286.85 73.6316C289.307 77.1637 292.886 79.1416 295.693 80.2179C300.149 81.9259 305.384 82.4551 310.431 81.7104C319.26 80.4064 327.698 75.8024 334.186 68.7457C340.674 61.6891 344.556 52.8957 345.116 43.9878C345.675 35.0799 342.924 25.8705 337.37 18.057H337.372Z" fill="#359179"/>
<path opacity="0.5" d="M22.8537 35.9576C28.5114 40.1144 34.8686 43.2256 41.7502 45.2044C43.9851 45.847 46.235 46.3593 48.4954 46.7398C52.3136 47.3824 56.1603 47.652 60.004 47.5442L58.0462 53.2977L73.2922 45.498L57.0651 40.0215L59.7823 45.3003C53.9479 45.4486 48.1044 44.6936 42.3703 43.0459C35.7449 41.1405 29.6259 38.1476 24.1824 34.1481C18.7389 30.1486 14.0548 25.204 10.256 19.4504C6.46027 13.6953 3.755 7.44292 2.21662 0.866978C2.07581 0.26331 1.47214 -0.111174 0.866978 0.0296317C0.26331 0.170438 -0.111174 0.775604 0.0296317 1.37927C1.62793 8.21436 4.43956 14.7109 8.38362 20.6877C12.3292 26.6644 17.1975 31.8024 22.8537 35.9576Z" fill="#359179"/>
</svg>
