<?xml version="1.0" encoding="UTF-8"?>
<svg id="Layer_2" data-name="Layer 2" xmlns="http://www.w3.org/2000/svg" viewBox="0 0 447.42 559.2">
  <defs>
    <style>
      .cls-1 {
        fill: #359179;
        opacity: .5;
      }
    </style>
  </defs>
  <g id="Objects">
    <path class="cls-1" d="m380.57,119.78c-36.85-51.83-88.55-89.14-145.58-105.05-3.99-1.11-6.32-5.25-5.21-9.24,1.11-3.99,5.25-6.33,9.24-5.21,124.7,34.79,216.02,163.24,207.9,292.45-8.12,129.2-114.8,245.22-242.86,264.13-27.04,3.99-54.87,2.83-80.58-3.17-8.51-1.99-16.8-4.51-24.74-7.56-29.85-11.44-53.02-29.44-67.92-52.58l-28.26,30.49-2.56-114.3,83.65,77.93-38.21.76c16.3,23.43,40.04,36.55,58.66,43.69,29.56,11.33,64.28,14.84,97.76,9.9,58.57-8.65,114.54-39.19,157.58-86,43.04-46.81,68.79-105.14,72.5-164.23,3.71-59.09-14.54-120.18-51.38-172.01Z"/>
  </g>
</svg>