<?xml version="1.0" encoding="UTF-8"?>
<svg id="Layer_2" data-name="Layer 2" xmlns="http://www.w3.org/2000/svg" viewBox="0 0 239.67 817.35">
  <defs>
    <style>
      .cls-1 {
        fill: #359179;
        opacity: .5;
      }
    </style>
  </defs>
  <g id="Objects">
    <path class="cls-1" d="m139.3,429.49c4.42-91.42-10.83-170.66-28.5-229.42-4.52-15.01-9.19-28.7-13.74-40.9-15.58-41.84-31.58-72.26-41.31-89.09l40.23-7.97L0,0l22.5,112.09,21.16-32.88c9.54,16.71,24.85,46.15,39.53,85.67,21.75,58.56,46.55,151.87,41.13,263.88-7.23,149.61,31.64,254.31,101.23,384.62,1.95,3.65,6.49,5.03,10.15,3.08,3.65-1.95,5.04-6.49,3.08-10.15-68.35-127.99-106.55-230.68-99.48-376.82Z"/>
  </g>
</svg>