<?xml version="1.0" encoding="UTF-8"?>
<svg id="Layer_2" data-name="Layer 2" xmlns="http://www.w3.org/2000/svg" viewBox="0 0 489.29 355.81">
  <defs>
    <style>
      .cls-1 {
        fill: #359179;
        opacity: .5;
      }
    </style>
  </defs>
  <g id="Objects">
    <path class="cls-1" d="m152.57,240.05c37.77,27.75,80.21,48.52,126.15,61.73,14.92,4.29,29.94,7.71,45.03,10.25,25.49,4.29,51.17,6.09,76.83,5.37l-13.07,38.41,101.78-52.07-108.33-36.56,18.14,35.24c-38.95.99-77.96-4.05-116.24-15.05-44.23-12.72-85.08-32.7-121.42-59.4s-67.61-59.71-92.97-98.12C43.13,91.43,25.07,49.69,14.8,5.79,13.86,1.76,9.83-.74,5.79.2,1.76,1.14-.74,5.18.2,9.21c10.67,45.63,29.44,89,55.77,128.9,26.34,39.9,58.84,74.2,96.6,101.94Z"/>
  </g>
</svg>