<svg width="288" height="493" viewBox="0 0 288 493" fill="none" xmlns="http://www.w3.org/2000/svg">
<g opacity="0.1" clip-path="url(#clip0_65_552)" filter="url(#filter0_d_65_552)">
<path d="M278.96 321.58C275.98 332.2 273.55 343.1 269.04 353.11C255.07 383.94 237.63 412.45 210.56 433.86C202.76 440.05 195.51 446.99 186.59 451.67C183.75 453.15 180.99 454.79 178.2 456.41C168.39 462.12 158.19 466.97 147.45 470.82C134.74 475.39 121.39 477.23 108.48 481.16C104.83 482.25 101.07 483.19 97.25 483.53C83.98 484.7 70.63 484.98 57.31 484.34C53.21 484.15 49.12 483.67 45.05 483.09C32.81 481.33 20.49 479.97 8.51001 476.79C-1.26999 474.2 -10.47 469.96 -19.75 465.97C-33.99 459.87 -47.76 452.84 -60.95 444.7C-68.95 439.79 -82.27 432.24 -90.61 427.98C-106.16 420.06 -121.33 411.42 -136.6 403C-141.03 400.57 -145.41 398.01 -149.78 395.5C-149.84 395.47 -149.92 395.42 -149.98 395.39V315.75C-147.36 317.14 -144.68 318.4 -142.12 319.85C-128.1 327.71 -114.19 335.82 -100.03 343.46C-87.77 350.07 -75.33 356.39 -63.1 363.11C-43.25 374.04 -24.27 386.55 -3.69998 396.17C3.49002 399.54 9.85001 404.62 17.62 406.79C21.3 407.82 24.98 408.94 28.66 410C38.86 412.98 49.18 415.07 59.91 414.71C66.1 414.51 72.31 414.54 78.47 415.1C86.05 415.8 93.69 414.99 101.08 413.09C111.2 410.5 121.15 407.43 130.52 402.61C138.21 398.62 145.04 393.19 152.6 388.95C158.68 385.52 164.14 381.09 168.91 375.96C174.21 370.22 179.59 364.5 184.52 358.45C191.4 349.98 197.4 340.83 201.3 330.6C206.6 316.83 210.86 302.81 211.36 287.87C211.69 278.2 212.5 268.5 211.25 258.88C209.66 246.98 206.18 235.6 201.55 224.51C192.91 203.83 180.23 186.41 162.05 173C147.47 162.21 132.03 152.82 116.2 144.09C104.97 137.9 93.2 132.69 82.22 126.11C68.87 118.11 55.46 110.28 41.86 102.78C28.03 95.1699 14.35 87.3699 0.610016 79.6199C-5.23998 76.3299 -10.18 71.9499 -13.94 66.4399C-16.87 62.1199 -18.79 57.2399 -20.66 52.3599C-26.26 37.5599 -25.57 23.0899 -18.65 9.03995C-16.81 5.29995 -13.72 2.17995 -9.75998 0.839947C-2.78998 -1.47005 2.11002 1.30995 6.74002 4.29995C15.94 10.1799 25.58 15.1199 35.31 20.0199C42.31 23.5299 49.25 27.1299 56.05 30.9499C80.13 44.5499 103.85 58.8499 128.47 71.5399C142.57 78.8199 156.48 86.4199 170.11 94.5599C189.51 106.18 208.38 118.36 224.52 134.34C229.65 139.39 235.17 144.01 239.24 150.09C245.01 158.79 251.06 167.29 256.88 175.93C262.04 183.6 266.02 191.79 268.75 200.68C272.01 211.36 275.33 222.03 278.31 232.82C280.65 241.38 283.08 250.02 283.38 258.94C284.08 279.96 284.75 300.95 278.98 321.57L278.96 321.58Z" fill="#0C443B"/>
<path d="M191.8 299.2C190.91 304.33 189.96 309.46 188.51 314.45C185.36 325.15 179.84 334.69 174.07 344.11C172.23 347.15 169.86 349.8 167.24 352.17C164.59 354.51 162.08 357.05 159.91 359.84C155.06 366.11 149.07 371.02 142.57 375.45C131.75 382.86 120.69 389.61 107.42 391.7C105.3 392.03 103.27 392.73 101.18 393.18C92.04 395.21 82.95 397.33 73.58 398.14C65.55 398.81 57.64 398.25 49.75 396.77C36.76 394.37 23.94 391.45 12.15 385.15C3.75998 380.69 -4.66002 376.29 -12.96 371.69C-33.5 360.37 -53.85 348.67 -74.56 337.66C-93.4 327.6 -112.02 317.09 -130.48 306.3C-136.86 302.56 -143.47 299.14 -149.99 295.62V220.69C-141.52 224.98 -133.15 229.47 -124.71 233.85C-110.97 240.96 -97.81 249.07 -84.63 257.15C-75.21 262.92 -65.42 268.02 -55.39 272.65C-45.36 277.28 -36.24 283.63 -26.54 288.87C-10.12 297.79 6.23999 306.82 22.74 315.57C34.36 321.73 46.04 327.83 58.31 332.71C61.74 334.1 65.36 335.44 69.04 334.77C78.38 333.04 87.55 330.73 96.27 326.77C110.88 320.14 125.54 297.22 122.58 276.29C120.55 261.93 114.58 250.06 102.34 241.67C97.13 238.1 91.75 234.87 86.28 231.83C66.6 220.88 46.81 210.09 27.13 199.16C4.32999 186.56 -18.39 173.82 -41.19 161.22C-57.41 152.24 -73.75 143.49 -89.91 134.4C-109.81 123.19 -129.88 112.35 -150.01 101.54V17C-149.48 17.42 -148.87 17.78 -148.14 18.11C-139.58 22.21 -131.19 26.67 -122.91 31.32C-112.09 37.4 -101.53 43.92 -90.74 50.05C-75.02 58.97 -58.94 67.22 -42.91 75.58C-25.93 84.47 -9.63001 94.53 7.20999 103.71C30.4 116.34 53.57 129.08 76.39 142.37C92.33 151.62 109 159.65 125.06 168.8C141.28 178.05 155.47 189.15 167.35 203.62C184.38 224.36 192.63 248.11 194.3 274.53C194.83 282.92 193.24 291.06 191.79 299.2H191.8Z" fill="#0C443B"/>
<path d="M50.39 232.05C39.27 238.38 29.29 245.23 22.93 256.02C16.55 266.86 14.62 278.85 14.99 292.03C-39.51 259.89 -95.92 233.08 -150 199.63V121.36C-149.89 121.44 -149.75 121.53 -149.64 121.58C-141.97 125.76 -134.39 130.08 -126.5 133.87C-120.84 136.57 -115.21 139.33 -109.89 142.73C-98.27 150.14 -86.34 157.03 -73.76 162.77C-69.75 164.61 -65.82 166.78 -62.11 169.21C-53.75 174.65 -45.02 179.5 -36.35 184.37C-15.64 195.97 5.23999 207.31 26.4 218.13C34.48 222.26 42.15 227.22 50.4 232.04L50.39 232.05Z" fill="#0C443B"/>
<path d="M105.19 282.67C104.83 296.94 97.5 306.84 84.9 313.08C65.11 322.86 42.73 312.05 35.9 295.74C34.17 291.59 32.97 287.35 33.17 283.39C33.09 262.93 51.82 243.86 74.59 247.79C90.67 250.58 105.67 264.43 105.2 282.66L105.19 282.67Z" fill="#0C443B"/>
</g>
<defs>
<filter id="filter0_d_65_552" x="-154" y="0" width="441.81" height="492.67" filterUnits="userSpaceOnUse" color-interpolation-filters="sRGB">
<feFlood flood-opacity="0" result="BackgroundImageFix"/>
<feColorMatrix in="SourceAlpha" type="matrix" values="0 0 0 0 0 0 0 0 0 0 0 0 0 0 0 0 0 0 127 0" result="hardAlpha"/>
<feOffset dy="4"/>
<feGaussianBlur stdDeviation="2"/>
<feComposite in2="hardAlpha" operator="out"/>
<feColorMatrix type="matrix" values="0 0 0 0 0 0 0 0 0 0 0 0 0 0 0 0 0 0 0.25 0"/>
<feBlend mode="normal" in2="BackgroundImageFix" result="effect1_dropShadow_65_552"/>
<feBlend mode="normal" in="SourceGraphic" in2="effect1_dropShadow_65_552" result="shape"/>
</filter>
<clipPath id="clip0_65_552">
<rect width="433.81" height="484.67" fill="white" transform="translate(-150)"/>
</clipPath>
</defs>
</svg>
