<svg width="39" height="38" viewBox="0 0 39 38" fill="none" xmlns="http://www.w3.org/2000/svg">
<g id="Social_icons_black">
<g id="Github">
<path id="Fill-51" d="M19.5342 0.142578C9.06163 0.142578 0.569412 8.778 0.569412 19.4312C0.569412 27.9535 6.00341 35.1838 13.5387 37.7344C14.4865 37.9129 14.8345 37.3159 14.8345 36.8065C14.8345 36.3465 14.8169 34.8271 14.8087 33.2153C9.5327 34.3821 8.4194 30.9394 8.4194 30.9394C7.5567 28.7099 6.31369 28.1171 6.31369 28.1171C4.59302 26.9199 6.4434 26.9445 6.4434 26.9445C8.34779 27.0802 9.35055 28.9322 9.35055 28.9322C11.042 31.8811 13.7871 31.0286 14.8693 30.5357C15.0396 29.2893 15.531 28.4378 16.0734 27.9564C11.8611 27.4687 7.43297 25.8147 7.43297 18.4237C7.43297 16.3178 8.17381 14.5971 9.38698 13.2463C9.19007 12.7602 8.54093 10.7986 9.5707 8.14173C9.5707 8.14173 11.1632 7.62331 14.7874 10.1189C16.3002 9.69153 17.9225 9.4772 19.5342 9.46986C21.1459 9.4772 22.7696 9.69153 24.2852 10.1189C27.9049 7.62331 29.4953 8.14173 29.4953 8.14173C30.5275 10.7986 29.8781 12.7602 29.6812 13.2463C30.8972 14.5971 31.633 16.3178 31.633 18.4237C31.633 25.8323 27.1964 27.4635 22.9734 27.9411C23.6536 28.5397 24.2597 29.7135 24.2597 31.5131C24.2597 34.0937 24.2378 36.1708 24.2378 36.8065C24.2378 37.3198 24.5791 37.9212 25.5404 37.7318C33.0717 35.1784 38.4988 27.9507 38.4988 19.4312C38.4988 8.778 30.0078 0.142578 19.5342 0.142578Z" fill="#ffffff"/>
<path id="Fill-52" d="M7.75235 27.837C7.71058 27.9332 7.56235 27.9616 7.42731 27.8958C7.28975 27.8329 7.2125 27.7022 7.25709 27.6061C7.29792 27.5074 7.44646 27.4802 7.5837 27.5457C7.72157 27.609 7.80008 27.7409 7.75235 27.837Z" fill="#ffffff"/>
<path id="Fill-53" d="M8.52052 28.7084C8.43008 28.7937 8.25327 28.7541 8.1333 28.6193C8.00925 28.4848 7.98601 28.305 8.07771 28.2184C8.17099 28.1332 8.34246 28.1731 8.46682 28.3076C8.59087 28.4436 8.61505 28.6222 8.52052 28.7084Z" fill="#ffffff"/>
<path id="Fill-54" d="M9.26827 29.8192C9.15207 29.9013 8.96207 29.8243 8.84462 29.6528C8.72842 29.4813 8.72842 29.2756 8.84713 29.1932C8.9649 29.1108 9.15207 29.1849 9.2711 29.3551C9.38698 29.5292 9.38698 29.7352 9.26827 29.8192Z" fill="#ffffff"/>
<path id="Fill-55" d="M10.2927 30.8925C10.1888 31.0091 9.96735 30.9778 9.8053 30.8187C9.63948 30.6631 9.59332 30.4424 9.69758 30.3258C9.80279 30.2089 10.0255 30.2418 10.1888 30.3996C10.3533 30.5549 10.4036 30.7772 10.2927 30.8925Z" fill="#ffffff"/>
<path id="Fill-56" d="M11.7059 31.5158C11.6601 31.6669 11.4468 31.7355 11.232 31.6713C11.0175 31.6052 10.8771 31.4283 10.9205 31.2756C10.9651 31.1235 11.1793 31.052 11.3956 31.1207C11.6098 31.1865 11.7505 31.3621 11.7059 31.5158Z" fill="#ffffff"/>
<path id="Fill-57" d="M13.258 31.6314C13.2633 31.7904 13.0811 31.9224 12.8557 31.9249C12.6289 31.9303 12.4455 31.8016 12.443 31.6451C12.443 31.4844 12.6211 31.3538 12.8478 31.35C13.0733 31.3455 13.258 31.4733 13.258 31.6314Z" fill="#ffffff"/>
<path id="Fill-58" d="M14.7023 31.3812C14.7293 31.5364 14.5726 31.6958 14.3487 31.738C14.1285 31.7792 13.9247 31.6834 13.8967 31.5294C13.8694 31.3703 14.029 31.2109 14.2488 31.1697C14.473 31.1301 14.6737 31.2234 14.7023 31.3812Z" fill="#ffffff"/>
</g>
</g>
</svg>