<svg width="38" height="38" viewBox="0 0 38 38" fill="none" xmlns="http://www.w3.org/2000/svg">
<g id="Instagram">
<path id="Combined-Shape" fill-rule="evenodd" clip-rule="evenodd" d="M19 0C8.78273 0 0.5 8.50659 0.5 19C0.5 29.4934 8.78273 38 19 38C29.2173 38 37.5 29.4934 37.5 19C37.5 8.50659 29.2173 0 19 0ZM14.9325 8.92789C15.985 8.8787 16.3213 8.86667 19.0009 8.86667H18.9978C21.6783 8.86667 22.0134 8.8787 23.0658 8.92789C24.1162 8.97729 24.8336 9.14808 25.4626 9.39867C26.1122 9.65729 26.661 10.0035 27.2099 10.5672C27.7587 11.1304 28.0958 11.6958 28.3487 12.3623C28.5912 13.0066 28.7577 13.743 28.8071 14.8218C28.8543 15.9027 28.8667 16.248 28.8667 19.0001C28.8667 21.7522 28.8543 22.0967 28.8071 23.1776C28.7577 24.256 28.5912 24.9926 28.3487 25.6371C28.0958 26.3034 27.7587 26.8687 27.2099 27.432C26.6616 27.9956 26.112 28.3427 25.4632 28.6015C24.8355 28.8521 24.1177 29.0229 23.0673 29.0723C22.0148 29.1215 21.6795 29.1335 18.9997 29.1335C16.3202 29.1335 15.9842 29.1215 14.9317 29.0723C13.8815 29.0229 13.1643 28.8521 12.5365 28.6015C11.888 28.3427 11.3375 27.9956 10.7893 27.432C10.2407 26.8687 9.90356 26.3034 9.65134 25.6369C9.40755 24.9926 9.24125 24.2562 9.19294 23.1774C9.14526 22.0965 9.13333 21.7522 9.13333 19.0001C9.13333 16.248 9.14567 15.9024 9.19274 14.8215C9.24002 13.7432 9.40652 13.0066 9.65113 12.3621C9.90397 11.6958 10.2411 11.1304 10.7899 10.5672C11.3384 10.0037 11.8888 9.6575 12.5378 9.39867C13.1651 9.14808 13.8821 8.97729 14.9325 8.92789Z" fill="#359179"/>
<path id="Combined-Shape_2" fill-rule="evenodd" clip-rule="evenodd" d="M18.1158 10.6927C18.2877 10.6924 18.4726 10.6925 18.6721 10.6926L19.0009 10.6927C21.6354 10.6927 21.9476 10.7024 22.9879 10.751C23.9499 10.7962 24.4721 10.9613 24.8199 11.1C25.2803 11.2836 25.6086 11.5032 25.9537 11.8579C26.299 12.2125 26.5128 12.5503 26.6921 13.0232C26.8271 13.38 26.9881 13.9162 27.0319 14.9042C27.0791 15.9725 27.0894 16.2933 27.0894 18.9977C27.0894 21.7021 27.0791 22.023 27.0319 23.0912C26.9879 24.0792 26.8271 24.6154 26.6921 24.9722C26.5132 25.4451 26.299 25.7818 25.9537 26.1363C25.6084 26.491 25.2805 26.7105 24.8199 26.8942C24.4725 27.0335 23.9499 27.1982 22.9879 27.2434C21.9478 27.2919 21.6354 27.3025 19.0009 27.3025C16.3663 27.3025 16.0541 27.2919 15.0139 27.2434C14.0519 27.1978 13.5298 27.0327 13.1818 26.894C12.7213 26.7103 12.3925 26.4908 12.0471 26.1361C11.7018 25.7814 11.488 25.4445 11.3088 24.9714C11.1737 24.6146 11.0127 24.0784 10.969 23.0903C10.9217 22.0221 10.9122 21.7012 10.9122 18.9952C10.9122 16.2891 10.9217 15.9699 10.969 14.9017C11.013 13.9137 11.1737 13.3774 11.3088 13.0202C11.4876 12.5473 11.7018 12.2096 12.0471 11.8549C12.3925 11.5002 12.7213 11.2807 13.1818 11.0966C13.5296 10.9572 14.0519 10.7926 15.0139 10.7472C15.9241 10.705 16.2769 10.6923 18.1158 10.6902V10.6927ZM24.2677 12.3753C23.6141 12.3753 23.0837 12.9193 23.0837 13.5909C23.0837 14.2622 23.6141 14.8069 24.2677 14.8069C24.9214 14.8069 25.4517 14.2622 25.4517 13.5909C25.4517 12.9195 24.9214 12.3749 24.2677 12.3749V12.3753ZM13.9339 19C13.9339 16.1262 16.2026 13.7962 19.0007 13.7961C21.799 13.7961 24.0671 16.1261 24.0671 19C24.0671 21.8739 21.7992 24.2029 19.0009 24.2029C16.2027 24.2029 13.9339 21.8739 13.9339 19Z" fill="#359179"/>
<path id="Shape" d="M19.0009 15.6223C20.8172 15.6223 22.2899 17.1345 22.2899 19.0001C22.2899 20.8655 20.8172 22.3779 19.0009 22.3779C17.1844 22.3779 15.712 20.8655 15.712 19.0001C15.712 17.1345 17.1844 15.6223 19.0009 15.6223Z" fill="#359179"/>
</g>
</svg>
