<svg width="304" height="376" viewBox="0 0 304 376" fill="none" xmlns="http://www.w3.org/2000/svg">
<g clip-path="url(#clip0_1_17)">
<path d="M433.691 385.68H-105.719C-105.719 385.68 -39.6088 332.26 -70.0688 284.94C-100.529 237.62 -162.769 165.5 -99.9788 78.6897C-37.1788 -8.12029 59.0412 -41.7003 211.641 -32.5403C364.241 -23.3803 406.051 53.6897 408.881 113.41C412.871 197.71 323.111 200.36 378.701 257.28C448.201 328.44 433.701 385.68 433.701 385.68H433.691Z" fill="#EAF4F2"/>
<path d="M54.0412 79.7697C54.0412 86.0097 52.4812 91.5497 50.1712 96.2997C46.0512 104.74 39.5412 110.67 35.1512 113.55C28.3012 118.05 30.7712 127.26 30.7712 127.26H11.6512C11.6512 127.26 14.1312 118.04 7.27122 113.55C3.04123 110.77 -3.15877 105.15 -7.28877 97.1897C-9.84877 92.2497 -11.6188 86.3997 -11.6188 79.7697C-11.6188 62.4597 0.411228 48.3397 21.2112 48.3397C42.0112 48.3397 54.0412 62.4597 54.0412 79.7697Z" fill="#FDD449"/>
<path d="M35.0312 127.27H7.39121C6.43024 127.27 5.65121 128.049 5.65121 129.01V134.36C5.65121 135.321 6.43024 136.1 7.39121 136.1H35.0312C35.9922 136.1 36.7712 135.321 36.7712 134.36V129.01C36.7712 128.049 35.9922 127.27 35.0312 127.27Z" fill="#2C373C"/>
<path d="M24.4512 161.73H17.9612C15.1212 161.73 12.8212 159.43 12.8212 156.59H29.6012C29.6012 159.43 27.3012 161.73 24.4612 161.73H24.4512Z" fill="#2C373C"/>
<path d="M27.5612 97.8697C24.9312 97.8697 22.7812 100.01 22.7812 102.65V106.75H19.6312V102.65C19.6312 100.02 17.4912 97.8697 14.8512 97.8697C12.2112 97.8697 10.0712 100.01 10.0712 102.65V104.56C10.0712 107.19 12.2112 109.34 14.8512 109.34H17.0412V127.27H19.6312V109.34H22.7812V127.27H25.3712V109.34H27.5612C30.2012 109.34 32.3412 107.2 32.3412 104.56V102.65C32.3412 100.02 30.2012 97.8697 27.5612 97.8697ZM17.0512 106.75H14.8612C13.6512 106.75 12.6712 105.77 12.6712 104.56V102.65C12.6712 101.44 13.6512 100.46 14.8612 100.46C16.0712 100.46 17.0512 101.44 17.0512 102.65V106.75ZM29.7512 104.56C29.7512 105.77 28.7712 106.75 27.5612 106.75H25.3712V102.65C25.3712 101.44 26.3512 100.46 27.5612 100.46C28.7712 100.46 29.7512 101.44 29.7512 102.65V104.56Z" fill="white"/>
<path d="M241.121 234.7C244.137 234.7 246.581 232.255 246.581 229.24C246.581 226.224 244.137 223.78 241.121 223.78C238.106 223.78 235.661 226.224 235.661 229.24C235.661 232.255 238.106 234.7 241.121 234.7Z" fill="#CED8D6"/>
<path d="M289.841 216.42H261.821V251.94H289.841V216.42Z" fill="#2C373C"/>
<path d="M275.831 225.36C277.599 225.36 279.031 223.927 279.031 222.16C279.031 220.392 277.599 218.96 275.831 218.96C274.064 218.96 272.631 220.392 272.631 222.16C272.631 223.927 274.064 225.36 275.831 225.36Z" fill="#21292D"/>
<path d="M392.501 3.66971H291.451C290.131 3.66971 289.061 4.73975 289.061 6.05971V7.34971C289.061 8.66967 290.131 9.73971 291.451 9.73971H392.501C393.821 9.73971 394.891 8.66967 394.891 7.34971V6.05971C394.891 4.73975 393.821 3.66971 392.501 3.66971Z" fill="#CED8D6"/>
<path d="M392.501 24.4597H291.451C290.131 24.4597 289.061 25.5297 289.061 26.8497V28.1397C289.061 29.4597 290.131 30.5297 291.451 30.5297H392.501C393.821 30.5297 394.891 29.4597 394.891 28.1397V26.8497C394.891 25.5297 393.821 24.4597 392.501 24.4597Z" fill="#CED8D6"/>
<path d="M392.501 45.2597H291.451C290.131 45.2597 289.061 46.3297 289.061 47.6497V48.9397C289.061 50.2597 290.131 51.3297 291.451 51.3297H392.501C393.821 51.3297 394.891 50.2597 394.891 48.9397V47.6497C394.891 46.3297 393.821 45.2597 392.501 45.2597Z" fill="#CED8D6"/>
<path d="M392.501 66.0497H291.451C290.131 66.0497 289.061 67.1198 289.061 68.4397V69.7297C289.061 71.0497 290.131 72.1197 291.451 72.1197H392.501C393.821 72.1197 394.891 71.0497 394.891 69.7297V68.4397C394.891 67.1198 393.821 66.0497 392.501 66.0497Z" fill="#CED8D6"/>
<path d="M392.501 86.8397H291.451C290.131 86.8397 289.061 87.9097 289.061 89.2297V90.5197C289.061 91.8397 290.131 92.9097 291.451 92.9097H392.501C393.821 92.9097 394.891 91.8397 394.891 90.5197V89.2297C394.891 87.9097 393.821 86.8397 392.501 86.8397Z" fill="#CED8D6"/>
<path d="M392.501 107.64H291.451C290.131 107.64 289.061 108.71 289.061 110.03V111.32C289.061 112.64 290.131 113.71 291.451 113.71H392.501C393.821 113.71 394.891 112.64 394.891 111.32V110.03C394.891 108.71 393.821 107.64 392.501 107.64Z" fill="#CED8D6"/>
<path d="M260.291 118.25L235.311 155.02L271.721 160.21L260.291 118.25Z" fill="white"/>
<path d="M233.161 136.49L244.931 120.78H229.341L233.161 136.49Z" fill="#4C6169"/>
<path d="M191.231 206.35L213.501 238.29L229.981 200.47L191.231 206.35Z" fill="#CED8D6"/>
<path d="M141.751 -14.6503L158.141 -7.39028L140.721 4.78972L141.751 -14.6503Z" fill="#CED8D6"/>
<path d="M210.601 161.79C213.617 161.79 216.061 159.345 216.061 156.33C216.061 153.314 213.617 150.87 210.601 150.87C207.586 150.87 205.141 153.314 205.141 156.33C205.141 159.345 207.586 161.79 210.601 161.79Z" fill="#CED8D6"/>
<path d="M55.3612 252.28L55.2812 251.24C55.0412 249.08 55.7612 246.72 57.7612 244.33C59.5612 242.21 60.5612 240.65 60.5612 238.86C60.5612 236.82 59.2812 235.46 56.7612 235.42C55.3212 235.42 53.7212 235.9 52.7212 236.66L51.7612 234.14C53.0812 233.18 55.3612 232.54 57.4712 232.54C62.0712 232.54 64.1412 235.38 64.1412 238.41C64.1412 241.13 62.6212 243.08 60.7012 245.36C58.9412 247.44 58.3012 249.2 58.4212 251.23L58.4612 252.27H55.3412L55.3612 252.28ZM54.4812 257.87C54.4812 256.39 55.4812 255.35 56.8812 255.35C58.2812 255.35 59.2412 256.39 59.2412 257.87C59.2412 259.27 58.3212 260.35 56.8412 260.35C55.4412 260.35 54.4812 259.27 54.4812 257.87Z" fill="#CED8D6"/>
<g style="mix-blend-mode:multiply" opacity="0.3">
<path d="M408.201 -24.1803H143.461V147.61H408.201V-24.1803Z" fill="#CED8D6"/>
</g>
<path d="M269.831 59.1797C269.831 88.5597 246.011 112.39 216.641 112.39C187.271 112.39 163.431 88.5697 163.431 59.1797C163.431 29.7897 187.261 5.96971 216.641 5.96971C246.021 5.96971 269.831 29.7897 269.831 59.1797Z" fill="#F4F4F4"/>
<path d="M262.491 59.1797C262.491 84.5097 241.961 105.04 216.641 105.04C191.321 105.04 170.781 84.5097 170.781 59.1797C170.781 33.8497 191.311 13.3197 216.641 13.3197C241.971 13.3197 262.491 33.8497 262.491 59.1797Z" fill="#21292D"/>
<path d="M262.491 59.1797H216.641V13.3197C241.951 13.3197 262.491 33.8497 262.491 59.1797Z" fill="#6D8A96"/>
<path d="M239.561 305.85H164.091V237.81H166.761V303.18H239.561V305.85Z" fill="white"/>
<path d="M232.781 258.39L231.961 252.38L225.951 253.2L223.751 256.1L227.991 255.52L212.991 275.25L197.861 261.57L176.751 292L178.831 293.44L198.291 265.37L213.341 278.98L230.001 257.05L230.581 261.29L232.781 258.39Z" fill="white"/>
<g style="mix-blend-mode:multiply" opacity="0.3">
<path d="M11.9912 268.81C-2.28878 278 19.4112 318.61 35.1112 315.68C50.8212 312.75 26.1112 259.73 11.9912 268.81Z" fill="#CED8D6"/>
</g>
<g style="mix-blend-mode:multiply" opacity="0.3">
<path d="M6.69123 262.94C-0.778772 266.43 -9.63877 251.55 -0.148772 247.21C9.34123 242.87 16.6212 258.31 6.69123 262.94Z" fill="#CED8D6"/>
</g>
<path d="M187.261 397.2H141.311C139.421 391.03 141.311 382.37 141.311 382.37L140.571 374.23L139.741 365.16L157.301 363.06L158.681 368.83L160.831 377.91C163.161 380.03 178.451 383.33 182.291 387.18C186.141 391.03 187.271 397.19 187.271 397.19L187.261 397.2Z" fill="#F6B68E"/>
<path d="M158.671 368.84C153.371 372.67 144.951 373.87 140.571 374.23L139.741 365.16L157.301 363.06L158.681 368.83L158.671 368.84Z" fill="#C4764B"/>
<path d="M119.871 397.2H73.9212C72.0312 391.03 73.9212 382.37 73.9212 382.37L74.6112 376.21L75.3312 369.74L93.8812 366.77L93.6212 373.26L93.4312 377.91C95.7612 380.03 111.051 383.33 114.891 387.18C118.741 391.03 119.871 397.19 119.871 397.19V397.2Z" fill="#F6B68E"/>
<path d="M75.3312 369.74L93.8812 366.77L93.6212 373.26C86.2712 375.67 78.7812 376.16 74.6112 376.2L75.3312 369.73V369.74Z" fill="#C4764B"/>
<path d="M77.4812 225.55L75.4812 296.41L72.1612 370.06C72.1612 370.06 85.1712 374.05 96.0812 369.01L105.731 297.67L113.701 252.97L124.401 297.25L136.991 367.34C136.991 367.34 150.211 369.86 159.651 363.98L151.891 289.49L143.921 221.5L77.4712 225.56L77.4812 225.55Z" fill="#2C373C"/>
<path d="M124.451 72.1397C124.451 72.1397 129.201 69.2697 128.701 64.0197C128.201 58.7697 122.081 58.2697 119.961 55.6497C117.841 53.0297 114.851 47.9097 106.851 47.9097C98.8512 47.9097 93.4812 53.1597 93.9812 57.6497C93.9812 57.6497 87.1112 56.2797 84.2412 61.3997C81.3712 66.5197 83.9912 71.5197 82.8712 73.8897C81.7512 76.2597 81.7512 82.3797 84.9912 85.8797C88.2412 89.3797 86.1112 92.2497 89.7412 96.6197C93.3712 100.99 98.5112 100.12 98.5112 100.12L124.461 72.1397H124.451Z" fill="#051419"/>
<path d="M210.411 103.6C210.071 105.02 205.811 107.56 202.161 109.52C199.321 111.03 196.841 112.19 196.841 112.19L189.011 106.19L190.751 103.28L191.421 102.15C191.421 102.15 193.181 87.9997 194.881 86.7397C196.581 85.4897 197.891 87.0997 198.211 88.7197C198.531 90.3297 198.531 94.2897 198.531 94.2897C198.531 94.2897 201.541 89.7497 201.591 89.6097C201.641 89.4697 204.471 81.0397 206.081 80.8997C207.691 80.7597 208.051 81.7897 208.141 82.8297C208.231 83.8697 207.071 88.8497 207.071 88.8497C207.071 88.8497 209.751 91.0897 209.891 92.0297C210.031 92.9797 211.031 101.07 210.431 103.59L210.411 103.6Z" fill="#F6B68E"/>
<path d="M202.161 109.52C199.321 111.03 196.841 112.19 196.841 112.19L189.011 106.19L190.751 103.28C193.551 103.84 199.051 105.42 202.161 109.52Z" fill="#C4764B"/>
<path d="M131.901 110.73L159.321 135.46L187.371 105.03C187.371 105.03 195.131 104.75 198.691 113.36C198.691 113.36 172.891 147.42 161.141 154.97L138.501 147.76C138.501 147.76 131.411 130.48 131.901 110.73Z" fill="#6D8A96"/>
<path d="M125.201 95.2497C124.871 95.7497 124.481 96.1897 124.041 96.5597H124.031C121.161 99.0297 116.461 98.7497 116.461 98.7497L116.861 103.01L117.461 109.49C117.461 109.49 115.961 113.87 109.091 113.74C102.221 113.61 98.2312 109.12 98.2312 109.12L98.8512 88.7597C98.8512 88.7597 96.1012 87.8797 95.6012 85.7697C95.1012 83.6497 93.9812 79.5197 95.6012 79.0197C97.2212 78.5197 99.7212 79.1397 100.351 81.0197L100.971 84.0097L103.211 83.8897C103.211 83.8897 102.721 79.0197 104.221 77.1397C105.711 75.2597 111.331 73.6397 111.331 69.1497C111.331 69.1497 116.701 75.2597 124.451 72.1397C124.451 72.1397 127.701 91.3797 125.201 95.2497Z" fill="#F6B68E"/>
<path d="M145.331 199.11C144.811 202.44 144.211 205.63 143.661 208.31C142.741 212.81 141.971 215.9 141.971 215.9C141.971 215.9 117.611 223.3 88.0912 218.46C85.6712 218.08 83.2012 217.59 80.7012 217.02C80.7012 217.02 79.2312 214.58 77.5812 211.64C75.4612 207.9 73.0112 203.32 72.8612 201.91C72.6812 200.23 76.5912 161.51 79.2212 135.83C80.5412 122.95 81.5412 113.36 81.5412 113.36C81.5412 113.36 86.3212 108.41 95.2712 105.5C96.2512 105.17 97.2812 104.87 98.3512 104.62C98.3512 104.62 102.951 111.87 110.471 110.56C118.001 109.26 117.161 106.41 117.161 106.41L116.951 104.1C116.951 104.1 118.161 104.49 119.901 105.14C123.561 106.48 129.621 108.86 131.901 110.73C131.901 110.73 146.731 190.16 145.331 199.11Z" fill="#6D8A96"/>
<path d="M87.6512 178.78L83.6012 203.06L87.6512 213.65L88.0912 218.46L88.9712 228.18H88.9612C84.5212 227.55 80.7812 226.62 77.4812 225.55C77.4812 225.55 72.9212 218.3 77.5812 211.64C75.4612 207.9 73.0112 203.32 72.8612 201.91C72.6812 200.23 76.5912 161.51 79.2212 135.83L83.6112 133.57V153.22H115.921V160.91L87.6612 178.77L87.6512 178.78Z" fill="#576E78"/>
<path d="M143.931 221.49C143.931 221.49 137.211 226.55 117.491 228.38C105.291 229.51 96.1912 229.23 88.9712 228.18H88.9612C84.5212 227.55 80.7812 226.62 77.4812 225.55C77.4812 225.55 72.9212 218.3 77.5812 211.64C77.5812 211.64 80.7612 212.81 87.6512 213.65C93.2112 214.33 101.201 214.79 111.891 214.23C135.811 212.97 143.651 208.32 143.651 208.32C143.651 208.32 147.351 214.3 143.921 221.5L143.931 221.49Z" fill="#6D8A96"/>
<path d="M88.9712 228.18H88.9612C84.5212 227.55 80.7812 226.62 77.4812 225.55C77.4812 225.55 72.9212 218.3 77.5812 211.64C77.5812 211.64 80.7612 212.81 87.6512 213.65L88.0912 218.46L88.9712 228.18Z" fill="#576E78"/>
<path d="M126.621 144.8C126.201 145.74 125.681 148.78 125.041 150.46C124.421 152.13 120.951 154.96 119.271 155.92C117.651 156.83 112.201 157.74 109.421 157.8C109.321 157.81 109.231 157.81 109.131 157.81H102.901L99.8612 146.37C99.8612 146.37 103.841 143.33 105.311 142.18C106.781 141.02 110.241 138.19 112.241 137.88C114.051 137.6 116.131 137.83 116.491 137.87L115.591 140.43V140.46C115.551 140.76 115.311 142.73 115.701 143.06C116.121 143.39 119.591 143.5 121.061 142.89C122.531 142.29 126.411 139.98 127.251 140.93C128.091 141.87 127.041 143.87 126.621 144.81V144.8Z" fill="#F6B68E"/>
<path d="M154.281 130L137.911 169.31L106.441 166.23L109.421 157.8C112.201 157.75 117.651 156.83 119.271 155.92C120.951 154.97 124.421 152.13 125.041 150.46C125.671 148.78 126.201 145.74 126.621 144.8C127.041 143.86 128.091 141.86 127.251 140.92C126.411 139.98 122.531 142.28 121.061 142.88C119.591 143.49 116.121 143.38 115.701 143.05C115.311 142.73 115.551 140.75 115.581 140.45V140.42L116.491 137.86L122.101 122.03L154.281 130Z" fill="#F4F4F4"/>
<path d="M81.5412 113.36C81.5412 113.36 61.4712 147.84 61.2612 167.15C61.2612 167.15 62.3112 171.77 70.2812 172.4C78.2512 173.03 104.061 159.18 104.061 159.18C104.061 159.18 105.321 148.69 100.491 144.91L80.6612 150.68C80.6612 150.68 87.5512 123.58 81.5312 113.37L81.5412 113.36Z" fill="#6D8A96"/>
<path d="M110.451 114.68C101.571 115.62 95.2712 105.49 95.2712 105.49C96.2512 105.17 97.2812 104.87 98.3512 104.61C98.3512 104.61 102.951 111.86 110.471 110.55C118.001 109.25 117.161 106.41 117.161 106.41L116.951 104.09C116.951 104.09 118.151 104.49 119.901 105.13C121.421 108.64 119.321 113.73 110.451 114.68Z" fill="#576E78"/>
<path d="M105.461 110.19L99.4512 119.02C99.4512 119.02 93.5712 113.03 92.7712 106.4L98.4212 103L105.471 110.18L105.461 110.19Z" fill="#F4F4F4"/>
<path d="M114.891 109.27L116.891 103.41L122.511 106.12C122.511 106.12 123.091 109.86 121.551 114.74L114.891 109.26V109.27Z" fill="#F4F4F4"/>
<path d="M113.711 252.97L122.741 242.9L117.271 267.71L113.711 252.97Z" fill="#21292D"/>
<path d="M80.6612 150.67L75.6312 157.81L87.6512 148.64L80.6612 150.67Z" fill="#576E78"/>
<path d="M116.461 98.7497L116.861 103.01C103.081 102.74 103.791 88.5297 103.791 88.5297C112.141 100.21 123.401 96.7797 124.041 96.5597C121.171 99.0297 116.471 98.7497 116.471 98.7497H116.461Z" fill="#C4764B"/>
<path d="M196.191 256.5L191.921 256.54L248.631 400.47H253.241L196.191 256.5Z" fill="#CED8D6"/>
<path d="M249.011 256.5L253.291 256.54L196.571 400.47H191.961L249.011 256.5Z" fill="#CED8D6"/>
<path d="M415.371 246.61H180.341V256.5H415.371V246.61Z" fill="#CED8D6"/>
<path d="M267.711 214.47C268.731 218.56 266.241 221.88 262.151 221.88C258.061 221.88 253.921 218.56 252.901 214.47C251.881 210.38 254.371 207.06 258.461 207.06C262.551 207.06 266.691 210.38 267.711 214.47Z" fill="#F4F4F4"/>
<path d="M10 136H32V155C32 156.105 31.1046 157 30 157H12C10.8954 157 10 156.105 10 155V136Z" fill="#0B0E0F"/>
</g>
<defs>
<clipPath id="clip0_1_17">
<rect width="304" height="376" fill="white"/>
</clipPath>
</defs>
</svg>
