<svg width="247" height="216" viewBox="0 0 247 216" fill="none" xmlns="http://www.w3.org/2000/svg">
<path d="M13.0564 74.4208L15.5462 60.8711H12.5525L13.7628 57.2004H21.2519L18.1347 74.4165H13.0564V74.4208Z" fill="#37907A"/>
<path d="M28.4692 74.8861C26.5179 74.8861 24.9914 74.2872 23.8898 73.0852C22.7882 71.8875 22.2349 70.2245 22.2349 68.1048C22.2349 66.6314 22.4572 65.1881 22.8969 63.7749C23.3365 62.3618 23.954 61.1383 24.7395 60.1C25.5299 59.0487 26.4784 58.2431 27.5849 57.6916C28.6915 57.1358 29.9018 56.8601 31.206 56.8601C33.1474 56.8601 34.6689 57.4676 35.7755 58.6782C36.882 59.8889 37.4304 61.5734 37.4304 63.7233C37.4304 65.2053 37.213 66.6271 36.7832 67.9971C36.3534 69.3671 35.7458 70.5648 34.9653 71.5945C34.1304 72.6932 33.1721 73.516 32.0902 74.0632C31.0084 74.6104 29.803 74.8818 28.4692 74.8818V74.8861ZM28.7557 71.2154C29.23 71.2154 29.6597 71.0345 30.05 70.6682C30.4403 70.3063 30.791 69.7549 31.0973 69.0182C31.5073 68.0359 31.8333 66.9631 32.0853 65.7955C32.3372 64.628 32.4607 63.5638 32.4607 62.6074C32.4607 61.9267 32.3273 61.414 32.0606 61.065C31.7938 60.7161 31.3937 60.5437 30.87 60.5437C30.3958 60.5437 29.971 60.7204 29.5955 61.0779C29.2201 61.4355 28.8644 61.9913 28.5285 62.7539C28.1382 63.6802 27.8221 64.7357 27.58 65.9248C27.3379 67.1139 27.2194 68.2039 27.2194 69.2034C27.2194 69.854 27.3528 70.3494 27.6146 70.6984C27.8764 71.0474 28.2568 71.2197 28.7557 71.2197V71.2154Z" fill="#37907A"/>
<path d="M47.4635 74.4209L50.6103 57.0369H55.9751L53.5644 70.2634H60.1544L59.4035 74.4209H47.4635Z" fill="#37907A"/>
<path d="M59.5961 74.4209L69.5749 57.0369H76.2439L80.4775 74.4209H75.0731L74.2679 71.1423H67.2976L65.3907 74.4209H59.5912H59.5961ZM69.3032 67.2734H73.5121L72.5982 63.2107C72.5093 62.8057 72.4401 62.4481 72.3957 62.1293C72.3512 61.8148 72.3216 61.5175 72.3117 61.2375C72.119 61.7114 71.9461 62.1293 71.7881 62.4912C71.63 62.8531 71.5065 63.1202 71.4126 63.2925L69.3032 67.2691V67.2734Z" fill="#37907A"/>
<path d="M81.5693 74.4209L84.7161 57.0369H90.0513L88.7026 64.305L96.2855 57.0369H103.177L93.3611 65.6233L100.139 74.4209H93.8353L88.2531 66.7607L86.865 74.4209H81.5693Z" fill="#37907A"/>
<path d="M101.31 74.4209L104.456 57.0369H109.821L108.581 63.7449H115.552L116.762 57.0369H122.141L118.985 74.4209H113.605L114.885 67.3208H107.939L106.66 74.4209H101.31Z" fill="#37907A"/>
<path d="M9.48972 96.0227L10.863 86.9494H8.52148L8.84752 84.7651H11.1644L11.6139 81.9647C11.8659 80.2457 12.3154 79.0566 12.9527 78.3888C13.5899 77.7253 14.5829 77.3936 15.9265 77.3936C16.3514 77.3936 16.7565 77.428 17.1368 77.4926C17.5172 77.5616 17.8927 77.665 18.2681 77.8072L17.9421 80.0173C17.5963 79.8924 17.2999 79.8019 17.0578 79.7459C16.8108 79.6899 16.5836 79.664 16.3761 79.664C15.8228 79.664 15.4078 79.8407 15.1361 80.194C14.8644 80.5472 14.6471 81.2667 14.4841 82.361L14.1185 84.7694H16.7466L16.4057 86.9537H13.7925L12.4191 96.027H9.49466L9.48972 96.0227Z" fill="white"/>
<path d="M24.9124 84.3515C26.918 84.3515 28.5186 84.8642 29.719 85.8895C30.9145 86.9149 31.5172 88.2807 31.5172 89.9911C31.5172 91.8824 30.8157 93.4377 29.4078 94.657C27.9999 95.8762 26.1968 96.4837 23.9886 96.4837C22.0176 96.4837 20.4466 95.9796 19.266 94.9758C18.0853 93.9719 17.4975 92.6321 17.4975 90.9647C17.4975 89.0174 18.1891 87.4276 19.5673 86.1954C20.9456 84.9633 22.7289 84.3472 24.9173 84.3472L24.9124 84.3515ZM24.9371 86.609C23.6379 86.609 22.5807 87.0183 21.7607 87.8326C20.9406 88.6469 20.5306 89.6938 20.5306 90.969C20.5306 91.9815 20.8369 92.7785 21.4544 93.3558C22.0719 93.9332 22.9166 94.2218 23.9886 94.2218C25.3422 94.2218 26.424 93.8341 27.2342 93.0586C28.0444 92.2831 28.4544 91.2362 28.4544 89.9221C28.4544 88.8709 28.1481 88.0523 27.5355 87.475C26.923 86.8977 26.0585 86.609 24.942 86.609H24.9371Z" fill="white"/>
<path d="M42.4099 87.0227C42.2123 86.8977 41.9949 86.7986 41.7627 86.7297C41.5306 86.6608 41.2836 86.6306 41.0217 86.6306C39.9794 86.6306 39.1544 86.9667 38.5567 87.6387C37.959 88.3108 37.5539 89.3491 37.3464 90.7493L36.5313 96.0227H33.6019L35.3062 84.7651H38.122L37.9046 86.2256C38.4134 85.6009 38.9667 85.1356 39.5743 84.8297C40.177 84.5238 40.8291 84.373 41.5306 84.373C41.8467 84.373 42.1629 84.4075 42.4692 84.4808C42.7754 84.554 43.0768 84.6617 43.3682 84.8125L42.4148 87.0227H42.4099Z" fill="white"/>
<path d="M54.7698 96.0227L57.1953 82.6756H52.7296L53.4903 78.6387H67.5693L66.8086 82.6756H62.5453L60.1198 96.0227H54.7698Z" fill="white"/>
<path d="M67.2285 96.0227L70.3752 78.6387H75.7401L74.5001 85.3467H81.4705L82.6808 78.6387H88.0604L84.9038 96.0227H79.5241L80.8036 88.9226H73.8579L72.5785 96.0227H67.2285Z" fill="white"/>
<path d="M95.1938 92.1538H101.359L100.662 96.0227H89.1719L92.3187 78.6387H103.809L103.088 82.6497H96.9228L96.4189 85.4889H102.139L101.473 89.263H95.7273L95.1938 92.1495V92.1538Z" fill="white"/>
<path d="M116.757 96.0227L113.096 78.6387H118.392L119.928 88.0179C120.017 88.5779 120.086 89.0691 120.126 89.4827C120.165 89.8963 120.195 90.2927 120.215 90.6632C120.378 90.0945 120.536 89.5732 120.689 89.1036C120.842 88.634 120.981 88.2376 121.099 87.9231L124.641 78.6387H129.556L130.999 88.0179C131.088 88.565 131.157 89.0476 131.196 89.4655C131.236 89.8834 131.266 90.284 131.285 90.6632C131.36 90.34 131.463 89.9781 131.607 89.5775C131.745 89.1768 131.962 88.6253 132.254 87.9231L136.27 78.6387H141.798L133.454 96.0227H127.995L126.632 87.936C126.543 87.3889 126.474 86.9063 126.429 86.4798C126.385 86.0576 126.355 85.6526 126.345 85.2735C126.192 85.7948 126.039 86.2902 125.891 86.7512C125.743 87.2122 125.599 87.6344 125.461 88.0179L122.438 96.0227H116.762H116.757Z" fill="white"/>
<path d="M140.869 96.0227L144.026 78.6387H149.46L146.303 96.0227H140.869Z" fill="white"/>
<path d="M150.655 96.0226L153.802 78.6386H159.888L164.097 87.2251C164.131 87.2983 164.191 87.4189 164.275 87.5913C164.739 88.5348 165.06 89.3577 165.243 90.0599V89.6205C165.243 89.306 165.263 88.9527 165.302 88.5692C165.342 88.1858 165.406 87.7205 165.485 87.1733L167.021 78.6343H172.347L169.2 96.0183H163.346L158.88 87.1733C158.554 86.5314 158.307 86.0015 158.139 85.5836C157.971 85.1657 157.828 84.7435 157.709 84.3256V84.8124C157.709 85.1269 157.695 85.4629 157.66 85.8162C157.63 86.1695 157.571 86.6391 157.492 87.2251L155.98 96.0226H150.655Z" fill="white"/>
<path d="M173.433 96.0226L176.58 78.6386H182.666L186.875 87.2251C186.91 87.2983 186.969 87.4189 187.053 87.5913C187.517 88.5348 187.839 89.3577 188.021 90.0599V89.6205C188.021 89.306 188.041 88.9527 188.081 88.5692C188.12 88.1858 188.184 87.7205 188.263 87.1733L189.8 78.6343H195.125L191.978 96.0183H186.124L181.659 87.1733C181.333 86.5314 181.086 86.0015 180.918 85.5836C180.75 85.1657 180.606 84.7435 180.488 84.3256V84.8124C180.488 85.1269 180.473 85.4629 180.438 85.8162C180.409 86.1695 180.349 86.6391 180.27 87.2251L178.759 96.0226H173.433Z" fill="white"/>
<path d="M202.229 92.1538H208.394L207.697 96.0227H196.207L199.354 78.6387H210.844L210.123 82.6497H203.958L203.454 85.4889H209.174L208.508 89.263H202.762L202.234 92.1495L202.229 92.1538Z" fill="white"/>
<path d="M216.703 96.0227H211.407L214.554 78.6387H219.865C221.46 78.6387 222.651 78.6861 223.431 78.7852C224.212 78.8842 224.889 79.0523 225.462 79.2892C226.469 79.7028 227.23 80.2801 227.749 81.0298C228.267 81.7794 228.524 82.6756 228.524 83.7182C228.524 85.1572 228.03 86.3635 227.047 87.3328C226.064 88.3022 224.706 88.9097 222.982 89.1553L227.828 96.0184H221.757L217.903 89.3793L216.703 96.0184V96.0227ZM218.407 86.5832H220.082C221.134 86.5832 221.944 86.3721 222.507 85.9542C223.071 85.5363 223.352 84.9288 223.352 84.1361C223.352 83.3907 223.09 82.8522 222.562 82.5162C222.033 82.1801 221.193 82.0121 220.028 82.0121H219.237L218.407 86.5832Z" fill="white"/>
<path d="M70.4938 116.345C70.9137 116.315 71.2891 116.293 71.6251 116.28C71.956 116.267 72.1833 116.259 72.3068 116.259H76.0859L75.4684 119.615H62.4861L69.8961 112.222C70.7704 111.339 71.3781 110.641 71.714 110.124C72.0499 109.607 72.2179 109.141 72.2179 108.723C72.2179 108.245 72.045 107.857 71.7041 107.569C71.3583 107.28 70.8989 107.134 70.3258 107.134C69.6145 107.134 69.0513 107.349 68.6413 107.784C68.2313 108.219 68.0189 108.823 68.004 109.589H63.8149C63.9582 107.81 64.6251 106.423 65.8107 105.432C66.9963 104.441 68.5771 103.946 70.5531 103.946C72.3809 103.946 73.8579 104.376 74.9793 105.242C76.1007 106.108 76.6639 107.233 76.6639 108.616C76.6639 109.585 76.3724 110.511 75.7944 111.408C75.2164 112.299 74.2284 113.316 72.8354 114.454L70.5037 116.341L70.4938 116.345Z" fill="#37907A"/>
<path d="M85.7386 119.619L88.5446 104.114H93.3314L91.1825 115.914H97.0611L96.3942 119.619H85.7436H85.7386Z" fill="#37907A"/>
<path d="M96.5573 119.619L105.459 104.114H111.412L115.191 119.619H110.369L109.653 116.694H103.434L101.734 119.619H96.5622H96.5573ZM105.217 113.243H108.971L108.156 109.62C108.077 109.258 108.013 108.939 107.974 108.654C107.934 108.37 107.909 108.107 107.899 107.862C107.732 108.284 107.573 108.659 107.43 108.978C107.287 109.301 107.178 109.538 107.094 109.693L105.212 113.243H105.217Z" fill="#37907A"/>
<path d="M116.159 119.619L118.965 104.114H123.727L122.527 110.598L129.29 104.114H135.435L126.676 111.774L132.723 119.623H127.101L122.122 112.79L120.882 119.623H116.159V119.619Z" fill="#37907A"/>
<path d="M133.77 119.619L136.576 104.114H141.363L140.256 110.098H146.476L147.558 104.114H152.355L149.539 119.619H144.742L145.883 113.286H139.688L138.547 119.619H133.775H133.77Z" fill="#37907A"/>
<path d="M160.93 119.619L161.899 114.29H160.535L160.866 112.463H162.23L162.358 111.739C162.373 111.679 162.393 111.584 162.417 111.464C162.585 110.494 162.827 109.835 163.148 109.486C163.445 109.159 163.83 108.909 164.299 108.728C164.769 108.547 165.283 108.461 165.846 108.461C166.108 108.461 166.379 108.487 166.661 108.534C166.947 108.586 167.244 108.659 167.55 108.762L167.184 110.809C167.026 110.744 166.873 110.692 166.715 110.658C166.562 110.623 166.419 110.606 166.29 110.606C165.969 110.606 165.732 110.692 165.569 110.869C165.411 111.046 165.287 111.364 165.208 111.825L165.085 112.463H166.888L166.557 114.29H164.769L163.81 119.619H160.925H160.93Z" fill="white"/>
<path d="M166.295 116.379C166.295 115.164 166.75 114.169 167.659 113.389C168.568 112.61 169.733 112.222 171.151 112.222C172.46 112.222 173.508 112.545 174.298 113.191C175.083 113.838 175.474 114.704 175.474 115.785C175.474 116.987 175.014 117.974 174.091 118.749C173.172 119.525 171.981 119.912 170.534 119.912C169.249 119.912 168.222 119.589 167.451 118.947C166.681 118.305 166.295 117.448 166.295 116.384V116.379ZM171.097 114.277C170.534 114.277 170.055 114.484 169.664 114.897C169.274 115.311 169.076 115.815 169.076 116.41C169.076 116.849 169.22 117.198 169.506 117.457C169.793 117.715 170.173 117.844 170.652 117.844C171.255 117.844 171.749 117.646 172.134 117.245C172.52 116.845 172.717 116.336 172.717 115.712C172.717 115.268 172.574 114.919 172.283 114.66C171.991 114.402 171.601 114.273 171.102 114.273L171.097 114.277Z" fill="white"/>
<path d="M175.805 119.619L177.104 112.463H179.88L179.678 113.682C179.935 113.23 180.275 112.885 180.7 112.648C181.13 112.411 181.629 112.295 182.197 112.295C182.256 112.295 182.326 112.295 182.4 112.304C182.474 112.312 182.592 112.325 182.755 112.351L182.177 114.596C181.99 114.557 181.817 114.531 181.664 114.51C181.51 114.492 181.367 114.479 181.224 114.479C180.666 114.479 180.226 114.63 179.905 114.936C179.584 115.242 179.362 115.712 179.243 116.349L178.66 119.615H175.8L175.805 119.619Z" fill="white"/>
<path d="M189.642 116.642V116.806C189.642 117.258 189.775 117.603 190.042 117.84C190.309 118.077 190.694 118.193 191.203 118.193C191.558 118.193 191.899 118.129 192.215 117.999C192.532 117.87 192.872 117.659 193.233 117.37L194.794 118.745C194.33 119.132 193.791 119.421 193.184 119.615C192.576 119.809 191.894 119.904 191.139 119.904C189.8 119.904 188.762 119.593 188.021 118.973C187.28 118.353 186.91 117.482 186.91 116.362C186.91 115.139 187.35 114.143 188.229 113.381C189.108 112.618 190.249 112.23 191.647 112.23C192.917 112.23 193.935 112.567 194.705 113.243C195.476 113.919 195.861 114.815 195.861 115.927C195.861 116.026 195.846 116.207 195.812 116.466C195.802 116.547 195.792 116.603 195.787 116.634H189.637L189.642 116.642ZM193.154 115.19C193.129 114.803 192.976 114.497 192.709 114.268C192.438 114.04 192.082 113.928 191.637 113.928C191.237 113.928 190.877 114.04 190.561 114.26C190.244 114.479 190.002 114.79 189.839 115.186H193.154V115.19Z" fill="white"/>
<path d="M202.54 118.663C202.145 119.064 201.705 119.369 201.221 119.572C200.737 119.779 200.213 119.878 199.655 119.878C198.711 119.878 197.941 119.568 197.333 118.952C196.731 118.331 196.429 117.53 196.429 116.543C196.429 115.307 196.839 114.277 197.654 113.463C198.474 112.644 199.492 112.235 200.717 112.235C201.285 112.235 201.794 112.338 202.244 112.545C202.693 112.752 203.098 113.066 203.464 113.497L203.651 112.463H206.398L205.099 119.619H202.402L202.54 118.663ZM199.349 116.298C199.349 116.754 199.507 117.125 199.828 117.405C200.149 117.685 200.569 117.823 201.097 117.823C201.671 117.823 202.15 117.629 202.53 117.237C202.91 116.845 203.103 116.358 203.103 115.772C203.103 115.328 202.945 114.966 202.624 114.691C202.303 114.415 201.888 114.277 201.374 114.277C200.791 114.277 200.307 114.467 199.922 114.85C199.541 115.233 199.349 115.716 199.349 116.298Z" fill="white"/>
<path d="M213.818 115.078C213.522 114.798 213.22 114.591 212.914 114.454C212.608 114.316 212.287 114.247 211.951 114.247C211.383 114.247 210.903 114.441 210.523 114.824C210.143 115.207 209.945 115.686 209.945 116.25C209.945 116.724 210.093 117.095 210.39 117.375C210.686 117.65 211.091 117.788 211.6 117.788C211.926 117.788 212.237 117.736 212.539 117.637C212.84 117.538 213.136 117.387 213.438 117.189L212.998 119.542C212.613 119.658 212.242 119.748 211.882 119.804C211.521 119.86 211.17 119.891 210.819 119.891C209.659 119.891 208.72 119.563 208.004 118.908C207.287 118.253 206.927 117.4 206.927 116.345C206.927 115.113 207.371 114.113 208.261 113.342C209.15 112.575 210.316 112.192 211.753 112.192C212.213 112.192 212.652 112.248 213.067 112.364C213.482 112.48 213.867 112.653 214.213 112.877L213.813 115.065L213.818 115.078Z" fill="white"/>
<path d="M214.45 119.619L216.466 108.637H219.311L218.58 112.493C218.546 112.683 218.511 112.868 218.471 113.049C218.432 113.23 218.383 113.411 218.328 113.583C218.778 113.109 219.222 112.769 219.667 112.558C220.112 112.347 220.596 112.239 221.119 112.239C221.969 112.239 222.631 112.437 223.095 112.838C223.565 113.238 223.797 113.794 223.797 114.514C223.797 114.759 223.747 115.169 223.649 115.737C223.644 115.789 223.639 115.832 223.634 115.867L222.952 119.623H220.052L220.734 115.832C220.754 115.724 220.774 115.617 220.788 115.513C220.803 115.41 220.808 115.319 220.808 115.246C220.808 114.936 220.714 114.699 220.522 114.54C220.334 114.38 220.052 114.298 219.687 114.298C219.183 114.298 218.788 114.458 218.506 114.772C218.22 115.087 218.017 115.595 217.893 116.289L217.311 119.628H214.45V119.619Z" fill="white"/>
<path d="M62.6491 130.334C62.6491 129.119 63.1036 128.124 64.0125 127.344C64.9215 126.564 66.0873 126.177 67.5051 126.177C68.8142 126.177 69.8664 126.5 70.6519 127.146C71.4373 127.792 71.8276 128.658 71.8276 129.739C71.8276 130.942 71.3682 131.928 70.4444 132.704C69.5256 133.479 68.335 133.867 66.8876 133.867C65.6032 133.867 64.5757 133.544 63.805 132.902C63.0344 132.26 62.6491 131.402 62.6491 130.338V130.334ZM67.4508 128.232C66.8876 128.232 66.4084 128.438 66.0182 128.852C65.6279 129.266 65.4303 129.77 65.4303 130.364C65.4303 130.804 65.5736 131.153 65.8601 131.411C66.1466 131.67 66.527 131.799 67.0062 131.799C67.6088 131.799 68.1028 131.601 68.4882 131.2C68.8735 130.799 69.0711 130.291 69.0711 129.666C69.0711 129.222 68.9278 128.874 68.6364 128.615C68.3449 128.357 67.9546 128.227 67.4557 128.227L67.4508 128.232Z" fill="white"/>
<path d="M72.5389 133.574L73.5072 128.244H72.1437L72.4747 126.418H73.8382L73.9666 125.694C73.9814 125.634 74.0012 125.539 74.0209 125.418C74.1889 124.449 74.431 123.79 74.7521 123.441C75.0485 123.113 75.4338 122.863 75.9031 122.682C76.3724 122.501 76.8861 122.415 77.4493 122.415C77.7111 122.415 77.9828 122.441 78.2644 122.489C78.5509 122.54 78.8473 122.613 79.1536 122.717L78.788 124.763C78.63 124.699 78.4768 124.647 78.3187 124.613C78.1656 124.578 78.0223 124.561 77.8939 124.561C77.5728 124.561 77.3357 124.647 77.1727 124.824C77.0146 125 76.8911 125.319 76.812 125.78L76.6885 126.418H78.4916L78.1607 128.244H76.3724L75.414 133.574H72.5291H72.5389Z" fill="white"/>
<path d="M82.6956 133.574L83.6638 128.244H82.3004L82.6314 126.418H83.9948L84.3604 124.341H87.2552L86.8748 126.418H88.3469L88.016 128.244H86.5438L85.5855 133.574H82.7005H82.6956Z" fill="white"/>
<path d="M87.4923 133.574L89.5079 122.592H92.3533L91.6222 126.448C91.5876 126.638 91.553 126.823 91.5135 127.004C91.474 127.185 91.4246 127.366 91.3702 127.538C91.8198 127.064 92.2644 126.724 92.709 126.513C93.1536 126.302 93.6377 126.194 94.1613 126.194C95.011 126.194 95.673 126.392 96.1423 126.793C96.6116 127.193 96.8438 127.749 96.8438 128.469C96.8438 128.714 96.7944 129.123 96.6956 129.692C96.6906 129.744 96.6857 129.787 96.6807 129.821L95.999 133.578H93.0992L93.781 129.787C93.8007 129.679 93.8205 129.572 93.8353 129.468C93.8501 129.365 93.8551 129.274 93.8551 129.201C93.8551 128.891 93.7612 128.654 93.5685 128.494C93.3808 128.335 93.0992 128.253 92.7337 128.253C92.2298 128.253 91.8346 128.413 91.553 128.727C91.2665 129.042 91.064 129.55 90.9405 130.244L90.3575 133.583H87.4973L87.4923 133.574Z" fill="white"/>
<path d="M100.326 130.597V130.76C100.326 131.213 100.46 131.558 100.727 131.794C100.993 132.031 101.379 132.148 101.887 132.148C102.243 132.148 102.584 132.083 102.9 131.954C103.216 131.825 103.557 131.614 103.918 131.325L105.479 132.699C105.015 133.087 104.476 133.376 103.868 133.569C103.261 133.763 102.579 133.858 101.823 133.858C100.485 133.858 99.4471 133.548 98.7061 132.928C97.9651 132.307 97.5946 131.437 97.5946 130.317C97.5946 129.093 98.0343 128.098 98.9136 127.335C99.7929 126.568 100.934 126.185 102.332 126.185C103.602 126.185 104.619 126.521 105.39 127.198C106.161 127.874 106.546 128.77 106.546 129.882C106.546 129.981 106.531 130.162 106.497 130.42C106.487 130.502 106.477 130.558 106.472 130.588H100.322L100.326 130.597ZM103.839 129.145C103.814 128.757 103.661 128.451 103.394 128.223C103.122 127.995 102.767 127.883 102.322 127.883C101.922 127.883 101.561 127.995 101.245 128.214C100.929 128.434 100.687 128.744 100.524 129.141H103.839V129.145Z" fill="white"/>
<path d="M111.743 133.574L112.711 128.244H111.348L111.679 126.418H113.042L113.408 124.341H116.302L115.922 126.418H117.394L117.063 128.244H115.591L114.633 133.574H111.748H111.743Z" fill="white"/>
<path d="M116.678 130.334C116.678 129.119 117.132 128.124 118.041 127.344C118.95 126.564 120.116 126.177 121.534 126.177C122.843 126.177 123.895 126.5 124.681 127.146C125.466 127.792 125.856 128.658 125.856 129.739C125.856 130.942 125.397 131.928 124.473 132.704C123.554 133.479 122.364 133.867 120.916 133.867C119.632 133.867 118.604 133.544 117.834 132.902C117.063 132.26 116.678 131.402 116.678 130.338V130.334ZM121.48 128.232C120.916 128.232 120.437 128.438 120.047 128.852C119.657 129.266 119.459 129.77 119.459 130.364C119.459 130.804 119.602 131.153 119.889 131.411C120.175 131.67 120.556 131.799 121.035 131.799C121.638 131.799 122.132 131.601 122.517 131.2C122.902 130.799 123.1 130.291 123.1 129.666C123.1 129.222 122.957 128.874 122.665 128.615C122.374 128.357 121.983 128.227 121.484 128.227L121.48 128.232Z" fill="white"/>
<path d="M125.758 136.736L127.635 126.418H130.367L130.189 127.409C130.594 127.004 131.038 126.698 131.523 126.495C132.007 126.293 132.52 126.189 133.064 126.189C134.012 126.189 134.788 126.5 135.386 127.116C135.983 127.732 136.29 128.533 136.29 129.515C136.29 130.752 135.88 131.782 135.065 132.6C134.249 133.419 133.227 133.824 131.997 133.824C131.444 133.824 130.945 133.72 130.495 133.518C130.05 133.311 129.626 132.997 129.23 132.566C129.23 132.794 129.225 133.001 129.211 133.195C129.196 133.389 129.176 133.552 129.151 133.695L128.613 136.741H125.753L125.758 136.736ZM133.316 129.834C133.316 129.378 133.153 129.007 132.832 128.727C132.511 128.447 132.091 128.309 131.567 128.309C130.989 128.309 130.505 128.503 130.125 128.891C129.744 129.279 129.551 129.765 129.551 130.351C129.551 130.795 129.71 131.153 130.031 131.424C130.352 131.695 130.767 131.833 131.28 131.833C131.868 131.833 132.357 131.644 132.738 131.269C133.118 130.894 133.311 130.416 133.311 129.834H133.316Z" fill="white"/>
<path d="M142.43 133.574L143.917 125.487H142.129L142.85 123.299H147.321L145.458 133.574H142.43Z" fill="white"/>
<path d="M153.407 133.85C152.241 133.85 151.332 133.492 150.675 132.777C150.018 132.062 149.687 131.071 149.687 129.804C149.687 128.925 149.82 128.064 150.082 127.219C150.344 126.375 150.714 125.647 151.184 125.026C151.653 124.397 152.221 123.919 152.883 123.587C153.545 123.256 154.266 123.092 155.047 123.092C156.208 123.092 157.117 123.454 157.774 124.177C158.431 124.901 158.762 125.905 158.762 127.189C158.762 128.072 158.633 128.921 158.376 129.74C158.12 130.558 157.759 131.273 157.29 131.885C156.791 132.54 156.218 133.035 155.575 133.359C154.928 133.686 154.212 133.845 153.412 133.845L153.407 133.85ZM153.58 131.661C153.861 131.661 154.118 131.553 154.35 131.334C154.582 131.118 154.79 130.786 154.978 130.347C155.22 129.761 155.417 129.119 155.566 128.421C155.714 127.723 155.788 127.09 155.788 126.517C155.788 126.112 155.709 125.802 155.546 125.595C155.388 125.388 155.151 125.285 154.834 125.285C154.553 125.285 154.301 125.392 154.074 125.604C153.846 125.815 153.634 126.151 153.436 126.603C153.204 127.155 153.017 127.788 152.873 128.494C152.73 129.201 152.656 129.856 152.656 130.45C152.656 130.838 152.735 131.135 152.893 131.342C153.051 131.549 153.278 131.652 153.575 131.652L153.58 131.661Z" fill="white"/>
<path d="M164.709 130.002C165.208 130.472 165.683 130.812 166.137 131.023C166.592 131.234 167.056 131.342 167.54 131.342C167.94 131.342 168.261 131.256 168.498 131.088C168.736 130.92 168.854 130.691 168.854 130.416C168.854 130.037 168.37 129.627 167.407 129.188C167.313 129.145 167.244 129.115 167.189 129.089C166.251 128.662 165.609 128.253 165.263 127.861C164.917 127.469 164.744 126.991 164.744 126.431C164.744 125.405 165.139 124.565 165.935 123.915C166.73 123.264 167.753 122.937 169.002 122.937C169.664 122.937 170.297 123.04 170.909 123.242C171.522 123.445 172.095 123.746 172.638 124.143L171.275 126.189C170.845 125.866 170.455 125.629 170.104 125.474C169.753 125.319 169.427 125.241 169.131 125.241C168.805 125.241 168.533 125.323 168.321 125.487C168.103 125.651 167.995 125.849 167.995 126.086C167.995 126.379 168.4 126.706 169.215 127.073C169.501 127.202 169.724 127.305 169.882 127.383C170.717 127.783 171.295 128.193 171.621 128.611C171.947 129.028 172.11 129.55 172.11 130.179C172.11 131.29 171.67 132.178 170.786 132.841C169.901 133.505 168.701 133.837 167.184 133.837C166.389 133.837 165.643 133.69 164.952 133.393C164.26 133.096 163.633 132.66 163.074 132.079L164.724 130.002H164.709Z" fill="white"/>
<path d="M172.781 133.574L173.75 128.244H172.386L172.717 126.418H174.081L174.446 124.341H177.341L176.961 126.418H178.433L178.102 128.244H176.63L175.671 133.574H172.786H172.781Z" fill="white"/>
<path d="M183.99 132.617C183.595 133.018 183.155 133.324 182.671 133.527C182.187 133.733 181.664 133.832 181.105 133.832C180.162 133.832 179.391 133.522 178.784 132.906C178.181 132.286 177.88 131.484 177.88 130.498C177.88 129.261 178.29 128.232 179.105 127.417C179.925 126.599 180.942 126.189 182.167 126.189C182.736 126.189 183.244 126.293 183.694 126.5C184.143 126.706 184.549 127.021 184.914 127.452L185.102 126.418H187.848L186.549 133.574H183.852L183.99 132.617ZM180.799 130.252C180.799 130.709 180.957 131.079 181.278 131.359C181.599 131.639 182.019 131.777 182.548 131.777C183.121 131.777 183.6 131.583 183.98 131.191C184.361 130.799 184.553 130.313 184.553 129.727C184.553 129.283 184.395 128.921 184.074 128.645C183.753 128.369 183.338 128.232 182.824 128.232C182.242 128.232 181.757 128.421 181.372 128.805C180.992 129.188 180.799 129.671 180.799 130.252Z" fill="white"/>
<path d="M188.13 133.574L189.429 126.418H192.205L192.003 127.637C192.26 127.185 192.601 126.84 193.026 126.603C193.455 126.366 193.954 126.25 194.522 126.25C194.582 126.25 194.651 126.25 194.725 126.258C194.799 126.267 194.918 126.28 195.081 126.306L194.503 128.55C194.315 128.512 194.142 128.486 193.989 128.464C193.836 128.447 193.692 128.434 193.549 128.434C192.991 128.434 192.551 128.585 192.23 128.891C191.909 129.197 191.687 129.666 191.568 130.304L190.985 133.57H188.125L188.13 133.574Z" fill="white"/>
<path d="M194.903 133.574L195.871 128.244H194.508L194.839 126.418H196.202L196.568 124.341H199.462L199.082 126.418H200.554L200.223 128.244H198.751L197.793 133.574H194.908H194.903Z" fill="white"/>
<path d="M200.851 126.418H203.726L203.192 129.382C203.128 129.774 203.074 130.101 203.039 130.364C202.999 130.627 202.98 130.799 202.98 130.877C202.98 131.217 203.074 131.476 203.261 131.657C203.449 131.838 203.721 131.924 204.076 131.924C204.911 131.924 205.474 131.101 205.766 129.451C205.781 129.36 205.795 129.291 205.805 129.244L206.319 126.418H209.204L208.621 129.658L208.596 129.808C208.31 131.342 207.86 132.368 207.258 132.885C206.872 133.208 206.403 133.449 205.85 133.613C205.297 133.776 204.669 133.858 203.968 133.858C202.757 133.858 201.809 133.621 201.112 133.143C200.416 132.665 200.07 132.019 200.07 131.2C200.07 131.01 200.09 130.773 200.129 130.489C200.169 130.205 200.243 129.761 200.357 129.166L200.86 126.422L200.851 126.418Z" fill="white"/>
<path d="M208.883 136.736L210.76 126.418H213.492L213.314 127.409C213.719 127.004 214.164 126.698 214.648 126.495C215.132 126.293 215.646 126.189 216.189 126.189C217.138 126.189 217.913 126.5 218.511 127.116C219.109 127.732 219.415 128.533 219.415 129.515C219.415 130.752 219.005 131.782 218.19 132.6C217.375 133.419 216.352 133.824 215.122 133.824C214.569 133.824 214.07 133.72 213.62 133.518C213.176 133.311 212.751 132.997 212.356 132.566C212.356 132.794 212.351 133.001 212.336 133.195C212.321 133.389 212.301 133.552 212.277 133.695L211.738 136.741H208.878L208.883 136.736ZM216.441 129.834C216.441 129.378 216.278 129.007 215.957 128.727C215.636 128.447 215.216 128.309 214.692 128.309C214.114 128.309 213.63 128.503 213.25 128.891C212.87 129.279 212.677 129.765 212.677 130.351C212.677 130.795 212.835 131.153 213.156 131.424C213.477 131.695 213.892 131.833 214.406 131.833C214.994 131.833 215.483 131.644 215.863 131.269C216.244 130.894 216.436 130.416 216.436 129.834H216.441Z" fill="white"/>
<path d="M226.736 126.943L225.891 128.55C225.516 128.318 225.175 128.15 224.859 128.042C224.543 127.934 224.232 127.883 223.925 127.883C223.663 127.883 223.451 127.934 223.278 128.038C223.105 128.141 223.021 128.27 223.021 128.421C223.021 128.637 223.303 128.843 223.866 129.029C224.113 129.11 224.311 129.179 224.449 129.235C225.234 129.533 225.783 129.843 226.099 130.162C226.415 130.481 226.568 130.877 226.568 131.355C226.568 132.105 226.237 132.708 225.57 133.165C224.903 133.621 224.014 133.85 222.903 133.85C222.275 133.85 221.673 133.776 221.105 133.634C220.531 133.492 219.978 133.272 219.445 132.979L220.413 131.265C220.966 131.562 221.431 131.773 221.801 131.894C222.172 132.014 222.527 132.079 222.858 132.079C223.145 132.079 223.377 132.023 223.55 131.911C223.723 131.799 223.812 131.657 223.812 131.48C223.812 131.213 223.412 130.933 222.616 130.653C222.379 130.567 222.191 130.502 222.063 130.455C221.431 130.209 220.981 129.942 220.714 129.653C220.448 129.365 220.314 129.007 220.314 128.576C220.314 127.891 220.64 127.323 221.297 126.87C221.954 126.418 222.794 126.189 223.826 126.189C224.345 126.189 224.854 126.254 225.348 126.379C225.842 126.504 226.306 126.694 226.736 126.939V126.943Z" fill="white"/>
</svg>
