<?xml version="1.0" encoding="UTF-8"?>
<svg id="Layer_1" data-name="Layer 1" xmlns="http://www.w3.org/2000/svg" viewBox="0 0 1588.16 486.51">
  <defs>
    <style>
      .cls-1 {
        fill: #38917a;
      }

      .cls-2 {
        fill: #fff;
      }

      .cls-3 {
        fill: #389179;
      }

      .cls-4 {
        stroke: #389078;
        stroke-width: 4px;
      }

      .cls-4, .cls-5, .cls-6 {
        fill: none;
        stroke-miterlimit: 10;
      }

      .cls-5 {
        stroke: #37917a;
      }

      .cls-5, .cls-6 {
        stroke-width: 3px;
      }

      .cls-6 {
        stroke: #389179;
      }
    </style>
  </defs>
  <g>
    <path class="cls-2" d="m261.07,147.08v-3.44l5.55-.93v5.89h26.61v-13.93h-25.52c-2.35,0-3.91-.5-4.69-1.51-.59-.77-.88-2.15-.88-4.13v-11.39c0-1.9.42-3.19,1.27-3.87.84-.68,2.25-1.02,4.21-1.02h25.21c2.36,0,3.87.39,4.54,1.17.67.78,1,2.39,1,4.84v2.68l-5.55.87v-4.66h-25.13v12.12h25.61c2.28,0,3.85.51,4.71,1.52.63.82.94,2.18.94,4.08l-.18,1.87v11.37c0,1.71-.47,2.97-1.41,3.79-.94.74-2.3,1.11-4.06,1.11h-26.74c-2.43,0-3.96-.44-4.57-1.31-.61-.87-.91-2.57-.91-5.1Z"/>
    <path class="cls-2" d="m322.01,112.75v17.49h29.5v-17.49h5.55v40.74h-5.55v-18.07h-29.5v18.07h-5.55v-40.74h5.55Z"/>
    <path class="cls-2" d="m409.38,112.75v4.9h-29.2v12.41h17.23v4.9h-17.23v13.64h29.44v4.9h-34.98v-40.74h34.75Z"/>
    <path class="cls-2" d="m431.91,112.75v40.74h-5.55v-40.74h5.55Z"/>
    <path class="cls-2" d="m455.09,112.75v18.65l23.48-18.65h7.85s-24.78,19.99-24.78,19.99l27.84,20.75-9.54-.03-24.85-18.52v18.55h-5.55v-40.74h5.55Z"/>
    <path class="cls-2" d="m510.49,112.75v17.49h29.5v-17.49h5.55v40.74h-5.55v-18.07h-29.5v18.07h-5.55v-40.74h5.55Z"/>
    <path class="cls-2" d="m588.65,135.71v13h19.7v-35.96h5.55v35.96c0,1.67-.48,2.91-1.45,3.71-.96.8-2.33,1.2-4.1,1.2h-20.65c-3.07,0-4.6-1.5-4.6-4.49v-12.47l5.55-.94Z"/>
    <path class="cls-2" d="m652.66,112.75l21.06,40.74h-6.09s-5.5-10.38-5.5-10.38h-22.94l-5.51,10.38h-6.03s21.12-40.75,21.12-40.75h3.89Zm7.01,25.47l-9.02-17.71-8.98,17.71h18Z"/>
    <path class="cls-2" d="m694.24,112.75l17.64,27.16,17.76-27.16h5.07v40.74h-5.55v-30.35l-17.34,26.3-17.12-26.36v30.41h-5.55v-40.74h5.07Z"/>
    <path class="cls-2" d="m774.59,112.75l21.06,40.74h-6.09s-5.5-10.38-5.5-10.38h-22.94l-5.51,10.38h-6.03s21.12-40.75,21.12-40.75h3.89Zm7,25.47l-9.02-17.71-8.98,17.71h18Z"/>
    <path class="cls-2" d="m816.65,112.75v35.85h27.49v4.9h-33.04v-40.74h5.55Z"/>
  </g>
  <g>
    <path class="cls-1" d="m53.54,300.94v-92.33h21.75v92.33h-21.75Z"/>
    <path class="cls-1" d="m85.74,300.94v-92.33h14.85l65.78,54.42c2.24,1.81,4.21,3.51,5.92,5.11,1.71,1.6,3.27,3.25,4.69,4.94-.35-5.18-.59-8.85-.71-11.01-.12-2.15-.18-3.81-.18-4.98v-48.48h19.54v92.33h-14.85l-68.61-57.04c-1.65-1.46-3.09-2.77-4.33-3.93-1.24-1.16-2.39-2.36-3.45-3.58.29,2.85.52,5.55.66,8.08.15,2.53.22,4.73.22,6.59v49.88h-19.54Z"/>
    <path class="cls-1" d="m205.99,300.94v-92.33h14.85l65.78,54.42c2.24,1.81,4.21,3.51,5.92,5.11,1.71,1.6,3.27,3.25,4.69,4.94-.35-5.18-.59-8.85-.71-11.01-.12-2.15-.18-3.81-.18-4.98v-48.48h19.54v92.33h-14.85l-68.61-57.04c-1.65-1.46-3.09-2.77-4.33-3.93-1.24-1.16-2.39-2.36-3.45-3.58.29,2.85.52,5.55.66,8.08.15,2.53.22,4.73.22,6.59v49.88h-19.54Z"/>
    <path class="cls-1" d="m342.59,230.45c0-8.39,1.59-14.12,4.77-17.21,3.18-3.09,9.31-4.63,18.39-4.63h68.78c9.08,0,15.21,1.54,18.39,4.63,3.18,3.09,4.77,8.82,4.77,17.21v48.66c0,8.45-1.59,14.2-4.77,17.25-3.18,3.06-9.31,4.59-18.39,4.59h-68.78c-9.08,0-15.21-1.53-18.39-4.59-3.18-3.06-4.77-8.81-4.77-17.25v-48.66Zm21.75,53.11h71.7v-58.44h-71.7v58.44Z"/>
    <path class="cls-1" d="m516.05,300.94l-54.02-92.33h24.84l37.84,66.74,36.07-66.74h21.66l-51.37,92.33h-15.03Z"/>
    <path class="cls-1" d="m549.94,300.94l52.87-92.33h20.95l53.58,92.33h-24.4l-11.23-20.18h-59.24l-10.87,20.18h-21.66Zm41.82-36.86h40.93l-20.16-37.56-20.78,37.56Z"/>
    <path class="cls-1" d="m712.34,225.12v75.82h-21.75v-75.82h-42.88v-16.51h107.69v16.51h-43.06Z"/>
    <path class="cls-1" d="m762.99,300.94v-92.33h21.75v92.33h-21.75Z"/>
    <path class="cls-1" d="m797.04,230.45c0-8.39,1.59-14.12,4.77-17.21,3.18-3.09,9.31-4.63,18.39-4.63h68.78c9.08,0,15.21,1.54,18.39,4.63,3.18,3.09,4.77,8.82,4.77,17.21v48.66c0,8.45-1.59,14.2-4.77,17.25-3.18,3.06-9.31,4.59-18.39,4.59h-68.78c-9.08,0-15.21-1.53-18.39-4.59-3.18-3.06-4.77-8.81-4.77-17.25v-48.66Zm21.75,53.11h71.7v-58.44h-71.7v58.44Z"/>
    <path class="cls-1" d="m924.28,300.94v-92.33h14.85l65.78,54.42c2.24,1.81,4.21,3.51,5.92,5.11,1.71,1.6,3.27,3.25,4.69,4.94-.35-5.18-.59-8.85-.71-11.01-.12-2.15-.18-3.81-.18-4.98v-48.48h19.54v92.33h-14.85l-68.61-57.04c-1.65-1.46-3.09-2.77-4.33-3.93-1.24-1.16-2.39-2.36-3.45-3.58.29,2.85.52,5.55.66,8.08.15,2.53.22,4.73.22,6.59v49.88h-19.54Z"/>
  </g>
  <g>
    <path class="cls-2" d="m316.4,354.32h-75.27v64.79h75.27v-22.76h-39.4v-17.43h62.82v35.25c0,9.36-1.76,15.74-5.29,19.12-3.53,3.39-10.32,5.08-20.39,5.08h-71.45c-10.06,0-16.86-1.69-20.39-5.08-3.53-3.39-5.29-9.76-5.29-19.12v-53.94c0-9.3,1.76-15.66,5.29-19.08,3.53-3.42,10.32-5.13,20.39-5.13h71.45c9.93,0,16.69,1.68,20.29,5.04,3.59,3.36,5.39,9.43,5.39,18.21v2.32l-23.42,4.16v-11.43Z"/>
    <path class="cls-2" d="m369.72,438.37v-102.36h88.6c8.23,0,14.19,1.57,17.89,4.7,3.69,3.13,5.54,8.18,5.54,15.16v24.02c0,6.91-1.85,11.94-5.54,15.11-3.69,3.16-9.65,4.74-17.89,4.74h-13.52l47.83,38.64h-34.6l-41.75-38.64h-22.84v38.64h-23.72Zm77.92-84.64h-54.2v28.47h54.2c4.18,0,7.04-.6,8.58-1.79,1.53-1.19,2.3-3.31,2.3-6.34v-12.3c0-2.97-.77-5.05-2.3-6.25-1.54-1.19-4.39-1.79-8.58-1.79Z"/>
    <path class="cls-2" d="m482.62,438.37l58.61-102.36h23.23l59.39,102.36h-27.05l-12.45-22.37h-65.67l-12.06,22.37h-24.01Zm46.36-40.86h45.38l-22.35-41.64-23.03,41.64Z"/>
    <path class="cls-2" d="m635.9,438.37v-102.36h16.47l72.92,60.33c2.48,2,4.67,3.89,6.57,5.66,1.89,1.78,3.63,3.6,5.19,5.47-.39-5.75-.65-9.81-.79-12.2-.13-2.39-.2-4.23-.2-5.52v-53.75h21.66v102.36h-16.47l-76.06-63.23c-1.83-1.61-3.43-3.06-4.8-4.36-1.37-1.29-2.65-2.61-3.82-3.97.33,3.16.57,6.15.74,8.96.16,2.81.24,5.25.24,7.31v55.29h-21.66Z"/>
    <path class="cls-2" d="m837.69,354.32v84.06h-24.11v-84.06h-47.53v-18.3h119.37v18.3h-47.73Z"/>
  </g>
  <path class="cls-1" d="m1169.13,486.51l-223.93-1.78c1.08-109.65,101.83-199.33,223.93-199.33s223.94,90.78,223.94,201.11h-223.94Z"/>
  <rect class="cls-4" x="215.14" y="91.34" width="668.45" height="81.87" rx="9.29" ry="9.29"/>
  <ellipse class="cls-3" cx="170.6" cy="132.27" rx="17.6" ry="17.39"/>
  <ellipse class="cls-3" cx="924.62" cy="130.83" rx="17.6" ry="17.39"/>
  <ellipse class="cls-6" cx="170.6" cy="132.27" rx="24.28" ry="23.99"/>
  <ellipse class="cls-5" cx="924.62" cy="130.83" rx="24.28" ry="23.99"/>
  <rect class="cls-3" y="123.83" width="147.15" height="13.98" transform="translate(147.15 261.65) rotate(180)"/>
  <rect class="cls-1" x="-122.73" y="253.55" width="259.6" height="14.15" transform="translate(-253.55 267.7) rotate(-90)"/>
  <rect class="cls-1" x="145.91" y="472.52" width="1278.15" height="13.98" transform="translate(1569.98 959.03) rotate(180)"/>
  <rect class="cls-3" x="1235.73" y="298.17" width="362.52" height="14.15" transform="translate(1111.74 1722.23) rotate(-90)"/>
  <rect class="cls-3" x="948.89" y="123.99" width="475.17" height="13.98"/>
  <polygon class="cls-3" points="163.92 486.51 51.33 486.51 .07 390.24 112.66 390.24 163.92 486.51"/>
</svg>