<svg width="304" height="376" viewBox="0 0 304 376" fill="none" xmlns="http://www.w3.org/2000/svg">
<rect width="304" height="376" fill="#5D827C" fill-opacity="0.3"/>
<path d="M244.46 106.35C244.46 106.35 214.15 72.52 167.22 75.06C120.29 77.6 80.86 111.63 48.23 138.32C15.6 165.01 7.45001 205.67 27.33 236.92C47.2 268.17 77.6 254.29 117.04 274.08C156.48 293.87 164.11 305.38 207.52 299.57C250.93 293.76 283.1 242.12 277.14 187.85C271.18 133.59 244.46 106.34 244.46 106.34V106.35Z" fill="#37907A"/>
<path opacity="0.7" d="M244.46 106.35C244.46 106.35 214.15 72.52 167.22 75.06C120.29 77.6 80.86 111.63 48.23 138.32C15.6 165.01 7.45001 205.67 27.33 236.92C47.2 268.17 77.6 254.29 117.04 274.08C156.48 293.87 164.11 305.38 207.52 299.57C250.93 293.76 283.1 242.12 277.14 187.85C271.18 133.59 244.46 106.34 244.46 106.34V106.35Z" fill="white"/>
<path d="M224.82 115.2H29.95V241.8H224.82V115.2Z" fill="white"/>
<path d="M211.95 158.9H101.14V229.06H211.95V158.9Z" fill="white" stroke="#102B25" stroke-miterlimit="10"/>
<path d="M135.85 150.75L133.71 144.6H98.99V234.17H214.1V150.75H135.85ZM211.95 229.07H101.14V158.91H211.95V229.07Z" fill="#37907A" stroke="#102B25" stroke-miterlimit="10"/>
<path d="M190.88 153.07H135.83V156.44H190.88V153.07Z" fill="white" stroke="#102B25" stroke-miterlimit="10"/>
<path d="M103.8 152.53L102.21 154.06L103.86 155.83" stroke="#102B25" stroke-linecap="round" stroke-linejoin="round"/>
<path d="M102.21 154.06H105.74" stroke="#102B25" stroke-linecap="round" stroke-linejoin="round"/>
<path d="M112.8 152.53L114.39 154.06L112.74 155.83" stroke="#102B25" stroke-linecap="round" stroke-linejoin="round"/>
<path d="M114.39 154.06H110.86" stroke="#102B25" stroke-linecap="round" stroke-linejoin="round"/>
<path d="M121.97 153.86C121.8 153.17 121.1 152.6 120.35 152.6C119.47 152.6 118.76 153.31 118.76 154.19C118.76 155.07 119.47 155.78 120.35 155.78C120.73 155.78 121.08 155.65 121.36 155.42" stroke="#102B25" stroke-linecap="round" stroke-linejoin="round"/>
<path d="M120.9 154.04H122.14V152.57" stroke="#102B25" stroke-linecap="round" stroke-linejoin="round"/>
<path d="M130.39 153.51L128.92 152.33L127.53 153.51V156.1H130.39V153.51Z" stroke="#102B25" stroke-linecap="round" stroke-linejoin="round"/>
<path d="M129.49 154.21H128.37V156H129.49V154.21Z" fill="#102B25"/>
<path d="M127.53 153.51L126.69 154.28" stroke="#102B25" stroke-linecap="round" stroke-linejoin="round"/>
<path d="M130.39 153.51L131.18 154.21" stroke="#102B25" stroke-linecap="round" stroke-linejoin="round"/>
<path d="M129.86 147.78L132.09 150.08" stroke="#102B25" stroke-linecap="round" stroke-linejoin="round"/>
<path d="M132.13 147.82L129.83 150.05" stroke="#102B25" stroke-linecap="round" stroke-linejoin="round"/>
<path d="M206.11 153.69H210.52" stroke="#102B25" stroke-linecap="round" stroke-linejoin="round"/>
<path d="M206.11 154.69H210.52" stroke="#102B25" stroke-linecap="round" stroke-linejoin="round"/>
<path d="M206.11 155.68H210.52" stroke="#102B25" stroke-linecap="round" stroke-linejoin="round"/>
<path d="M206.11 156.68H210.52" stroke="#102B25" stroke-linecap="round" stroke-linejoin="round"/>
<path d="M182.93 167.19H188.49" stroke="#102B25" stroke-linecap="round" stroke-linejoin="round"/>
<path d="M175.73 167.19H180.62" stroke="#102B25" stroke-linecap="round" stroke-linejoin="round"/>
<path d="M163.76 167.19H173.93" stroke="#102B25" stroke-linecap="round" stroke-linejoin="round"/>
<path d="M163.76 170.58H188.49" stroke="#102B25" stroke-linecap="round" stroke-linejoin="round"/>
<path d="M184.86 173.98H188.49" stroke="#102B25" stroke-linecap="round" stroke-linejoin="round"/>
<path d="M167.76 173.98H182.54" stroke="#102B25" stroke-linecap="round" stroke-linejoin="round"/>
<path d="M163.76 173.98H165.7" stroke="#102B25" stroke-linecap="round" stroke-linejoin="round"/>
<path d="M163.76 177.37H188.49" stroke="#102B25" stroke-linecap="round" stroke-linejoin="round"/>
<path d="M172.39 205.69H166.89V222.58H172.39V205.69Z" fill="#102B25" stroke="#102B25" stroke-linecap="round" stroke-linejoin="round"/>
<path d="M180.24 185.65H174.74V222.58H180.24V185.65Z" fill="#37907A" stroke="#102B25" stroke-miterlimit="10"/>
<path d="M188.1 196.66H182.6V222.59H188.1V196.66Z" fill="#102B25" stroke="#102B25" stroke-linecap="round" stroke-linejoin="round"/>
<path d="M195.96 185.65H190.46V222.58H195.96V185.65Z" fill="#37907A" stroke="#102B25" stroke-miterlimit="10"/>
<path d="M203.82 169.55H198.32V222.59H203.82V169.55Z" fill="#102B25" stroke="#102B25" stroke-linecap="round" stroke-linejoin="round"/>
<path d="M149.49 137.56H38.68V207.72H149.49V137.56Z" fill="white" stroke="#102B25" stroke-miterlimit="10"/>
<path d="M73.39 129.41L71.25 123.26H36.53V212.83H151.64V129.41H73.39ZM149.49 207.73H38.68V137.57H149.49V207.73Z" fill="#37907A" stroke="#102B25" stroke-miterlimit="10"/>
<path d="M128.43 131.73H73.38V135.1H128.43V131.73Z" fill="white" stroke="#102B25" stroke-miterlimit="10"/>
<path d="M41.35 131.19L39.76 132.72L41.41 134.49" stroke="#102B25" stroke-linecap="round" stroke-linejoin="round"/>
<path d="M39.76 132.72H43.29" stroke="#102B25" stroke-linecap="round" stroke-linejoin="round"/>
<path d="M50.35 131.19L51.94 132.72L50.29 134.49" stroke="#102B25" stroke-linecap="round" stroke-linejoin="round"/>
<path d="M51.94 132.72H48.41" stroke="#102B25" stroke-linecap="round" stroke-linejoin="round"/>
<path d="M59.52 132.52C59.35 131.83 58.65 131.26 57.9 131.26C57.02 131.26 56.31 131.97 56.31 132.85C56.31 133.73 57.02 134.44 57.9 134.44C58.28 134.44 58.63 134.31 58.91 134.08" stroke="#102B25" stroke-linecap="round" stroke-linejoin="round"/>
<path d="M58.45 132.7H59.69V131.23" stroke="#102B25" stroke-linecap="round" stroke-linejoin="round"/>
<path d="M67.93 132.17L66.47 130.99L65.07 132.17V134.76H67.93V132.17Z" stroke="#102B25" stroke-linecap="round" stroke-linejoin="round"/>
<path d="M67.03 132.87H65.91V134.66H67.03V132.87Z" fill="#102B25"/>
<path d="M65.07 132.17L64.24 132.94" stroke="#102B25" stroke-linecap="round" stroke-linejoin="round"/>
<path d="M67.93 132.17L68.72 132.87" stroke="#102B25" stroke-linecap="round" stroke-linejoin="round"/>
<path d="M67.41 126.44L69.64 128.74" stroke="#102B25" stroke-linecap="round" stroke-linejoin="round"/>
<path d="M69.67 126.48L67.37 128.71" stroke="#102B25" stroke-linecap="round" stroke-linejoin="round"/>
<path d="M143.65 132.35H148.07" stroke="#102B25" stroke-linecap="round" stroke-linejoin="round"/>
<path d="M143.65 133.34H148.07" stroke="#102B25" stroke-linecap="round" stroke-linejoin="round"/>
<path d="M143.65 134.34H148.07" stroke="#102B25" stroke-linecap="round" stroke-linejoin="round"/>
<path d="M143.65 135.34H148.07" stroke="#102B25" stroke-linecap="round" stroke-linejoin="round"/>
<path d="M44.38 200.96V176.72L52.09 193.05L58.64 190.19L66.05 196.04L78.68 187.83L86.38 198.6L91.78 195.91L96.4 198.6L102.18 197.93L109.89 199.78L117.98 199.11L123.13 200.96H44.38Z" fill="#102B25"/>
<path d="M125.53 158.9H133.93" stroke="#102B25" stroke-linecap="round" stroke-linejoin="round"/>
<path d="M114.65 158.9H122.03" stroke="#102B25" stroke-linecap="round" stroke-linejoin="round"/>
<path d="M96.58 158.9H111.94" stroke="#102B25" stroke-linecap="round" stroke-linejoin="round"/>
<path d="M96.58 162.3H133.93" stroke="#102B25" stroke-linecap="round" stroke-linejoin="round"/>
<path d="M128.44 165.7H133.93" stroke="#102B25" stroke-linecap="round" stroke-linejoin="round"/>
<path d="M102.62 165.7H124.94" stroke="#102B25" stroke-linecap="round" stroke-linejoin="round"/>
<path d="M96.58 165.7H99.51" stroke="#102B25" stroke-linecap="round" stroke-linejoin="round"/>
<path d="M96.58 169.09H133.93" stroke="#102B25" stroke-linecap="round" stroke-linejoin="round"/>
<path d="M133.93 174.55H125.53" stroke="#102B25" stroke-linecap="round" stroke-linejoin="round"/>
<path d="M114.65 174.55H122.03" stroke="#102B25" stroke-linecap="round" stroke-linejoin="round"/>
<path d="M96.58 174.55H111.94" stroke="#102B25" stroke-linecap="round" stroke-linejoin="round"/>
<path d="M96.58 177.95H133.93" stroke="#102B25" stroke-linecap="round" stroke-linejoin="round"/>
<path d="M133.93 181.34H128.44" stroke="#102B25" stroke-linecap="round" stroke-linejoin="round"/>
<path d="M102.62 181.34H124.94" stroke="#102B25" stroke-linecap="round" stroke-linejoin="round"/>
<path d="M96.58 181.34H99.51" stroke="#102B25" stroke-linecap="round" stroke-linejoin="round"/>
<path d="M96.58 184.74H133.93" stroke="#102B25" stroke-linecap="round" stroke-linejoin="round"/>
<path d="M53.96 164.5L49.54 174.42C44.06 171.98 41.6 165.56 44.04 160.08C45.81 156.1 49.61 153.64 53.96 153.64V164.5Z" fill="#37907A"/>
<g opacity="0.47">
<path d="M53.96 164.5L49.54 174.42C44.06 171.98 41.6 165.56 44.04 160.08C45.81 156.1 49.61 153.64 53.96 153.64V164.5Z" fill="white"/>
</g>
<path d="M53.96 164.5L59.06 174.09C56.02 175.71 52.7 175.83 49.54 174.42L53.96 164.5Z" fill="#102B25"/>
<path d="M53.96 164.5L62.4 157.67C66.17 162.33 65.46 169.17 60.79 172.94C60.22 173.4 59.7 173.75 59.05 174.09L53.95 164.5H53.96Z" fill="#37907A"/>
<path d="M53.96 164.5V153.64C57.41 153.64 60.23 154.99 62.4 157.67L53.96 164.5Z" fill="#102B25"/>
<path d="M53.96 170.43C57.224 170.43 59.87 167.784 59.87 164.52C59.87 161.256 57.224 158.61 53.96 158.61C50.696 158.61 48.05 161.256 48.05 164.52C48.05 167.784 50.696 170.43 53.96 170.43Z" fill="white"/>
<path d="M83.39 164.5L78.97 174.42C73.49 171.98 71.03 165.56 73.47 160.08C75.24 156.1 79.04 153.64 83.39 153.64V164.5Z" fill="#37907A"/>
<g opacity="0.47">
<path d="M83.39 164.5L78.97 174.42C73.49 171.98 71.03 165.56 73.47 160.08C75.24 156.1 79.04 153.64 83.39 153.64V164.5Z" fill="white"/>
</g>
<path d="M83.39 164.5L88.49 174.09C85.44 175.71 82.13 175.83 78.97 174.42L83.39 164.5Z" fill="#102B25"/>
<path d="M83.39 164.5L91.83 157.67C95.6 162.33 94.89 169.17 90.22 172.94C89.65 173.4 89.13 173.75 88.48 174.09L83.38 164.5H83.39Z" fill="#37907A"/>
<path d="M83.39 164.5V153.64C86.84 153.64 89.66 154.99 91.83 157.67L83.39 164.5Z" fill="#102B25"/>
<path d="M83.39 170.43C86.654 170.43 89.3 167.784 89.3 164.52C89.3 161.256 86.654 158.61 83.39 158.61C80.126 158.61 77.48 161.256 77.48 164.52C77.48 167.784 80.126 170.43 83.39 170.43Z" fill="white"/>
<path d="M44 145.22H113.76" stroke="#102B25" stroke-linecap="round" stroke-linejoin="round"/>
<path d="M44 148.61H126.73" stroke="#102B25" stroke-linecap="round" stroke-linejoin="round"/>
<path d="M250.23 217.6C250.23 217.6 237.68 215.09 234.17 218.1C230.66 221.11 232.66 239.43 231.66 244.2C230.66 248.97 228.15 253.99 229.15 259.01C230.15 264.03 232.41 267.54 233.42 270.05C234.43 272.56 233.17 281.84 233.17 281.84H269.81C269.81 281.84 276.33 264.53 276.33 251.48C276.33 238.43 272.32 227.14 266.29 222.87C260.27 218.6 250.23 217.6 250.23 217.6Z" fill="#37907A"/>
<path d="M250.23 217.6C250.23 217.6 237.68 215.09 234.17 218.1C230.66 221.11 232.66 239.43 231.66 244.2C230.66 248.97 228.15 253.99 229.15 259.01C230.15 264.03 232.41 267.54 233.42 270.05C234.43 272.56 233.17 281.84 233.17 281.84H269.81C269.81 281.84 276.33 264.53 276.33 251.48C276.33 238.43 272.32 227.14 266.29 222.87C260.27 218.6 250.23 217.6 250.23 217.6Z" stroke="#102B25" stroke-linecap="round" stroke-linejoin="round"/>
<path d="M249.98 172.43C249.98 172.43 244.46 167.91 239.19 171.18C233.92 174.44 224.89 189.5 225.89 197.03C226.89 204.56 235.93 211.58 229.9 215.6C223.88 219.61 226.14 226.89 229.15 228.9L230.91 229.15C230.91 229.15 230.91 221.87 235.93 219.87C240.95 217.86 248.23 219.62 249.98 221.88C251.74 224.14 248.47 235.68 252.74 238.69C257.01 241.7 263.03 242.2 261.77 245.21C260.52 248.22 256.25 252.99 259.01 257.25C261.77 261.52 268.55 265.78 270.8 264.28C273.06 262.77 269.8 261.02 271.05 260.01C272.3 259.01 282.59 255.49 280.84 251.23C279.08 246.96 275.32 244.71 277.08 242.95C278.84 241.19 285.36 236.93 284.61 230.91C283.86 224.89 269.55 220.37 269.05 213.85C268.55 207.33 277.58 206.57 274.57 191.77C271.56 176.96 262.27 170.44 257.76 170.44C253.25 170.44 249.98 172.45 249.98 172.45V172.43Z" fill="#102B25" stroke="#102B25" stroke-linecap="round" stroke-linejoin="round"/>
<path d="M254.83 180.31C258.62 185.55 263.38 193.29 263.53 199.13C263.77 208.87 255.22 212.9 256.64 220.5C258.06 228.1 274.67 229.41 275.87 236.17C277.08 242.94 269.46 240.44 271.36 244.24C273.26 248.04 280.62 251.36 277.53 255.64" stroke="white" stroke-linecap="round" stroke-linejoin="round"/>
<path d="M250.23 174.44C250.23 174.44 251.03 175.35 252.23 176.87" stroke="white" stroke-linecap="round" stroke-linejoin="round"/>
<path d="M246.46 212.93C247.33 213.84 247.85 214.69 247.85 215.52" stroke="white" stroke-linecap="round" stroke-linejoin="round"/>
<path d="M231.94 183.94C231.94 183.94 228.14 194.39 233.84 201.51C236.88 205.31 240.65 208.09 243.52 210.37" stroke="white" stroke-linecap="round" stroke-linejoin="round"/>
<path d="M266.15 227.24C267.25 227.64 268.45 227.98 269.7 228.34" stroke="white" stroke-linecap="round" stroke-linejoin="round"/>
<path d="M267.56 181.8C267.56 181.8 275.63 192.01 272.78 200.8C269.93 209.59 260.43 214.34 260.43 220.03C260.43 222.17 261.03 223.67 262.05 224.79" stroke="white" stroke-linecap="round" stroke-linejoin="round"/>
<path d="M171.62 273.48C171.62 273.48 170.11 275.33 170.11 276.49C170.11 277.65 169.53 279.97 170.23 280.08C170.93 280.2 171.39 277.65 172.08 276.72C172.77 275.79 174.51 275.56 174.4 274.29C174.28 273.02 172.66 271.86 171.62 273.48Z" fill="white" stroke="#102B25" stroke-linecap="round" stroke-linejoin="round"/>
<path d="M188.31 275.1C188.31 275.1 181.82 269.65 180.2 269.07C178.58 268.49 175.33 272.2 173.36 275.79C171.39 279.38 172.43 280.19 173.48 280.31C174.52 280.43 179.04 278.46 179.04 278.46C179.04 278.46 181.36 280.43 184.49 281.13C187.62 281.83 192.14 279.97 192.25 278.12C192.37 276.27 188.31 275.11 188.31 275.11V275.1Z" fill="white" stroke="#102B25" stroke-linecap="round" stroke-linejoin="round"/>
<path d="M248.73 237.91C248.73 237.91 248.98 275.82 247.98 278.83C246.98 281.84 243.46 281.84 237.69 282.09C231.92 282.34 196.79 281.34 196.79 281.34C196.79 281.34 193.53 281.84 190.77 281.84C188.01 281.84 183.24 281.34 181.49 280.08C179.74 278.82 178.23 278.57 177.48 278.83C176.73 279.08 174.72 281.59 172.96 281.59C171.2 281.59 169.2 280.84 170.45 280.59C171.7 280.34 178.48 273.06 179.99 273.06C181.5 273.06 192.29 275.82 194.29 275.57C196.3 275.32 232.18 268.29 232.18 268.29L230.93 229.14C230.93 229.14 229.68 222.36 235.95 219.86" fill="#37907A"/>
<path d="M248.73 237.91C248.73 237.91 248.98 275.82 247.98 278.83C246.98 281.84 243.46 281.84 237.69 282.09C231.92 282.34 196.79 281.34 196.79 281.34C196.79 281.34 193.53 281.84 190.77 281.84C188.01 281.84 183.24 281.34 181.49 280.08C179.74 278.82 178.23 278.57 177.48 278.83C176.73 279.08 174.72 281.59 172.96 281.59C171.2 281.59 169.2 280.84 170.45 280.59C171.7 280.34 178.48 273.06 179.99 273.06C181.5 273.06 192.29 275.82 194.29 275.57C196.3 275.32 232.18 268.29 232.18 268.29L230.93 229.14C230.93 229.14 229.68 222.36 235.95 219.86" stroke="#102B25" stroke-linecap="round" stroke-linejoin="round"/>
<path d="M207.23 281.62C206.27 278.17 206.91 275.14 207.72 273.04C200.86 274.36 195.04 275.47 194.27 275.56C192.26 275.81 181.47 273.05 179.97 273.05C178.47 273.05 171.69 280.33 170.43 280.58C169.18 280.83 171.18 281.58 172.94 281.58C174.7 281.58 176.7 279.07 177.46 278.82C178.21 278.57 179.72 278.82 181.47 280.07C183.23 281.32 187.99 281.83 190.75 281.83C193.51 281.83 196.77 281.33 196.77 281.33C196.77 281.33 201.22 281.46 207.22 281.61L207.23 281.62Z" fill="white" stroke="#102B25" stroke-linecap="round" stroke-linejoin="round"/>
<path d="M174.28 270.81C174.28 270.81 172.31 271.97 171.61 273.48C170.91 274.99 171.61 279.62 172.77 279.62C173.93 279.62 174.74 278.35 174.74 276.72C174.74 275.09 174.28 270.81 174.28 270.81Z" fill="white" stroke="#102B25" stroke-linecap="round" stroke-linejoin="round"/>
<path d="M175.9 269.88C175.9 269.88 174.05 270 173.35 271.39C172.65 272.78 172.77 278.69 173.93 278.92C175.09 279.15 175.55 277.18 175.55 275.91C175.55 274.64 175.9 269.88 175.9 269.88Z" fill="white" stroke="#102B25" stroke-linecap="round" stroke-linejoin="round"/>
<path d="M180.19 269.07C180.19 269.07 177.41 268.61 176.25 269.42C175.09 270.23 174.86 277.42 175.67 278C176.48 278.58 177.87 277.07 177.87 276.26C177.87 275.45 179.49 271.04 179.49 271.04" fill="white"/>
<path d="M180.19 269.07C180.19 269.07 177.41 268.61 176.25 269.42C175.09 270.23 174.86 277.42 175.67 278C176.48 278.58 177.87 277.07 177.87 276.26C177.87 275.45 179.49 271.04 179.49 271.04" stroke="#102B25" stroke-linecap="round" stroke-linejoin="round"/>
<mask id="mask0_1_246" style="mask-type:luminance" maskUnits="userSpaceOnUse" x="61" y="156" width="118" height="126">
<path d="M178.71 156.2H61.63V281.89H178.71V156.2Z" fill="white"/>
</mask>
<g mask="url(#mask0_1_246)">
<path d="M110.55 245.36C110.55 245.36 107.22 250.41 108.63 252.86C110.03 255.31 115.11 260.39 125.62 259.69C136.13 258.99 129.82 241.3 131.05 230.44C132.28 219.58 127.72 218 124.04 220.81C120.36 223.62 115.81 237.1 114.06 239.38C112.31 241.66 110.56 245.36 110.56 245.36H110.55Z" fill="#37907A"/>
<mask id="mask1_1_246" style="mask-type:luminance" maskUnits="userSpaceOnUse" x="108" y="219" width="24" height="41">
<path d="M110.55 245.36C110.55 245.36 107.22 250.41 108.63 252.86C110.03 255.31 115.11 260.39 125.62 259.69C136.13 258.99 129.82 241.3 131.05 230.44C132.28 219.58 127.72 218 124.04 220.81C120.36 223.62 115.81 237.1 114.06 239.38C112.31 241.66 110.56 245.36 110.56 245.36H110.55Z" fill="white"/>
</mask>
<g mask="url(#mask1_1_246)">
<path opacity="0.42" d="M110.55 245.36C110.55 245.36 107.22 250.41 108.63 252.86C110.03 255.31 115.11 260.39 125.62 259.69C136.13 258.99 129.82 241.3 131.05 230.44C132.28 219.58 127.72 218 124.04 220.81C120.36 223.62 115.81 237.1 114.06 239.38C112.31 241.66 110.56 245.36 110.56 245.36H110.55Z" stroke="#102B25" stroke-linecap="round" stroke-linejoin="round"/>
</g>
<path d="M110.55 245.36C110.55 245.36 107.22 250.41 108.63 252.86C110.03 255.31 115.11 260.39 125.62 259.69C136.13 258.99 129.82 241.3 131.05 230.44C132.28 219.58 127.72 218 124.04 220.81C120.36 223.62 115.81 237.1 114.06 239.38C112.31 241.66 110.56 245.36 110.56 245.36H110.55Z" stroke="#102B25" stroke-linecap="round" stroke-linejoin="round"/>
<path d="M123.34 248.31C123.34 248.31 123.34 263.9 123.52 268.8C123.7 273.7 124.4 285.61 124.4 285.61H157.33L155.58 250.06L155.05 248.31H123.35H123.34Z" fill="#102B25" stroke="#102B25" stroke-linecap="round" stroke-linejoin="round"/>
<path d="M142.5 252.43L155.71 252.96L155.56 250.06L155.04 248.31H142.29L142.5 252.43Z" fill="white" stroke="#102B25" stroke-linecap="round" stroke-linejoin="round"/>
<path d="M126.84 248.31H123.34C123.34 248.31 123.34 249.66 123.34 251.67L126.84 251.81V248.31Z" fill="white" stroke="#102B25" stroke-linecap="round" stroke-linejoin="round"/>
<path d="M127.96 248.31L128.15 251.86L140.12 252.34L139.99 248.31H127.96Z" fill="white" stroke="#102B25" stroke-linecap="round" stroke-linejoin="round"/>
<path d="M123.51 221.33C123.51 221.33 123.33 241.47 123.51 244.62C123.69 247.77 122.11 248.82 124.74 249.35C127.37 249.88 148.73 250.4 150.84 250.05C152.94 249.7 152.94 248.65 153.47 247.6C154 246.55 161 201.54 159.42 200.31C157.84 199.08 147.86 195.41 146.98 195.41C146.1 195.41 133.14 196.11 130.69 196.46C128.24 196.81 125.44 196.11 125.26 197.51C125.08 198.91 123.51 221.33 123.51 221.33Z" fill="white"/>
<mask id="mask2_1_246" style="mask-type:luminance" maskUnits="userSpaceOnUse" x="123" y="195" width="37" height="56">
<path d="M123.51 221.33C123.51 221.33 123.33 241.47 123.51 244.62C123.69 247.77 122.11 248.82 124.74 249.35C127.37 249.88 148.73 250.4 150.84 250.05C152.94 249.7 152.94 248.65 153.47 247.6C154 246.55 161 201.54 159.42 200.31C157.84 199.08 147.86 195.41 146.98 195.41C146.1 195.41 133.14 196.11 130.69 196.46C128.24 196.81 125.44 196.11 125.26 197.51C125.08 198.91 123.51 221.33 123.51 221.33Z" fill="white"/>
</mask>
<g mask="url(#mask2_1_246)">
<path d="M134.25 202.1C134.25 202.1 130.15 201.9 129.37 202.3C128.93 202.52 126.24 209.12 123.98 214.81C123.72 218.52 123.52 221.34 123.52 221.34C123.52 221.34 123.34 241.48 123.52 244.63C123.64 246.7 123 247.86 123.29 248.56C124.17 245.48 125.59 240.14 127.22 232.57C129.95 219.87 134.25 202.1 134.25 202.1Z" fill="#BDBDBD"/>
</g>
<path d="M123.51 221.33C123.51 221.33 123.33 241.47 123.51 244.62C123.69 247.77 122.11 248.82 124.74 249.35C127.37 249.88 148.73 250.4 150.84 250.05C152.94 249.7 152.94 248.65 153.47 247.6C154 246.55 161 201.54 159.42 200.31C157.84 199.08 147.86 195.41 146.98 195.41C146.1 195.41 133.14 196.11 130.69 196.46C128.24 196.81 125.44 196.11 125.26 197.51C125.08 198.91 123.51 221.33 123.51 221.33Z" stroke="#102B25" stroke-linecap="round" stroke-linejoin="round"/>
<path d="M87.08 210.3C87.08 210.3 80.77 207.15 78.5 206.62C76.22 206.09 68.87 204.34 68.34 205.04C67.81 205.74 68.52 206.44 69.22 206.44C69.92 206.44 74.47 208.37 74.47 208.37C74.47 208.37 73.94 212.57 73.94 213.62C73.94 214.67 79.54 216.77 80.77 216.95C82 217.13 84.46 216.19 84.46 216.19L86.2 215.72L87.08 210.29V210.3Z" fill="white" stroke="#102B25" stroke-linecap="round" stroke-linejoin="round"/>
<path d="M73.95 209.07C73.95 209.07 73.25 213.8 73.77 214.32C74.3 214.85 77.97 217.3 78.5 216.07C79.03 214.84 78.85 210.12 78.85 209.59C78.85 209.06 73.95 209.06 73.95 209.06V209.07Z" fill="white" stroke="#102B25" stroke-linecap="round" stroke-linejoin="round"/>
<path d="M84.98 210.47C84.98 210.47 79.03 208.19 77.62 208.19C76.21 208.19 73.94 210.12 72.72 210.47C71.49 210.82 73.07 211.87 73.95 211.7C74.83 211.52 77.28 210.82 77.28 210.82C77.28 210.82 78.16 212.57 79.56 213.45C80.96 214.33 83.94 213.8 83.94 213.8" fill="white"/>
<path d="M84.98 210.47C84.98 210.47 79.03 208.19 77.62 208.19C76.21 208.19 73.94 210.12 72.72 210.47C71.49 210.82 73.07 211.87 73.95 211.7C74.83 211.52 77.28 210.82 77.28 210.82C77.28 210.82 78.16 212.57 79.56 213.45C80.96 214.33 83.94 213.8 83.94 213.8" stroke="#102B25" stroke-linecap="round" stroke-linejoin="round"/>
<path d="M138.36 195.29C138.36 195.29 127.86 194.39 125.72 194.86C123.59 195.33 118.61 207.42 117.9 209.08C117.19 210.74 109.37 218.33 109.37 218.33L86.85 209.56L84.48 216.2C84.48 216.2 102.73 228.05 105.82 229.48C108.9 230.9 113.17 230.67 114.59 230.67C116.01 230.67 117.43 229.48 117.43 229.48L110.55 245.36C110.55 245.36 121.69 232.08 125.01 225.68C128.33 219.28 135.92 200.55 136.63 200.08C137.34 199.61 138.36 195.29 138.36 195.29Z" fill="#37907A"/>
<path d="M138.36 195.29C138.36 195.29 127.86 194.39 125.72 194.86C123.59 195.33 118.61 207.42 117.9 209.08C117.19 210.74 109.37 218.33 109.37 218.33L86.85 209.56L84.48 216.2C84.48 216.2 102.73 228.05 105.82 229.48C108.9 230.9 113.17 230.67 114.59 230.67C116.01 230.67 117.43 229.48 117.43 229.48L110.55 245.36C110.55 245.36 121.69 232.08 125.01 225.68C128.33 219.28 135.92 200.55 136.63 200.08C137.34 199.61 138.36 195.29 138.36 195.29Z" stroke="#102B25" stroke-linecap="round" stroke-linejoin="round"/>
<path d="M138.36 195.29L135.44 198.06L135.59 203.59L138.67 200.67L138.36 195.29Z" fill="white" stroke="#102B25" stroke-linecap="round" stroke-linejoin="round"/>
<path d="M132.83 168.33C132.83 168.33 129.68 173.16 129.89 174.17C130.09 175.18 130.61 176.21 130.61 177.02C130.61 177.83 127.06 180.66 127.46 181.27C127.86 181.88 129.89 182.89 129.89 182.89C129.89 182.89 129.8 190.77 131.62 191.79C133.44 192.8 136.88 191.18 136.88 191.18L138.7 201.29L149.01 194.01V186.73C149.01 186.73 155.07 179.86 155.48 174.4C155.88 168.94 148.4 162.88 140.92 161.87C133.44 160.86 129.4 165.91 130.61 167.53C131.82 169.15 132.83 168.34 132.83 168.34V168.33Z" fill="white"/>
<mask id="mask3_1_246" style="mask-type:luminance" maskUnits="userSpaceOnUse" x="127" y="161" width="29" height="41">
<path d="M132.83 168.33C132.83 168.33 129.68 173.16 129.89 174.17C130.09 175.18 130.61 176.21 130.61 177.02C130.61 177.83 127.06 180.66 127.46 181.27C127.86 181.88 129.89 182.89 129.89 182.89C129.89 182.89 129.8 190.77 131.62 191.79C133.44 192.8 136.88 191.18 136.88 191.18L138.7 201.29L149.01 194.01V186.73C149.01 186.73 155.07 179.86 155.48 174.4C155.88 168.94 148.4 162.88 140.92 161.87C133.44 160.86 129.4 165.91 130.61 167.53C131.82 169.15 132.83 168.34 132.83 168.34V168.33Z" fill="white"/>
</mask>
<g mask="url(#mask3_1_246)">
<path d="M145.15 196.72L149 194V186.72C149 186.72 155.06 179.85 155.47 174.39C155.73 170.82 152.63 167 148.36 164.49L137.64 168.93C137.64 168.93 132.6 173.35 133.27 173.95C133.94 174.55 135.86 177.03 135.38 178.16C135.38 178.16 133.58 178.87 133.76 180.1C133.94 181.34 138.13 189.33 138.13 189.33L136.88 191.16L145.16 196.71L145.15 196.72Z" fill="#37907A"/>
<path opacity="0.5" d="M145.15 196.72L149 194V186.72C149 186.72 155.06 179.85 155.47 174.39C155.73 170.82 152.63 167 148.36 164.49L137.64 168.93C137.64 168.93 132.6 173.35 133.27 173.95C133.94 174.55 135.86 177.03 135.38 178.16C135.38 178.16 133.58 178.87 133.76 180.1C133.94 181.34 138.13 189.33 138.13 189.33L136.88 191.16L145.16 196.71L145.15 196.72Z" fill="white"/>
</g>
<path d="M132.83 168.33C132.83 168.33 129.68 173.16 129.89 174.17C130.09 175.18 130.61 176.21 130.61 177.02C130.61 177.83 127.06 180.66 127.46 181.27C127.86 181.88 129.89 182.89 129.89 182.89C129.89 182.89 129.8 190.77 131.62 191.79C133.44 192.8 136.88 191.18 136.88 191.18L138.7 201.29L149.01 194.01V186.73C149.01 186.73 155.07 179.86 155.48 174.4C155.88 168.94 148.4 162.88 140.92 161.87C133.44 160.86 129.4 165.91 130.61 167.53C131.82 169.15 132.83 168.34 132.83 168.34V168.33Z" stroke="#102B25" stroke-linecap="round" stroke-linejoin="round"/>
<path d="M148.91 195.59C148.91 195.59 146.63 203.65 143.83 213.8C141.03 223.96 141.55 255.48 141.55 257.24C141.55 259 145.58 265.3 150.13 267.05C154.68 268.8 159.41 269.15 159.41 269.15C159.41 269.15 156.26 248.31 156.26 242.35C156.26 236.39 159.06 227.11 159.06 227.11C159.06 227.11 163.26 237.62 165.01 239.02C166.76 240.42 173.77 242 173.59 235.52C173.41 229.04 167.46 205.92 165.88 203.64C164.3 201.36 156.77 199.09 156.77 199.09L148.89 195.59H148.91Z" fill="#37907A"/>
<path d="M148.91 195.59C148.91 195.59 146.63 203.65 143.83 213.8C141.03 223.96 141.55 255.48 141.55 257.24C141.55 259 145.58 265.3 150.13 267.05C154.68 268.8 159.41 269.15 159.41 269.15C159.41 269.15 156.26 248.31 156.26 242.35C156.26 236.39 159.06 227.11 159.06 227.11C159.06 227.11 163.26 237.62 165.01 239.02C166.76 240.42 173.77 242 173.59 235.52C173.41 229.04 167.46 205.92 165.88 203.64C164.3 201.36 156.77 199.09 156.77 199.09L148.89 195.59H148.91Z" stroke="#102B25" stroke-linecap="round" stroke-linejoin="round"/>
<path d="M148.97 192.06L139.9 198.52L140.51 204.21L150.51 195.14L148.97 192.06Z" fill="white" stroke="#102B25" stroke-linecap="round" stroke-linejoin="round"/>
<path d="M151.89 239.37C151.89 239.37 145.23 236.39 144.71 236.39C144.19 236.39 138.93 239.19 137.88 239.19C136.83 239.19 136.3 239.89 137 240.42C137.7 240.95 138.93 240.95 138.93 240.95C138.93 240.95 136.48 242.35 136.65 243.05C136.83 243.75 138.23 244.28 138.23 244.28C138.23 244.28 139.46 246.21 141.21 246.73C142.96 247.26 149.09 245.15 149.09 245.15L153.82 244.8L151.89 239.37Z" fill="white"/>
<mask id="mask4_1_246" style="mask-type:luminance" maskUnits="userSpaceOnUse" x="136" y="236" width="18" height="11">
<path d="M151.89 239.37C151.89 239.37 145.23 236.39 144.71 236.39C144.19 236.39 138.93 239.19 137.88 239.19C136.83 239.19 136.3 239.89 137 240.42C137.7 240.95 138.93 240.95 138.93 240.95C138.93 240.95 136.48 242.35 136.65 243.05C136.83 243.75 138.23 244.28 138.23 244.28C138.23 244.28 139.46 246.21 141.21 246.73C142.96 247.26 149.09 245.15 149.09 245.15L153.82 244.8L151.89 239.37Z" fill="white"/>
</mask>
<g mask="url(#mask4_1_246)">
<path d="M144.69 239.43C142.56 239.9 138.23 244.28 138.23 244.28C138.23 244.28 139.46 246.21 141.21 246.73C142.96 247.26 149.09 245.15 149.09 245.15L153.82 244.8L151.89 239.37C151.89 239.37 146.83 238.95 144.69 239.43Z" fill="#37907A"/>
<path opacity="0.5" d="M144.69 239.43C142.56 239.9 138.23 244.28 138.23 244.28C138.23 244.28 139.46 246.21 141.21 246.73C142.96 247.26 149.09 245.15 149.09 245.15L153.82 244.8L151.89 239.37C151.89 239.37 146.83 238.95 144.69 239.43Z" fill="white"/>
</g>
<path d="M151.89 239.37C151.89 239.37 145.23 236.39 144.71 236.39C144.19 236.39 138.93 239.19 137.88 239.19C136.83 239.19 136.3 239.89 137 240.42C137.7 240.95 138.93 240.95 138.93 240.95C138.93 240.95 136.48 242.35 136.65 243.05C136.83 243.75 138.23 244.28 138.23 244.28C138.23 244.28 139.46 246.21 141.21 246.73C142.96 247.26 149.09 245.15 149.09 245.15L153.82 244.8L151.89 239.37Z" stroke="#102B25" stroke-linecap="round" stroke-linejoin="round"/>
<path d="M167.82 231.84L151.36 238.5L152.59 245.51C152.59 245.51 174.66 242.36 175.71 240.78C176.76 239.2 172.73 230.27 172.73 230.27" fill="#37907A"/>
<path d="M167.82 231.84L151.36 238.5L152.59 245.51C152.59 245.51 174.66 242.36 175.71 240.78C176.76 239.2 172.73 230.27 172.73 230.27" stroke="#102B25" stroke-linecap="round" stroke-linejoin="round"/>
<path d="M117.43 229.47C117.43 229.47 120.72 216.78 121.77 209.77L117.43 229.47Z" fill="white"/>
<path d="M117.43 229.47C117.43 229.47 120.72 216.78 121.77 209.77" stroke="#102B25" stroke-linecap="round" stroke-linejoin="round"/>
<path d="M131.92 265.93L136.65 269.87L137.44 285.63" stroke="white" stroke-linecap="round" stroke-linejoin="round"/>
<path d="M159.07 227.11L154.42 218.58C154.42 218.58 153.08 216.79 155.76 212.31" stroke="#102B25" stroke-linecap="round" stroke-linejoin="round"/>
<path d="M140.91 161.86C133.43 160.85 129.39 165.9 130.6 167.52C131.08 168.16 131.53 168.42 131.89 168.5L132.82 168.33C132.82 168.33 139.69 168.53 139.29 170.76C138.89 172.98 134.84 173.19 136.46 175.01C136.89 175.49 137.37 175.9 137.85 176.24H137.62C137.62 176.24 138.31 176.8 138.59 177.63C138.87 178.46 137.35 185.38 137.07 185.93C136.79 186.48 135.27 185.79 133.34 184.41C131.4 183.03 129.88 182.89 129.88 182.89L129.74 184.13C129.74 184.13 131.68 184.68 131.95 185.79C132.23 186.9 130.43 187.03 130.43 188C130.43 188.97 130.3 190.71 131.61 191.78C132.92 192.84 136.87 191.17 136.87 191.17C136.87 191.17 139.84 189.11 140.26 186.89C140.6 185.08 140.85 181.89 141.15 180.33C141.77 179.61 142.33 178.63 142.33 178.63C142.33 178.63 145.56 177.82 144.55 181.06C143.54 184.29 141.52 184.29 141.52 184.29C141.52 184.29 144.48 186.21 149 186.76V186.71C149 186.71 155.06 179.84 155.47 174.38C155.87 168.92 148.39 162.86 140.91 161.85V161.86Z" fill="#102B25" stroke="#102B25" stroke-linecap="round" stroke-linejoin="round"/>
</g>
<path d="M160.02 264.2H148.04V281.9H160.02V264.2Z" fill="white" stroke="#102B25" stroke-linecap="round" stroke-linejoin="round"/>
<path d="M159.48 279.48H158.23C157.68 279.48 157.24 279.04 157.24 278.49C157.24 277.94 157.68 277.5 158.23 277.5H159.48C160.51 277.5 161.35 276.66 161.35 275.63V271.34C161.35 270.31 160.51 269.47 159.48 269.47H157.87C157.32 269.47 156.88 269.03 156.88 268.48C156.88 267.93 157.32 267.49 157.87 267.49H159.48C161.6 267.49 163.33 269.22 163.33 271.34V275.63C163.33 277.75 161.6 279.48 159.48 279.48Z" fill="white" stroke="#102B25" stroke-linecap="round" stroke-linejoin="round"/>
<path d="M96.53 281.66H63.98C63.73 281.66 63.5 281.51 63.4 281.28L54.39 260.73C54.21 260.31 54.51 259.84 54.97 259.84H87.52C87.77 259.84 88 259.99 88.1 260.22L97.11 280.77C97.29 281.19 96.99 281.66 96.53 281.66Z" fill="white" stroke="#102B25" stroke-linecap="round" stroke-linejoin="round"/>
<path d="M93.48 280.06H65.71C65.5 280.06 65.3 279.93 65.22 279.74L57.53 262.21C57.37 261.85 57.63 261.45 58.02 261.45H85.79C86 261.45 86.2 261.58 86.28 261.77L93.97 279.3C94.13 279.66 93.87 280.06 93.48 280.06Z" fill="#102B25" stroke="#102B25" stroke-linecap="round" stroke-linejoin="round"/>
<path d="M63.52 281.9H112.42V280.3H63.52V281.9Z" fill="white" stroke="#102B25" stroke-linecap="round" stroke-linejoin="round"/>
<path d="M63.52 281.9H87.22V280.3H63.52V281.9Z" fill="white" stroke="#102B25" stroke-linecap="round" stroke-linejoin="round"/>
<path d="M21.89 281.89H287.41" stroke="#102B25" stroke-width="2" stroke-linecap="round" stroke-linejoin="round"/>
</svg>
